%TF.GenerationSoftware,KiCad,Pcbnew,8.0.8*%
%TF.CreationDate,2025-04-28T22:16:34+02:00*%
%TF.ProjectId,stern-aux-power-distribution,73746572-6e2d-4617-9578-2d706f776572,rev?*%
%TF.SameCoordinates,Original*%
%TF.FileFunction,Legend,Top*%
%TF.FilePolarity,Positive*%
%FSLAX46Y46*%
G04 Gerber Fmt 4.6, Leading zero omitted, Abs format (unit mm)*
G04 Created by KiCad (PCBNEW 8.0.8) date 2025-04-28 22:16:34*
%MOMM*%
%LPD*%
G01*
G04 APERTURE LIST*
%ADD10C,0.300000*%
%ADD11C,0.150000*%
%ADD12C,0.120000*%
G04 APERTURE END LIST*
D10*
G36*
X63492144Y-49002856D02*
G01*
X63234334Y-49002856D01*
X63072631Y-48922004D01*
X62991780Y-48760302D01*
X62991780Y-48354933D01*
X63072631Y-48193230D01*
X63234333Y-48112380D01*
X63314049Y-48112380D01*
X63492144Y-49002856D01*
G37*
G36*
X64074616Y-43693061D02*
G01*
X64266121Y-43884567D01*
X64358447Y-44069217D01*
X64358447Y-44474589D01*
X64266121Y-44659239D01*
X64074616Y-44850745D01*
X63656650Y-44955237D01*
X62860245Y-44955237D01*
X62442278Y-44850745D01*
X62250772Y-44659239D01*
X62158447Y-44474588D01*
X62158447Y-44069218D01*
X62250772Y-43884567D01*
X62442278Y-43693061D01*
X62860245Y-43588570D01*
X63656650Y-43588570D01*
X64074616Y-43693061D01*
G37*
G36*
X64936225Y-55890158D02*
G01*
X61580669Y-55890158D01*
X61580669Y-54271904D01*
X61858447Y-54271904D01*
X61858447Y-55462380D01*
X61861329Y-55491644D01*
X61883727Y-55545716D01*
X61925111Y-55587100D01*
X61979183Y-55609498D01*
X62008447Y-55612380D01*
X64508447Y-55612380D01*
X64537711Y-55609498D01*
X64591783Y-55587100D01*
X64633167Y-55545716D01*
X64655565Y-55491644D01*
X64655565Y-55433116D01*
X64633167Y-55379044D01*
X64591783Y-55337660D01*
X64537711Y-55315262D01*
X64508447Y-55312380D01*
X63348923Y-55312380D01*
X63348923Y-54629047D01*
X63346041Y-54599783D01*
X63323643Y-54545711D01*
X63282259Y-54504327D01*
X63228187Y-54481929D01*
X63169659Y-54481929D01*
X63115587Y-54504327D01*
X63074203Y-54545711D01*
X63051805Y-54599783D01*
X63048923Y-54629047D01*
X63048923Y-55312380D01*
X62158447Y-55312380D01*
X62158447Y-54271904D01*
X62155565Y-54242640D01*
X62133167Y-54188568D01*
X62091783Y-54147184D01*
X62037711Y-54124786D01*
X61979183Y-54124786D01*
X61925111Y-54147184D01*
X61883727Y-54188568D01*
X61861329Y-54242640D01*
X61858447Y-54271904D01*
X61580669Y-54271904D01*
X61580669Y-52218831D01*
X62694662Y-52218831D01*
X62694662Y-52277359D01*
X62717060Y-52331431D01*
X62758444Y-52372815D01*
X62812516Y-52395213D01*
X62841780Y-52398095D01*
X64208220Y-52398095D01*
X64266121Y-52455996D01*
X64358447Y-52640647D01*
X64358447Y-52926971D01*
X64277596Y-53088672D01*
X64115894Y-53169523D01*
X62841780Y-53169523D01*
X62812516Y-53172405D01*
X62758444Y-53194803D01*
X62717060Y-53236187D01*
X62694662Y-53290259D01*
X62694662Y-53348787D01*
X62717060Y-53402859D01*
X62758444Y-53444243D01*
X62812516Y-53466641D01*
X62841780Y-53469523D01*
X64151304Y-53469523D01*
X64180568Y-53466641D01*
X64185546Y-53464578D01*
X64190922Y-53464197D01*
X64218386Y-53453687D01*
X64456482Y-53334640D01*
X64461375Y-53331559D01*
X64463684Y-53330790D01*
X64466558Y-53328296D01*
X64481367Y-53318975D01*
X64493690Y-53304766D01*
X64507899Y-53292443D01*
X64517220Y-53277634D01*
X64519714Y-53274760D01*
X64520483Y-53272451D01*
X64523564Y-53267558D01*
X64642611Y-53029463D01*
X64653121Y-53001999D01*
X64653502Y-52996623D01*
X64655565Y-52991645D01*
X64658447Y-52962381D01*
X64658447Y-52605238D01*
X64655565Y-52575974D01*
X64653502Y-52570995D01*
X64653121Y-52565620D01*
X64642611Y-52538156D01*
X64565404Y-52383741D01*
X64591783Y-52372815D01*
X64633167Y-52331431D01*
X64655565Y-52277359D01*
X64655565Y-52218831D01*
X64633167Y-52164759D01*
X64591783Y-52123375D01*
X64537711Y-52100977D01*
X64508447Y-52098095D01*
X62841780Y-52098095D01*
X62812516Y-52100977D01*
X62758444Y-52123375D01*
X62717060Y-52164759D01*
X62694662Y-52218831D01*
X61580669Y-52218831D01*
X61580669Y-50462380D01*
X62691780Y-50462380D01*
X62691780Y-50819523D01*
X62694662Y-50848787D01*
X62696723Y-50853764D01*
X62697106Y-50859142D01*
X62707616Y-50886605D01*
X62826664Y-51124701D01*
X62829743Y-51129592D01*
X62830513Y-51131902D01*
X62833007Y-51134778D01*
X62842329Y-51149586D01*
X62856537Y-51161908D01*
X62868860Y-51176117D01*
X62883665Y-51185436D01*
X62886544Y-51187933D01*
X62888855Y-51188703D01*
X62893746Y-51191782D01*
X63131841Y-51310830D01*
X63159305Y-51321340D01*
X63164680Y-51321721D01*
X63169659Y-51323784D01*
X63198923Y-51326666D01*
X63317971Y-51326666D01*
X63347235Y-51323784D01*
X63352212Y-51321722D01*
X63357590Y-51321340D01*
X63385053Y-51310830D01*
X63623149Y-51191782D01*
X63628040Y-51188702D01*
X63630350Y-51187933D01*
X63633226Y-51185438D01*
X63648034Y-51176117D01*
X63660356Y-51161908D01*
X63674565Y-51149586D01*
X63683884Y-51134780D01*
X63686381Y-51131902D01*
X63687151Y-51129590D01*
X63690230Y-51124700D01*
X63809278Y-50886605D01*
X63819788Y-50859141D01*
X63820169Y-50853765D01*
X63822232Y-50848787D01*
X63825114Y-50819523D01*
X63825114Y-50497789D01*
X63905964Y-50336088D01*
X64067667Y-50255237D01*
X64115894Y-50255237D01*
X64277596Y-50336088D01*
X64358447Y-50497789D01*
X64358447Y-50903161D01*
X64255236Y-51109584D01*
X64244726Y-51137048D01*
X64240578Y-51195428D01*
X64259086Y-51250950D01*
X64297433Y-51295165D01*
X64349782Y-51321340D01*
X64408162Y-51325488D01*
X64463684Y-51306980D01*
X64507899Y-51268633D01*
X64523564Y-51243748D01*
X64642611Y-51005653D01*
X64653121Y-50978189D01*
X64653502Y-50972813D01*
X64655565Y-50967835D01*
X64658447Y-50938571D01*
X64658447Y-50462380D01*
X64655565Y-50433116D01*
X64653502Y-50428137D01*
X64653121Y-50422762D01*
X64642611Y-50395298D01*
X64523564Y-50157203D01*
X64520483Y-50152309D01*
X64519714Y-50150001D01*
X64517220Y-50147126D01*
X64507899Y-50132318D01*
X64493690Y-50119994D01*
X64481367Y-50105786D01*
X64466558Y-50096464D01*
X64463684Y-50093971D01*
X64461375Y-50093201D01*
X64456482Y-50090121D01*
X64218386Y-49971073D01*
X64190923Y-49960563D01*
X64185545Y-49960180D01*
X64180568Y-49958119D01*
X64151304Y-49955237D01*
X64032257Y-49955237D01*
X64002993Y-49958119D01*
X63998012Y-49960182D01*
X63992638Y-49960564D01*
X63965175Y-49971073D01*
X63727079Y-50090121D01*
X63722184Y-50093201D01*
X63719877Y-50093971D01*
X63717003Y-50096463D01*
X63702193Y-50105786D01*
X63689868Y-50119997D01*
X63675662Y-50132318D01*
X63666340Y-50147125D01*
X63663847Y-50150001D01*
X63663077Y-50152309D01*
X63659997Y-50157203D01*
X63540950Y-50395298D01*
X63530440Y-50422762D01*
X63530058Y-50428137D01*
X63527996Y-50433116D01*
X63525114Y-50462380D01*
X63525114Y-50784112D01*
X63444262Y-50945814D01*
X63282561Y-51026666D01*
X63234334Y-51026666D01*
X63072631Y-50945814D01*
X62991780Y-50784112D01*
X62991780Y-50497790D01*
X63094992Y-50291367D01*
X63105502Y-50263903D01*
X63109650Y-50205523D01*
X63091143Y-50150001D01*
X63052796Y-50105786D01*
X63000447Y-50079611D01*
X62942067Y-50075463D01*
X62886544Y-50093970D01*
X62842329Y-50132317D01*
X62826664Y-50157202D01*
X62707616Y-50395298D01*
X62697106Y-50422761D01*
X62696723Y-50428138D01*
X62694662Y-50433116D01*
X62691780Y-50462380D01*
X61580669Y-50462380D01*
X61580669Y-48319523D01*
X62691780Y-48319523D01*
X62691780Y-48795713D01*
X62694662Y-48824977D01*
X62696723Y-48829954D01*
X62697106Y-48835332D01*
X62707616Y-48862795D01*
X62826664Y-49100891D01*
X62829743Y-49105782D01*
X62830513Y-49108092D01*
X62833007Y-49110968D01*
X62842329Y-49125776D01*
X62856537Y-49138098D01*
X62868860Y-49152307D01*
X62883665Y-49161626D01*
X62886544Y-49164123D01*
X62888855Y-49164893D01*
X62893746Y-49167972D01*
X63131841Y-49287020D01*
X63159305Y-49297530D01*
X63164680Y-49297911D01*
X63169659Y-49299974D01*
X63198923Y-49302856D01*
X63675270Y-49302856D01*
X64151304Y-49302856D01*
X64180568Y-49299974D01*
X64185545Y-49297912D01*
X64190923Y-49297530D01*
X64218386Y-49287020D01*
X64456482Y-49167972D01*
X64461375Y-49164891D01*
X64463684Y-49164122D01*
X64466558Y-49161628D01*
X64481367Y-49152307D01*
X64493690Y-49138098D01*
X64507899Y-49125775D01*
X64517220Y-49110966D01*
X64519714Y-49108092D01*
X64520483Y-49105783D01*
X64523564Y-49100890D01*
X64642611Y-48862795D01*
X64653121Y-48835331D01*
X64653502Y-48829955D01*
X64655565Y-48824977D01*
X64658447Y-48795713D01*
X64658447Y-48319523D01*
X64655565Y-48290259D01*
X64653502Y-48285280D01*
X64653121Y-48279905D01*
X64642611Y-48252441D01*
X64523564Y-48014345D01*
X64507899Y-47989460D01*
X64463684Y-47951113D01*
X64408162Y-47932605D01*
X64349782Y-47936753D01*
X64297433Y-47962928D01*
X64259086Y-48007143D01*
X64240578Y-48062665D01*
X64244726Y-48121045D01*
X64255236Y-48148509D01*
X64358447Y-48354932D01*
X64358447Y-48760303D01*
X64277596Y-48922004D01*
X64115894Y-49002856D01*
X63798084Y-49002856D01*
X63584106Y-47932963D01*
X63575541Y-47904832D01*
X63567362Y-47892619D01*
X63561739Y-47879044D01*
X63551238Y-47868543D01*
X63542974Y-47856203D01*
X63530745Y-47848050D01*
X63520355Y-47837660D01*
X63506635Y-47831976D01*
X63494277Y-47823738D01*
X63479859Y-47820885D01*
X63466283Y-47815262D01*
X63437019Y-47812380D01*
X63198923Y-47812380D01*
X63169659Y-47815262D01*
X63164680Y-47817324D01*
X63159305Y-47817706D01*
X63131841Y-47828216D01*
X62893746Y-47947263D01*
X62888852Y-47950343D01*
X62886544Y-47951113D01*
X62883669Y-47953606D01*
X62868861Y-47962928D01*
X62856537Y-47977136D01*
X62842329Y-47989460D01*
X62833007Y-48004268D01*
X62830514Y-48007143D01*
X62829744Y-48009451D01*
X62826664Y-48014345D01*
X62707616Y-48252441D01*
X62697106Y-48279904D01*
X62696723Y-48285281D01*
X62694662Y-48290259D01*
X62691780Y-48319523D01*
X61580669Y-48319523D01*
X61580669Y-44033808D01*
X61858447Y-44033808D01*
X61858447Y-44509999D01*
X61861329Y-44539263D01*
X61863390Y-44544240D01*
X61863773Y-44549618D01*
X61874283Y-44577081D01*
X61993331Y-44815177D01*
X62001258Y-44827770D01*
X62002774Y-44831429D01*
X62006154Y-44835548D01*
X62008996Y-44840062D01*
X62011990Y-44842658D01*
X62021429Y-44854160D01*
X62259524Y-45092255D01*
X62282255Y-45110910D01*
X62292556Y-45115177D01*
X62301518Y-45121817D01*
X62329210Y-45131710D01*
X62805400Y-45250758D01*
X62810471Y-45251507D01*
X62812516Y-45252355D01*
X62823538Y-45253440D01*
X62834489Y-45255060D01*
X62836676Y-45254734D01*
X62841780Y-45255237D01*
X63675114Y-45255237D01*
X63680217Y-45254734D01*
X63682405Y-45255060D01*
X63693355Y-45253440D01*
X63704378Y-45252355D01*
X63706422Y-45251507D01*
X63711494Y-45250758D01*
X64187685Y-45131710D01*
X64215376Y-45121817D01*
X64224337Y-45115177D01*
X64234639Y-45110910D01*
X64257370Y-45092255D01*
X64495466Y-44854160D01*
X64504909Y-44842653D01*
X64507899Y-44840061D01*
X64510735Y-44835555D01*
X64514121Y-44831430D01*
X64515638Y-44827766D01*
X64523564Y-44815176D01*
X64642611Y-44577081D01*
X64653121Y-44549617D01*
X64653502Y-44544241D01*
X64655565Y-44539263D01*
X64658447Y-44509999D01*
X64658447Y-44033808D01*
X64655565Y-44004544D01*
X64653502Y-43999565D01*
X64653121Y-43994190D01*
X64642611Y-43966726D01*
X64523564Y-43728631D01*
X64515638Y-43716040D01*
X64514121Y-43712377D01*
X64510735Y-43708251D01*
X64507899Y-43703746D01*
X64504909Y-43701153D01*
X64495466Y-43689647D01*
X64257370Y-43451552D01*
X64234639Y-43432897D01*
X64224337Y-43428629D01*
X64215376Y-43421990D01*
X64187685Y-43412097D01*
X63711494Y-43293049D01*
X63706422Y-43292299D01*
X63704378Y-43291452D01*
X63693355Y-43290366D01*
X63682405Y-43288747D01*
X63680217Y-43289072D01*
X63675114Y-43288570D01*
X62841780Y-43288570D01*
X62836676Y-43289072D01*
X62834489Y-43288747D01*
X62823538Y-43290366D01*
X62812516Y-43291452D01*
X62810471Y-43292299D01*
X62805400Y-43293049D01*
X62329210Y-43412097D01*
X62301518Y-43421990D01*
X62292556Y-43428629D01*
X62282255Y-43432897D01*
X62259524Y-43451552D01*
X62021429Y-43689647D01*
X62011990Y-43701148D01*
X62008996Y-43703745D01*
X62006154Y-43708258D01*
X62002774Y-43712378D01*
X62001258Y-43716036D01*
X61993331Y-43728630D01*
X61874283Y-43966726D01*
X61863773Y-43994189D01*
X61863390Y-43999566D01*
X61861329Y-44004544D01*
X61858447Y-44033808D01*
X61580669Y-44033808D01*
X61580669Y-40909307D01*
X61861329Y-40909307D01*
X61861329Y-40967833D01*
X61883726Y-41021905D01*
X61902381Y-41044636D01*
X63074887Y-42217141D01*
X62008447Y-42217141D01*
X61979183Y-42220023D01*
X61925111Y-42242421D01*
X61883727Y-42283805D01*
X61861329Y-42337877D01*
X61861329Y-42396405D01*
X61883727Y-42450477D01*
X61925111Y-42491861D01*
X61979183Y-42514259D01*
X62008447Y-42517141D01*
X64508447Y-42517141D01*
X64537711Y-42514259D01*
X64591783Y-42491861D01*
X64633167Y-42450477D01*
X64655565Y-42396405D01*
X64655565Y-42337877D01*
X64633167Y-42283805D01*
X64591783Y-42242421D01*
X64537711Y-42220023D01*
X64508447Y-42217141D01*
X63499151Y-42217141D01*
X63308237Y-42026227D01*
X64598447Y-41058570D01*
X64620129Y-41038706D01*
X64649948Y-40988344D01*
X64658224Y-40930407D01*
X64643700Y-40873710D01*
X64608583Y-40826888D01*
X64558221Y-40797069D01*
X64500284Y-40788793D01*
X64443587Y-40803317D01*
X64418447Y-40818570D01*
X63093951Y-41811942D01*
X62114513Y-40832504D01*
X62091782Y-40813849D01*
X62037710Y-40791452D01*
X61979184Y-40791452D01*
X61925112Y-40813849D01*
X61883726Y-40855235D01*
X61861329Y-40909307D01*
X61580669Y-40909307D01*
X61580669Y-40511015D01*
X64936225Y-40511015D01*
X64936225Y-55890158D01*
G37*
X44216542Y-55402856D02*
X44097495Y-55283808D01*
X44097495Y-55283808D02*
X43978447Y-55045713D01*
X43978447Y-55045713D02*
X43978447Y-54450475D01*
X43978447Y-54450475D02*
X44097495Y-54212380D01*
X44097495Y-54212380D02*
X44216542Y-54093332D01*
X44216542Y-54093332D02*
X44454638Y-53974285D01*
X44454638Y-53974285D02*
X44692733Y-53974285D01*
X44692733Y-53974285D02*
X45049876Y-54093332D01*
X45049876Y-54093332D02*
X46478447Y-55521904D01*
X46478447Y-55521904D02*
X46478447Y-53974285D01*
X45764161Y-53021904D02*
X45764161Y-51831428D01*
X46478447Y-53259999D02*
X43978447Y-52426666D01*
X43978447Y-52426666D02*
X46478447Y-51593333D01*
X46478447Y-48855237D02*
X44811780Y-48855237D01*
X45049876Y-48855237D02*
X44930828Y-48736190D01*
X44930828Y-48736190D02*
X44811780Y-48498095D01*
X44811780Y-48498095D02*
X44811780Y-48140952D01*
X44811780Y-48140952D02*
X44930828Y-47902856D01*
X44930828Y-47902856D02*
X45168923Y-47783809D01*
X45168923Y-47783809D02*
X46478447Y-47783809D01*
X45168923Y-47783809D02*
X44930828Y-47664761D01*
X44930828Y-47664761D02*
X44811780Y-47426666D01*
X44811780Y-47426666D02*
X44811780Y-47069523D01*
X44811780Y-47069523D02*
X44930828Y-46831428D01*
X44930828Y-46831428D02*
X45168923Y-46712380D01*
X45168923Y-46712380D02*
X46478447Y-46712380D01*
X46478447Y-44450476D02*
X45168923Y-44450476D01*
X45168923Y-44450476D02*
X44930828Y-44569523D01*
X44930828Y-44569523D02*
X44811780Y-44807619D01*
X44811780Y-44807619D02*
X44811780Y-45283809D01*
X44811780Y-45283809D02*
X44930828Y-45521904D01*
X46359400Y-44450476D02*
X46478447Y-44688571D01*
X46478447Y-44688571D02*
X46478447Y-45283809D01*
X46478447Y-45283809D02*
X46359400Y-45521904D01*
X46359400Y-45521904D02*
X46121304Y-45640952D01*
X46121304Y-45640952D02*
X45883209Y-45640952D01*
X45883209Y-45640952D02*
X45645114Y-45521904D01*
X45645114Y-45521904D02*
X45526066Y-45283809D01*
X45526066Y-45283809D02*
X45526066Y-44688571D01*
X45526066Y-44688571D02*
X45407019Y-44450476D01*
X46478447Y-43498095D02*
X44811780Y-42188571D01*
X44811780Y-43498095D02*
X46478447Y-42188571D01*
X46240352Y-41236189D02*
X46359400Y-41117142D01*
X46359400Y-41117142D02*
X46478447Y-41236189D01*
X46478447Y-41236189D02*
X46359400Y-41355237D01*
X46359400Y-41355237D02*
X46240352Y-41236189D01*
X46240352Y-41236189D02*
X46478447Y-41236189D01*
D11*
X50731009Y-48593333D02*
X50731009Y-48926666D01*
X51254819Y-48926666D02*
X50254819Y-48926666D01*
X50254819Y-48926666D02*
X50254819Y-48450476D01*
X51254819Y-47545714D02*
X51254819Y-48117142D01*
X51254819Y-47831428D02*
X50254819Y-47831428D01*
X50254819Y-47831428D02*
X50397676Y-47926666D01*
X50397676Y-47926666D02*
X50492914Y-48021904D01*
X50492914Y-48021904D02*
X50540533Y-48117142D01*
X68246666Y-30894819D02*
X68246666Y-31609104D01*
X68246666Y-31609104D02*
X68199047Y-31751961D01*
X68199047Y-31751961D02*
X68103809Y-31847200D01*
X68103809Y-31847200D02*
X67960952Y-31894819D01*
X67960952Y-31894819D02*
X67865714Y-31894819D01*
X68675238Y-30990057D02*
X68722857Y-30942438D01*
X68722857Y-30942438D02*
X68818095Y-30894819D01*
X68818095Y-30894819D02*
X69056190Y-30894819D01*
X69056190Y-30894819D02*
X69151428Y-30942438D01*
X69151428Y-30942438D02*
X69199047Y-30990057D01*
X69199047Y-30990057D02*
X69246666Y-31085295D01*
X69246666Y-31085295D02*
X69246666Y-31180533D01*
X69246666Y-31180533D02*
X69199047Y-31323390D01*
X69199047Y-31323390D02*
X68627619Y-31894819D01*
X68627619Y-31894819D02*
X69246666Y-31894819D01*
X69638152Y-48950476D02*
X70304819Y-48950476D01*
X69257200Y-49188571D02*
X69971485Y-49426666D01*
X69971485Y-49426666D02*
X69971485Y-48807619D01*
X69304819Y-48521904D02*
X69304819Y-47855238D01*
X69304819Y-47855238D02*
X70304819Y-48283809D01*
X70304819Y-47474285D02*
X69304819Y-47474285D01*
X69923866Y-47379047D02*
X70304819Y-47093333D01*
X69638152Y-47093333D02*
X70019104Y-47474285D01*
X75866666Y-30894819D02*
X75866666Y-31609104D01*
X75866666Y-31609104D02*
X75819047Y-31751961D01*
X75819047Y-31751961D02*
X75723809Y-31847200D01*
X75723809Y-31847200D02*
X75580952Y-31894819D01*
X75580952Y-31894819D02*
X75485714Y-31894819D01*
X76247619Y-30894819D02*
X76866666Y-30894819D01*
X76866666Y-30894819D02*
X76533333Y-31275771D01*
X76533333Y-31275771D02*
X76676190Y-31275771D01*
X76676190Y-31275771D02*
X76771428Y-31323390D01*
X76771428Y-31323390D02*
X76819047Y-31371009D01*
X76819047Y-31371009D02*
X76866666Y-31466247D01*
X76866666Y-31466247D02*
X76866666Y-31704342D01*
X76866666Y-31704342D02*
X76819047Y-31799580D01*
X76819047Y-31799580D02*
X76771428Y-31847200D01*
X76771428Y-31847200D02*
X76676190Y-31894819D01*
X76676190Y-31894819D02*
X76390476Y-31894819D01*
X76390476Y-31894819D02*
X76295238Y-31847200D01*
X76295238Y-31847200D02*
X76247619Y-31799580D01*
X68246666Y-64534819D02*
X68246666Y-65249104D01*
X68246666Y-65249104D02*
X68199047Y-65391961D01*
X68199047Y-65391961D02*
X68103809Y-65487200D01*
X68103809Y-65487200D02*
X67960952Y-65534819D01*
X67960952Y-65534819D02*
X67865714Y-65534819D01*
X69151428Y-64868152D02*
X69151428Y-65534819D01*
X68913333Y-64487200D02*
X68675238Y-65201485D01*
X68675238Y-65201485D02*
X69294285Y-65201485D01*
X35709819Y-48593333D02*
X36424104Y-48593333D01*
X36424104Y-48593333D02*
X36566961Y-48640952D01*
X36566961Y-48640952D02*
X36662200Y-48736190D01*
X36662200Y-48736190D02*
X36709819Y-48879047D01*
X36709819Y-48879047D02*
X36709819Y-48974285D01*
X36709819Y-47593333D02*
X36709819Y-48164761D01*
X36709819Y-47879047D02*
X35709819Y-47879047D01*
X35709819Y-47879047D02*
X35852676Y-47974285D01*
X35852676Y-47974285D02*
X35947914Y-48069523D01*
X35947914Y-48069523D02*
X35995533Y-48164761D01*
X75866666Y-64534819D02*
X75866666Y-65249104D01*
X75866666Y-65249104D02*
X75819047Y-65391961D01*
X75819047Y-65391961D02*
X75723809Y-65487200D01*
X75723809Y-65487200D02*
X75580952Y-65534819D01*
X75580952Y-65534819D02*
X75485714Y-65534819D01*
X76819047Y-64534819D02*
X76342857Y-64534819D01*
X76342857Y-64534819D02*
X76295238Y-65011009D01*
X76295238Y-65011009D02*
X76342857Y-64963390D01*
X76342857Y-64963390D02*
X76438095Y-64915771D01*
X76438095Y-64915771D02*
X76676190Y-64915771D01*
X76676190Y-64915771D02*
X76771428Y-64963390D01*
X76771428Y-64963390D02*
X76819047Y-65011009D01*
X76819047Y-65011009D02*
X76866666Y-65106247D01*
X76866666Y-65106247D02*
X76866666Y-65344342D01*
X76866666Y-65344342D02*
X76819047Y-65439580D01*
X76819047Y-65439580D02*
X76771428Y-65487200D01*
X76771428Y-65487200D02*
X76676190Y-65534819D01*
X76676190Y-65534819D02*
X76438095Y-65534819D01*
X76438095Y-65534819D02*
X76342857Y-65487200D01*
X76342857Y-65487200D02*
X76295238Y-65439580D01*
%TO.C,F1*%
D12*
X47435000Y-58165000D02*
X54165000Y-58165000D01*
X54165000Y-38355000D01*
X47435000Y-38355000D01*
X47435000Y-58165000D01*
%TO.C,J2*%
X65640000Y-33560000D02*
X65640000Y-37560000D01*
X65930000Y-32530000D02*
X65930000Y-38550000D01*
X65930000Y-38550000D02*
X71230000Y-38550000D01*
X66510000Y-32530000D02*
X66510000Y-33130000D01*
X66510000Y-33130000D02*
X68110000Y-33130000D01*
X67310000Y-37550000D02*
X67560000Y-37020000D01*
X67310000Y-37550000D02*
X69850000Y-37550000D01*
X67310000Y-38550000D02*
X67310000Y-37550000D01*
X67560000Y-37020000D02*
X69600000Y-37020000D01*
X67560000Y-38550000D02*
X67560000Y-37550000D01*
X68110000Y-33130000D02*
X68110000Y-32530000D01*
X69050000Y-32530000D02*
X69050000Y-33130000D01*
X69050000Y-33130000D02*
X70650000Y-33130000D01*
X69600000Y-37020000D02*
X69850000Y-37550000D01*
X69600000Y-38550000D02*
X69600000Y-37550000D01*
X69850000Y-37550000D02*
X69850000Y-38550000D01*
X70650000Y-33130000D02*
X70650000Y-32530000D01*
X71230000Y-32530000D02*
X65930000Y-32530000D01*
X71230000Y-38550000D02*
X71230000Y-32530000D01*
%TO.C,R1*%
X68480000Y-44990000D02*
X68480000Y-51530000D01*
X68480000Y-51530000D02*
X71220000Y-51530000D01*
X69850000Y-44220000D02*
X69850000Y-44990000D01*
X69850000Y-52300000D02*
X69850000Y-51530000D01*
X71220000Y-44990000D02*
X68480000Y-44990000D01*
X71220000Y-51530000D02*
X71220000Y-44990000D01*
%TO.C,J3*%
X73260000Y-33560000D02*
X73260000Y-37560000D01*
X73550000Y-32530000D02*
X73550000Y-38550000D01*
X73550000Y-38550000D02*
X78850000Y-38550000D01*
X74130000Y-32530000D02*
X74130000Y-33130000D01*
X74130000Y-33130000D02*
X75730000Y-33130000D01*
X74930000Y-37550000D02*
X75180000Y-37020000D01*
X74930000Y-37550000D02*
X77470000Y-37550000D01*
X74930000Y-38550000D02*
X74930000Y-37550000D01*
X75180000Y-37020000D02*
X77220000Y-37020000D01*
X75180000Y-38550000D02*
X75180000Y-37550000D01*
X75730000Y-33130000D02*
X75730000Y-32530000D01*
X76670000Y-32530000D02*
X76670000Y-33130000D01*
X76670000Y-33130000D02*
X78270000Y-33130000D01*
X77220000Y-37020000D02*
X77470000Y-37550000D01*
X77220000Y-38550000D02*
X77220000Y-37550000D01*
X77470000Y-37550000D02*
X77470000Y-38550000D01*
X78270000Y-33130000D02*
X78270000Y-32530000D01*
X78850000Y-32530000D02*
X73550000Y-32530000D01*
X78850000Y-38550000D02*
X78850000Y-32530000D01*
%TO.C,J4*%
X65930000Y-57970000D02*
X65930000Y-63990000D01*
X65930000Y-63990000D02*
X71230000Y-63990000D01*
X66510000Y-63390000D02*
X66510000Y-63990000D01*
X67310000Y-58970000D02*
X67310000Y-57970000D01*
X67560000Y-57970000D02*
X67560000Y-58970000D01*
X67560000Y-59500000D02*
X67310000Y-58970000D01*
X68110000Y-63390000D02*
X66510000Y-63390000D01*
X68110000Y-63990000D02*
X68110000Y-63390000D01*
X69050000Y-63390000D02*
X69050000Y-63990000D01*
X69600000Y-57970000D02*
X69600000Y-58970000D01*
X69600000Y-59500000D02*
X67560000Y-59500000D01*
X69850000Y-57970000D02*
X69850000Y-58970000D01*
X69850000Y-58970000D02*
X67310000Y-58970000D01*
X69850000Y-58970000D02*
X69600000Y-59500000D01*
X70650000Y-63390000D02*
X69050000Y-63390000D01*
X70650000Y-63990000D02*
X70650000Y-63390000D01*
X71230000Y-57970000D02*
X65930000Y-57970000D01*
X71230000Y-63990000D02*
X71230000Y-57970000D01*
X71520000Y-62960000D02*
X71520000Y-58960000D01*
%TO.C,D1*%
X57879000Y-49820000D02*
X58035000Y-49820000D01*
X60195000Y-49820000D02*
X60351000Y-49820000D01*
X57879484Y-49820000D02*
G75*
G02*
X58034939Y-46588603I1235516J1560000D01*
G01*
X58035000Y-49300961D02*
G75*
G02*
X58034951Y-47219090I1080000J1040961D01*
G01*
X60195049Y-47219090D02*
G75*
G02*
X60195000Y-49300961I-1080049J-1040910D01*
G01*
X60195061Y-46588603D02*
G75*
G02*
X60350516Y-49820000I-1080061J-1671397D01*
G01*
%TO.C,J1*%
X33125000Y-38180000D02*
X33125000Y-36490000D01*
X33125000Y-41590000D02*
X34515000Y-41590000D01*
X33125000Y-43280000D02*
X33125000Y-41590000D01*
X33125000Y-46690000D02*
X34515000Y-46690000D01*
X33125000Y-48380000D02*
X33125000Y-46690000D01*
X33125000Y-51770000D02*
X34515000Y-51770000D01*
X33125000Y-53460000D02*
X33125000Y-51770000D01*
X33125000Y-56660000D02*
X34515000Y-56660000D01*
X33125000Y-58350000D02*
X33125000Y-56660000D01*
X34515000Y-37630000D02*
X34515000Y-58890000D01*
X34515000Y-38180000D02*
X33125000Y-38180000D01*
X34515000Y-43280000D02*
X33125000Y-43280000D01*
X34515000Y-48380000D02*
X33125000Y-48380000D01*
X34515000Y-53460000D02*
X33125000Y-53460000D01*
X34515000Y-58350000D02*
X33125000Y-58350000D01*
X35575000Y-37690000D02*
X40185000Y-37690000D01*
X35575000Y-58830000D02*
X35575000Y-37690000D01*
X35655000Y-60030000D02*
X41935000Y-60030000D01*
X36935000Y-35410000D02*
X36935000Y-36490000D01*
X36935000Y-61110000D02*
X36935000Y-60030000D01*
X40185000Y-37690000D02*
X42015000Y-39520000D01*
X40185000Y-58830000D02*
X35575000Y-58830000D01*
X40655000Y-35410000D02*
X36935000Y-35410000D01*
X40655000Y-36490000D02*
X40655000Y-35410000D01*
X40655000Y-60030000D02*
X40655000Y-61110000D01*
X40655000Y-61110000D02*
X36935000Y-61110000D01*
X41935000Y-36490000D02*
X33125000Y-36490000D01*
X42015000Y-39520000D02*
X42015000Y-57000000D01*
X42015000Y-57000000D02*
X40185000Y-58830000D01*
X43075000Y-58890000D02*
X43075000Y-37630000D01*
X34515000Y-37630000D02*
G75*
G02*
X35655000Y-36490000I1140000J0D01*
G01*
X35655000Y-60030000D02*
G75*
G02*
X34515000Y-58890000I-1J1139999D01*
G01*
X41935000Y-36490000D02*
G75*
G02*
X43075000Y-37630000I0J-1140000D01*
G01*
X43075000Y-58890000D02*
G75*
G02*
X41935000Y-60030000I-1139999J-1D01*
G01*
%TO.C,J5*%
X73550000Y-57970000D02*
X73550000Y-63990000D01*
X73550000Y-63990000D02*
X78850000Y-63990000D01*
X74130000Y-63390000D02*
X74130000Y-63990000D01*
X74930000Y-58970000D02*
X74930000Y-57970000D01*
X75180000Y-57970000D02*
X75180000Y-58970000D01*
X75180000Y-59500000D02*
X74930000Y-58970000D01*
X75730000Y-63390000D02*
X74130000Y-63390000D01*
X75730000Y-63990000D02*
X75730000Y-63390000D01*
X76670000Y-63390000D02*
X76670000Y-63990000D01*
X77220000Y-57970000D02*
X77220000Y-58970000D01*
X77220000Y-59500000D02*
X75180000Y-59500000D01*
X77470000Y-57970000D02*
X77470000Y-58970000D01*
X77470000Y-58970000D02*
X74930000Y-58970000D01*
X77470000Y-58970000D02*
X77220000Y-59500000D01*
X78270000Y-63390000D02*
X76670000Y-63390000D01*
X78270000Y-63990000D02*
X78270000Y-63390000D01*
X78850000Y-57970000D02*
X73550000Y-57970000D01*
X78850000Y-63990000D02*
X78850000Y-57970000D01*
X79140000Y-62960000D02*
X79140000Y-58960000D01*
%TD*%
M02*
