M48
; DRILL file {KiCad 8.0.8} date 2025-04-29T10:47:03+0200
; FORMAT={-:-/ absolute / inch / decimal}
; #@! TF.CreationDate,2025-04-29T10:47:03+02:00
; #@! TF.GenerationSoftware,Kicad,Pcbnew,8.0.8
; #@! TF.FileFunction,Plated,1,2,PTH
FMAT,2
INCH
; #@! TA.AperFunction,Plated,PTH,ComponentDrill
T1C0.0315
; #@! TA.AperFunction,Plated,PTH,ComponentDrill
T2C0.0354
; #@! TA.AperFunction,Plated,PTH,ComponentDrill
T3C0.0469
; #@! TA.AperFunction,Plated,PTH,ComponentDrill
T4C0.0630
; #@! TA.AperFunction,Plated,PTH,ComponentDrill
T5C0.0701
%
G90
G05
T1
X2.0894Y-1.0669
X2.0894Y-1.4669
T2
X1.6667Y-1.2169
X1.6667Y-1.3169
T3
X1.9894Y-0.7669
X1.9894Y-1.7669
X2.0894Y-0.7669
X2.0894Y-1.7669
X2.2894Y-0.7669
X2.2894Y-1.7669
X2.3894Y-0.7669
X2.3894Y-1.7669
T4
X1.2724Y-1.0018
X1.2724Y-1.5321
X1.4063Y-1.0018
X1.4063Y-1.5321
T5
X0.8667Y-0.9669
X0.8667Y-1.1669
X0.8667Y-1.3669
X0.8667Y-1.5669
M30
