%TF.GenerationSoftware,KiCad,Pcbnew,8.0.8*%
%TF.CreationDate,2025-04-29T10:47:01+02:00*%
%TF.ProjectId,stern-aux-power-distribution,73746572-6e2d-4617-9578-2d706f776572,rev?*%
%TF.SameCoordinates,Original*%
%TF.FileFunction,Copper,L1,Top*%
%TF.FilePolarity,Positive*%
%FSLAX46Y46*%
G04 Gerber Fmt 4.6, Leading zero omitted, Abs format (unit mm)*
G04 Created by KiCad (PCBNEW 8.0.8) date 2025-04-29 10:47:01*
%MOMM*%
%LPD*%
G01*
G04 APERTURE LIST*
G04 Aperture macros list*
%AMRoundRect*
0 Rectangle with rounded corners*
0 $1 Rounding radius*
0 $2 $3 $4 $5 $6 $7 $8 $9 X,Y pos of 4 corners*
0 Add a 4 corners polygon primitive as box body*
4,1,4,$2,$3,$4,$5,$6,$7,$8,$9,$2,$3,0*
0 Add four circle primitives for the rounded corners*
1,1,$1+$1,$2,$3*
1,1,$1+$1,$4,$5*
1,1,$1+$1,$6,$7*
1,1,$1+$1,$8,$9*
0 Add four rect primitives between the rounded corners*
20,1,$1+$1,$2,$3,$4,$5,0*
20,1,$1+$1,$4,$5,$6,$7,0*
20,1,$1+$1,$6,$7,$8,$9,0*
20,1,$1+$1,$8,$9,$2,$3,0*%
G04 Aperture macros list end*
%TA.AperFunction,ComponentPad*%
%ADD10RoundRect,0.250000X-0.620000X-0.845000X0.620000X-0.845000X0.620000X0.845000X-0.620000X0.845000X0*%
%TD*%
%TA.AperFunction,ComponentPad*%
%ADD11O,1.740000X2.190000*%
%TD*%
%TA.AperFunction,ComponentPad*%
%ADD12C,1.600000*%
%TD*%
%TA.AperFunction,ComponentPad*%
%ADD13O,1.600000X1.600000*%
%TD*%
%TA.AperFunction,ComponentPad*%
%ADD14C,2.500000*%
%TD*%
%TA.AperFunction,ComponentPad*%
%ADD15RoundRect,0.250000X0.620000X0.845000X-0.620000X0.845000X-0.620000X-0.845000X0.620000X-0.845000X0*%
%TD*%
%TA.AperFunction,ComponentPad*%
%ADD16C,1.800000*%
%TD*%
%TA.AperFunction,ComponentPad*%
%ADD17R,1.800000X1.800000*%
%TD*%
%TA.AperFunction,ComponentPad*%
%ADD18C,2.780000*%
%TD*%
%TA.AperFunction,ComponentPad*%
%ADD19R,2.780000X2.780000*%
%TD*%
G04 APERTURE END LIST*
D10*
%TO.P,J2,1,Pin_1*%
%TO.N,GND*%
X50530000Y-19480000D03*
D11*
%TO.P,J2,2,Pin_2*%
%TO.N,+12V*%
X53070000Y-19480000D03*
%TD*%
D12*
%TO.P,R1,1*%
%TO.N,Net-(D1-K)*%
X53070000Y-27100000D03*
D13*
%TO.P,R1,2*%
%TO.N,GND*%
X53070000Y-37260000D03*
%TD*%
D14*
%TO.P,F1,2*%
%TO.N,+12V*%
X35720000Y-25445000D03*
X32320000Y-25445000D03*
%TO.P,F1,1*%
%TO.N,Net-(J1-Pin_1)*%
X35720000Y-38915000D03*
X32320000Y-38915000D03*
%TD*%
D10*
%TO.P,J3,1,Pin_1*%
%TO.N,GND*%
X58150000Y-19480000D03*
D11*
%TO.P,J3,2,Pin_2*%
%TO.N,+12V*%
X60690000Y-19480000D03*
%TD*%
D15*
%TO.P,J4,1,Pin_1*%
%TO.N,GND*%
X53070000Y-44880000D03*
D11*
%TO.P,J4,2,Pin_2*%
%TO.N,+12V*%
X50530000Y-44880000D03*
%TD*%
D16*
%TO.P,D1,2,A*%
%TO.N,+12V*%
X42335000Y-30910000D03*
D17*
%TO.P,D1,1,K*%
%TO.N,Net-(D1-K)*%
X42335000Y-33450000D03*
%TD*%
D18*
%TO.P,J1,4,Pin_4*%
%TO.N,unconnected-(J1-Pin_4-Pad4)*%
X22015000Y-24560000D03*
%TO.P,J1,3,Pin_3*%
%TO.N,GND*%
X22015000Y-29640000D03*
%TO.P,J1,2,Pin_2*%
X22015000Y-34720000D03*
D19*
%TO.P,J1,1,Pin_1*%
%TO.N,Net-(J1-Pin_1)*%
X22015000Y-39800000D03*
%TD*%
D15*
%TO.P,J5,1,Pin_1*%
%TO.N,GND*%
X60690000Y-44880000D03*
D11*
%TO.P,J5,2,Pin_2*%
%TO.N,+12V*%
X58150000Y-44880000D03*
%TD*%
%TA.AperFunction,Conductor*%
%TO.N,GND*%
G36*
X64002539Y-14700185D02*
G01*
X64048294Y-14752989D01*
X64059500Y-14804500D01*
X64059500Y-49555500D01*
X64039815Y-49622539D01*
X63987011Y-49668294D01*
X63935500Y-49679500D01*
X15184500Y-49679500D01*
X15117461Y-49659815D01*
X15071706Y-49607011D01*
X15060500Y-49555500D01*
X15060500Y-45045186D01*
X40159500Y-45045186D01*
X40159500Y-45314813D01*
X40189686Y-45582719D01*
X40189688Y-45582731D01*
X40249684Y-45845594D01*
X40249687Y-45845602D01*
X40338734Y-46100082D01*
X40455714Y-46342994D01*
X40455716Y-46342997D01*
X40599162Y-46571289D01*
X40767266Y-46782085D01*
X40957915Y-46972734D01*
X41168711Y-47140838D01*
X41397003Y-47284284D01*
X41639921Y-47401267D01*
X41831049Y-47468145D01*
X41894397Y-47490312D01*
X41894405Y-47490315D01*
X41894408Y-47490315D01*
X41894409Y-47490316D01*
X42157268Y-47550312D01*
X42425187Y-47580499D01*
X42425188Y-47580500D01*
X42425191Y-47580500D01*
X42694812Y-47580500D01*
X42694812Y-47580499D01*
X42962732Y-47550312D01*
X43225591Y-47490316D01*
X43480079Y-47401267D01*
X43722997Y-47284284D01*
X43951289Y-47140838D01*
X44162085Y-46972734D01*
X44352734Y-46782085D01*
X44520838Y-46571289D01*
X44664284Y-46342997D01*
X44781267Y-46100079D01*
X44870316Y-45845591D01*
X44930312Y-45582732D01*
X44960500Y-45314809D01*
X44960500Y-45045191D01*
X44930312Y-44777268D01*
X44877785Y-44547133D01*
X49159500Y-44547133D01*
X49159500Y-45212866D01*
X49193245Y-45425922D01*
X49193246Y-45425926D01*
X49259908Y-45631089D01*
X49357843Y-45823299D01*
X49484641Y-45997821D01*
X49637179Y-46150359D01*
X49811701Y-46277157D01*
X50003911Y-46375092D01*
X50209074Y-46441754D01*
X50288973Y-46454408D01*
X50422134Y-46475500D01*
X50422139Y-46475500D01*
X50637866Y-46475500D01*
X50756230Y-46456752D01*
X50850926Y-46441754D01*
X51056089Y-46375092D01*
X51248299Y-46277157D01*
X51422821Y-46150359D01*
X51565186Y-46007993D01*
X51626505Y-45974511D01*
X51696197Y-45979495D01*
X51752131Y-46021366D01*
X51765248Y-46043277D01*
X51765640Y-46044118D01*
X51857684Y-46193345D01*
X51981654Y-46317315D01*
X52130875Y-46409356D01*
X52130880Y-46409358D01*
X52297302Y-46464505D01*
X52297309Y-46464506D01*
X52400019Y-46474999D01*
X52819999Y-46474999D01*
X52820000Y-46474998D01*
X52820000Y-45422709D01*
X52840339Y-45434452D01*
X52991667Y-45475000D01*
X53148333Y-45475000D01*
X53299661Y-45434452D01*
X53320000Y-45422709D01*
X53320000Y-46474999D01*
X53739972Y-46474999D01*
X53739986Y-46474998D01*
X53842697Y-46464505D01*
X54009119Y-46409358D01*
X54009124Y-46409356D01*
X54158345Y-46317315D01*
X54282315Y-46193345D01*
X54374356Y-46044124D01*
X54374358Y-46044119D01*
X54429505Y-45877697D01*
X54429506Y-45877690D01*
X54439999Y-45774986D01*
X54440000Y-45774973D01*
X54440000Y-45130000D01*
X53612709Y-45130000D01*
X53624452Y-45109661D01*
X53665000Y-44958333D01*
X53665000Y-44801667D01*
X53624452Y-44650339D01*
X53612709Y-44630000D01*
X54439999Y-44630000D01*
X54439999Y-44547133D01*
X56779500Y-44547133D01*
X56779500Y-45212866D01*
X56813245Y-45425922D01*
X56813246Y-45425926D01*
X56879908Y-45631089D01*
X56977843Y-45823299D01*
X57104641Y-45997821D01*
X57257179Y-46150359D01*
X57431701Y-46277157D01*
X57623911Y-46375092D01*
X57829074Y-46441754D01*
X57908973Y-46454408D01*
X58042134Y-46475500D01*
X58042139Y-46475500D01*
X58257866Y-46475500D01*
X58376230Y-46456752D01*
X58470926Y-46441754D01*
X58676089Y-46375092D01*
X58868299Y-46277157D01*
X59042821Y-46150359D01*
X59185186Y-46007993D01*
X59246505Y-45974511D01*
X59316197Y-45979495D01*
X59372131Y-46021366D01*
X59385248Y-46043277D01*
X59385640Y-46044118D01*
X59477684Y-46193345D01*
X59601654Y-46317315D01*
X59750875Y-46409356D01*
X59750880Y-46409358D01*
X59917302Y-46464505D01*
X59917309Y-46464506D01*
X60020019Y-46474999D01*
X60439999Y-46474999D01*
X60440000Y-46474998D01*
X60440000Y-45422709D01*
X60460339Y-45434452D01*
X60611667Y-45475000D01*
X60768333Y-45475000D01*
X60919661Y-45434452D01*
X60940000Y-45422709D01*
X60940000Y-46474999D01*
X61359972Y-46474999D01*
X61359986Y-46474998D01*
X61462697Y-46464505D01*
X61629119Y-46409358D01*
X61629124Y-46409356D01*
X61778345Y-46317315D01*
X61902315Y-46193345D01*
X61994356Y-46044124D01*
X61994358Y-46044119D01*
X62049505Y-45877697D01*
X62049506Y-45877690D01*
X62059999Y-45774986D01*
X62060000Y-45774973D01*
X62060000Y-45130000D01*
X61232709Y-45130000D01*
X61244452Y-45109661D01*
X61285000Y-44958333D01*
X61285000Y-44801667D01*
X61244452Y-44650339D01*
X61232709Y-44630000D01*
X62059999Y-44630000D01*
X62059999Y-43985028D01*
X62059998Y-43985013D01*
X62049505Y-43882302D01*
X61994358Y-43715880D01*
X61994356Y-43715875D01*
X61902315Y-43566654D01*
X61778345Y-43442684D01*
X61629124Y-43350643D01*
X61629119Y-43350641D01*
X61462697Y-43295494D01*
X61462690Y-43295493D01*
X61359986Y-43285000D01*
X60940000Y-43285000D01*
X60940000Y-44337290D01*
X60919661Y-44325548D01*
X60768333Y-44285000D01*
X60611667Y-44285000D01*
X60460339Y-44325548D01*
X60440000Y-44337290D01*
X60440000Y-43285000D01*
X60020028Y-43285000D01*
X60020012Y-43285001D01*
X59917302Y-43295494D01*
X59750880Y-43350641D01*
X59750875Y-43350643D01*
X59601654Y-43442684D01*
X59477684Y-43566654D01*
X59385637Y-43715885D01*
X59385245Y-43716728D01*
X59384821Y-43717208D01*
X59381851Y-43722025D01*
X59381027Y-43721517D01*
X59339072Y-43769167D01*
X59271879Y-43788318D01*
X59204998Y-43768101D01*
X59185183Y-43752003D01*
X59042823Y-43609643D01*
X59042821Y-43609641D01*
X58868299Y-43482843D01*
X58676089Y-43384908D01*
X58470926Y-43318246D01*
X58470924Y-43318245D01*
X58470922Y-43318245D01*
X58257866Y-43284500D01*
X58257861Y-43284500D01*
X58042139Y-43284500D01*
X58042134Y-43284500D01*
X57829077Y-43318245D01*
X57623908Y-43384909D01*
X57431700Y-43482843D01*
X57332129Y-43555186D01*
X57257179Y-43609641D01*
X57257177Y-43609643D01*
X57257176Y-43609643D01*
X57104643Y-43762176D01*
X57104643Y-43762177D01*
X57104641Y-43762179D01*
X57085364Y-43788712D01*
X56977843Y-43936700D01*
X56879909Y-44128908D01*
X56813245Y-44334077D01*
X56779500Y-44547133D01*
X54439999Y-44547133D01*
X54439999Y-43985028D01*
X54439998Y-43985013D01*
X54429505Y-43882302D01*
X54374358Y-43715880D01*
X54374356Y-43715875D01*
X54282315Y-43566654D01*
X54158345Y-43442684D01*
X54009124Y-43350643D01*
X54009119Y-43350641D01*
X53842697Y-43295494D01*
X53842690Y-43295493D01*
X53739986Y-43285000D01*
X53320000Y-43285000D01*
X53320000Y-44337290D01*
X53299661Y-44325548D01*
X53148333Y-44285000D01*
X52991667Y-44285000D01*
X52840339Y-44325548D01*
X52820000Y-44337290D01*
X52820000Y-43285000D01*
X52400028Y-43285000D01*
X52400012Y-43285001D01*
X52297302Y-43295494D01*
X52130880Y-43350641D01*
X52130875Y-43350643D01*
X51981654Y-43442684D01*
X51857684Y-43566654D01*
X51765637Y-43715885D01*
X51765245Y-43716728D01*
X51764821Y-43717208D01*
X51761851Y-43722025D01*
X51761027Y-43721517D01*
X51719072Y-43769167D01*
X51651879Y-43788318D01*
X51584998Y-43768101D01*
X51565183Y-43752003D01*
X51422823Y-43609643D01*
X51422821Y-43609641D01*
X51248299Y-43482843D01*
X51056089Y-43384908D01*
X50850926Y-43318246D01*
X50850924Y-43318245D01*
X50850922Y-43318245D01*
X50637866Y-43284500D01*
X50637861Y-43284500D01*
X50422139Y-43284500D01*
X50422134Y-43284500D01*
X50209077Y-43318245D01*
X50003908Y-43384909D01*
X49811700Y-43482843D01*
X49712129Y-43555186D01*
X49637179Y-43609641D01*
X49637177Y-43609643D01*
X49637176Y-43609643D01*
X49484643Y-43762176D01*
X49484643Y-43762177D01*
X49484641Y-43762179D01*
X49465364Y-43788712D01*
X49357843Y-43936700D01*
X49259909Y-44128908D01*
X49193245Y-44334077D01*
X49159500Y-44547133D01*
X44877785Y-44547133D01*
X44870316Y-44514409D01*
X44781267Y-44259921D01*
X44664284Y-44017003D01*
X44520838Y-43788711D01*
X44352734Y-43577915D01*
X44162085Y-43387266D01*
X44159129Y-43384909D01*
X44108549Y-43344573D01*
X43951289Y-43219162D01*
X43722997Y-43075716D01*
X43722994Y-43075714D01*
X43480082Y-42958734D01*
X43225602Y-42869687D01*
X43225594Y-42869684D01*
X43028446Y-42824687D01*
X42962732Y-42809688D01*
X42962728Y-42809687D01*
X42962719Y-42809686D01*
X42694813Y-42779500D01*
X42694809Y-42779500D01*
X42425191Y-42779500D01*
X42425186Y-42779500D01*
X42157280Y-42809686D01*
X42157268Y-42809688D01*
X41894405Y-42869684D01*
X41894397Y-42869687D01*
X41639917Y-42958734D01*
X41397005Y-43075714D01*
X41168712Y-43219161D01*
X40957915Y-43387265D01*
X40767265Y-43577915D01*
X40599161Y-43788712D01*
X40455714Y-44017005D01*
X40338734Y-44259917D01*
X40249687Y-44514397D01*
X40249684Y-44514405D01*
X40189688Y-44777268D01*
X40189686Y-44777280D01*
X40159500Y-45045186D01*
X15060500Y-45045186D01*
X15060500Y-38362135D01*
X20124500Y-38362135D01*
X20124500Y-41237870D01*
X20124501Y-41237876D01*
X20130908Y-41297483D01*
X20181202Y-41432328D01*
X20181206Y-41432335D01*
X20267452Y-41547544D01*
X20267455Y-41547547D01*
X20382664Y-41633793D01*
X20382671Y-41633797D01*
X20517517Y-41684091D01*
X20517516Y-41684091D01*
X20524444Y-41684835D01*
X20577127Y-41690500D01*
X23452872Y-41690499D01*
X23512483Y-41684091D01*
X23647331Y-41633796D01*
X23762546Y-41547546D01*
X23848796Y-41432331D01*
X23899091Y-41297483D01*
X23905500Y-41237873D01*
X23905499Y-38914995D01*
X30564592Y-38914995D01*
X30564592Y-38915004D01*
X30584196Y-39176620D01*
X30584197Y-39176625D01*
X30642576Y-39432402D01*
X30642578Y-39432411D01*
X30642580Y-39432416D01*
X30738432Y-39676643D01*
X30869614Y-39903857D01*
X31001736Y-40069533D01*
X31033198Y-40108985D01*
X31214753Y-40277441D01*
X31225521Y-40287433D01*
X31442296Y-40435228D01*
X31442301Y-40435230D01*
X31442302Y-40435231D01*
X31442303Y-40435232D01*
X31567843Y-40495688D01*
X31678673Y-40549061D01*
X31678674Y-40549061D01*
X31678677Y-40549063D01*
X31929385Y-40626396D01*
X32188818Y-40665500D01*
X32451182Y-40665500D01*
X32710615Y-40626396D01*
X32961323Y-40549063D01*
X33197704Y-40435228D01*
X33414479Y-40287433D01*
X33606805Y-40108981D01*
X33770386Y-39903857D01*
X33901568Y-39676643D01*
X33904572Y-39668986D01*
X33947387Y-39613775D01*
X34013257Y-39590474D01*
X34081268Y-39606484D01*
X34129826Y-39656722D01*
X34135422Y-39668973D01*
X34138432Y-39676643D01*
X34269614Y-39903857D01*
X34401736Y-40069533D01*
X34433198Y-40108985D01*
X34614753Y-40277441D01*
X34625521Y-40287433D01*
X34842296Y-40435228D01*
X34842301Y-40435230D01*
X34842302Y-40435231D01*
X34842303Y-40435232D01*
X34967843Y-40495688D01*
X35078673Y-40549061D01*
X35078674Y-40549061D01*
X35078677Y-40549063D01*
X35329385Y-40626396D01*
X35588818Y-40665500D01*
X35851182Y-40665500D01*
X36110615Y-40626396D01*
X36361323Y-40549063D01*
X36597704Y-40435228D01*
X36814479Y-40287433D01*
X37006805Y-40108981D01*
X37170386Y-39903857D01*
X37301568Y-39676643D01*
X37397420Y-39432416D01*
X37455802Y-39176630D01*
X37475408Y-38915000D01*
X37455802Y-38653370D01*
X37397420Y-38397584D01*
X37301568Y-38153357D01*
X37170386Y-37926143D01*
X37006805Y-37721019D01*
X37006804Y-37721018D01*
X37006801Y-37721014D01*
X36814479Y-37542567D01*
X36760267Y-37505606D01*
X36597704Y-37394772D01*
X36597700Y-37394770D01*
X36597697Y-37394768D01*
X36597696Y-37394767D01*
X36361325Y-37280938D01*
X36361327Y-37280938D01*
X36110623Y-37203606D01*
X36110619Y-37203605D01*
X36110615Y-37203604D01*
X35985823Y-37184794D01*
X35851187Y-37164500D01*
X35851182Y-37164500D01*
X35588818Y-37164500D01*
X35588812Y-37164500D01*
X35427247Y-37188853D01*
X35329385Y-37203604D01*
X35329382Y-37203605D01*
X35329376Y-37203606D01*
X35078673Y-37280938D01*
X34842303Y-37394767D01*
X34842302Y-37394768D01*
X34625520Y-37542567D01*
X34433198Y-37721014D01*
X34269614Y-37926143D01*
X34138432Y-38153356D01*
X34135427Y-38161013D01*
X34092610Y-38216226D01*
X34026739Y-38239525D01*
X33958729Y-38223513D01*
X33910172Y-38173274D01*
X33904573Y-38161013D01*
X33903715Y-38158828D01*
X33901568Y-38153357D01*
X33770386Y-37926143D01*
X33606805Y-37721019D01*
X33606804Y-37721018D01*
X33606801Y-37721014D01*
X33414479Y-37542567D01*
X33360267Y-37505606D01*
X33197704Y-37394772D01*
X33197700Y-37394770D01*
X33197697Y-37394768D01*
X33197696Y-37394767D01*
X32961325Y-37280938D01*
X32961327Y-37280938D01*
X32710623Y-37203606D01*
X32710619Y-37203605D01*
X32710615Y-37203604D01*
X32585823Y-37184794D01*
X32451187Y-37164500D01*
X32451182Y-37164500D01*
X32188818Y-37164500D01*
X32188812Y-37164500D01*
X32027247Y-37188853D01*
X31929385Y-37203604D01*
X31929382Y-37203605D01*
X31929376Y-37203606D01*
X31678673Y-37280938D01*
X31442303Y-37394767D01*
X31442302Y-37394768D01*
X31225520Y-37542567D01*
X31033198Y-37721014D01*
X30869614Y-37926143D01*
X30738432Y-38153356D01*
X30642582Y-38397578D01*
X30642576Y-38397597D01*
X30584197Y-38653374D01*
X30584196Y-38653379D01*
X30564592Y-38914995D01*
X23905499Y-38914995D01*
X23905499Y-38362128D01*
X23899091Y-38302517D01*
X23883105Y-38259657D01*
X23848797Y-38167671D01*
X23848793Y-38167664D01*
X23762547Y-38052455D01*
X23762544Y-38052452D01*
X23647335Y-37966206D01*
X23647328Y-37966202D01*
X23512482Y-37915908D01*
X23512483Y-37915908D01*
X23452883Y-37909501D01*
X23452881Y-37909500D01*
X23452873Y-37909500D01*
X23452864Y-37909500D01*
X20577129Y-37909500D01*
X20577123Y-37909501D01*
X20517516Y-37915908D01*
X20382671Y-37966202D01*
X20382664Y-37966206D01*
X20267455Y-38052452D01*
X20267452Y-38052455D01*
X20181206Y-38167664D01*
X20181202Y-38167671D01*
X20130908Y-38302517D01*
X20124501Y-38362116D01*
X20124501Y-38362123D01*
X20124500Y-38362135D01*
X15060500Y-38362135D01*
X15060500Y-37009999D01*
X51791127Y-37009999D01*
X51791128Y-37010000D01*
X52754314Y-37010000D01*
X52749920Y-37014394D01*
X52697259Y-37105606D01*
X52670000Y-37207339D01*
X52670000Y-37312661D01*
X52697259Y-37414394D01*
X52749920Y-37505606D01*
X52754314Y-37510000D01*
X51791128Y-37510000D01*
X51843730Y-37706317D01*
X51843734Y-37706326D01*
X51939865Y-37912482D01*
X52070342Y-38098820D01*
X52231179Y-38259657D01*
X52417517Y-38390134D01*
X52623673Y-38486265D01*
X52623682Y-38486269D01*
X52819999Y-38538872D01*
X52820000Y-38538871D01*
X52820000Y-37575686D01*
X52824394Y-37580080D01*
X52915606Y-37632741D01*
X53017339Y-37660000D01*
X53122661Y-37660000D01*
X53224394Y-37632741D01*
X53315606Y-37580080D01*
X53320000Y-37575686D01*
X53320000Y-38538872D01*
X53516317Y-38486269D01*
X53516326Y-38486265D01*
X53722482Y-38390134D01*
X53908820Y-38259657D01*
X54069657Y-38098820D01*
X54200134Y-37912482D01*
X54296265Y-37706326D01*
X54296269Y-37706317D01*
X54348872Y-37510000D01*
X53385686Y-37510000D01*
X53390080Y-37505606D01*
X53442741Y-37414394D01*
X53470000Y-37312661D01*
X53470000Y-37207339D01*
X53442741Y-37105606D01*
X53390080Y-37014394D01*
X53385686Y-37010000D01*
X54348872Y-37010000D01*
X54348872Y-37009999D01*
X54296269Y-36813682D01*
X54296265Y-36813673D01*
X54200134Y-36607517D01*
X54069657Y-36421179D01*
X53908820Y-36260342D01*
X53722482Y-36129865D01*
X53516328Y-36033734D01*
X53320000Y-35981127D01*
X53320000Y-36944314D01*
X53315606Y-36939920D01*
X53224394Y-36887259D01*
X53122661Y-36860000D01*
X53017339Y-36860000D01*
X52915606Y-36887259D01*
X52824394Y-36939920D01*
X52820000Y-36944314D01*
X52820000Y-35981127D01*
X52623671Y-36033734D01*
X52417517Y-36129865D01*
X52231179Y-36260342D01*
X52070342Y-36421179D01*
X51939865Y-36607517D01*
X51843734Y-36813673D01*
X51843730Y-36813682D01*
X51791127Y-37009999D01*
X15060500Y-37009999D01*
X15060500Y-34719998D01*
X20120172Y-34719998D01*
X20120172Y-34720001D01*
X20139459Y-34989663D01*
X20139460Y-34989670D01*
X20196924Y-35253830D01*
X20291404Y-35507141D01*
X20291406Y-35507145D01*
X20420965Y-35744415D01*
X20420970Y-35744423D01*
X20513464Y-35867980D01*
X20513465Y-35867981D01*
X21231732Y-35149713D01*
X21323692Y-35287342D01*
X21447658Y-35411308D01*
X21585285Y-35503266D01*
X20867017Y-36221533D01*
X20990583Y-36314033D01*
X20990584Y-36314034D01*
X21227854Y-36443593D01*
X21227858Y-36443595D01*
X21481169Y-36538075D01*
X21745329Y-36595539D01*
X21745336Y-36595540D01*
X22014999Y-36614828D01*
X22015001Y-36614828D01*
X22284663Y-36595540D01*
X22284670Y-36595539D01*
X22548830Y-36538075D01*
X22802141Y-36443595D01*
X22802145Y-36443593D01*
X23039424Y-36314029D01*
X23162980Y-36221534D01*
X23162981Y-36221533D01*
X22444714Y-35503267D01*
X22582342Y-35411308D01*
X22706308Y-35287342D01*
X22798267Y-35149714D01*
X23516533Y-35867981D01*
X23516534Y-35867980D01*
X23609029Y-35744424D01*
X23738593Y-35507145D01*
X23738595Y-35507141D01*
X23833075Y-35253830D01*
X23890539Y-34989670D01*
X23890540Y-34989663D01*
X23909828Y-34720001D01*
X23909828Y-34719998D01*
X23890540Y-34450336D01*
X23890539Y-34450329D01*
X23833075Y-34186169D01*
X23738595Y-33932858D01*
X23738593Y-33932854D01*
X23609034Y-33695584D01*
X23609033Y-33695583D01*
X23516533Y-33572017D01*
X22798266Y-34290284D01*
X22706308Y-34152658D01*
X22582342Y-34028692D01*
X22444713Y-33936732D01*
X23162981Y-33218465D01*
X23162980Y-33218464D01*
X23039423Y-33125970D01*
X23039415Y-33125965D01*
X22802145Y-32996406D01*
X22802141Y-32996404D01*
X22548830Y-32901924D01*
X22284670Y-32844460D01*
X22284663Y-32844459D01*
X22015001Y-32825172D01*
X22014999Y-32825172D01*
X21745336Y-32844459D01*
X21745329Y-32844460D01*
X21481169Y-32901924D01*
X21227858Y-32996404D01*
X21227854Y-32996406D01*
X20990584Y-33125965D01*
X20990576Y-33125970D01*
X20867018Y-33218464D01*
X20867017Y-33218465D01*
X21585285Y-33936732D01*
X21447658Y-34028692D01*
X21323692Y-34152658D01*
X21231732Y-34290285D01*
X20513465Y-33572017D01*
X20513464Y-33572018D01*
X20420970Y-33695576D01*
X20420965Y-33695584D01*
X20291406Y-33932854D01*
X20291404Y-33932858D01*
X20196924Y-34186169D01*
X20139460Y-34450329D01*
X20139459Y-34450336D01*
X20120172Y-34719998D01*
X15060500Y-34719998D01*
X15060500Y-29639998D01*
X20120172Y-29639998D01*
X20120172Y-29640001D01*
X20139459Y-29909663D01*
X20139460Y-29909670D01*
X20196924Y-30173830D01*
X20291404Y-30427141D01*
X20291406Y-30427145D01*
X20420965Y-30664415D01*
X20420970Y-30664423D01*
X20513464Y-30787980D01*
X20513465Y-30787981D01*
X21231732Y-30069713D01*
X21323692Y-30207342D01*
X21447658Y-30331308D01*
X21585285Y-30423266D01*
X20867017Y-31141533D01*
X20990583Y-31234033D01*
X20990584Y-31234034D01*
X21227854Y-31363593D01*
X21227858Y-31363595D01*
X21481169Y-31458075D01*
X21745329Y-31515539D01*
X21745336Y-31515540D01*
X22014999Y-31534828D01*
X22015001Y-31534828D01*
X22284663Y-31515540D01*
X22284670Y-31515539D01*
X22548830Y-31458075D01*
X22802141Y-31363595D01*
X22802145Y-31363593D01*
X23039424Y-31234029D01*
X23162980Y-31141534D01*
X23162981Y-31141533D01*
X22931441Y-30909993D01*
X40929700Y-30909993D01*
X40929700Y-30910006D01*
X40948864Y-31141297D01*
X40948866Y-31141308D01*
X41005842Y-31366300D01*
X41099075Y-31578848D01*
X41226016Y-31773147D01*
X41226019Y-31773151D01*
X41226021Y-31773153D01*
X41320803Y-31876114D01*
X41351724Y-31938767D01*
X41343864Y-32008193D01*
X41299716Y-32062348D01*
X41272906Y-32076277D01*
X41192669Y-32106203D01*
X41192664Y-32106206D01*
X41077455Y-32192452D01*
X41077452Y-32192455D01*
X40991206Y-32307664D01*
X40991202Y-32307671D01*
X40940908Y-32442517D01*
X40934501Y-32502116D01*
X40934501Y-32502123D01*
X40934500Y-32502135D01*
X40934500Y-34397870D01*
X40934501Y-34397876D01*
X40940908Y-34457483D01*
X40991202Y-34592328D01*
X40991206Y-34592335D01*
X41077452Y-34707544D01*
X41077455Y-34707547D01*
X41192664Y-34793793D01*
X41192671Y-34793797D01*
X41327517Y-34844091D01*
X41327516Y-34844091D01*
X41334444Y-34844835D01*
X41387127Y-34850500D01*
X43282872Y-34850499D01*
X43342483Y-34844091D01*
X43477331Y-34793796D01*
X43592546Y-34707546D01*
X43678796Y-34592331D01*
X43729091Y-34457483D01*
X43735500Y-34397873D01*
X43735499Y-32502128D01*
X43729091Y-32442517D01*
X43678796Y-32307669D01*
X43678795Y-32307668D01*
X43678793Y-32307664D01*
X43592547Y-32192455D01*
X43592544Y-32192452D01*
X43477335Y-32106206D01*
X43477328Y-32106202D01*
X43397094Y-32076277D01*
X43341160Y-32034406D01*
X43316743Y-31968941D01*
X43331595Y-31900668D01*
X43349190Y-31876121D01*
X43443979Y-31773153D01*
X43570924Y-31578849D01*
X43664157Y-31366300D01*
X43721134Y-31141305D01*
X43740300Y-30910000D01*
X43740300Y-30909993D01*
X43721135Y-30678702D01*
X43721133Y-30678691D01*
X43664157Y-30453699D01*
X43570924Y-30241151D01*
X43443983Y-30046852D01*
X43443980Y-30046849D01*
X43443979Y-30046847D01*
X43286784Y-29876087D01*
X43286779Y-29876083D01*
X43286777Y-29876081D01*
X43103634Y-29733535D01*
X43103628Y-29733531D01*
X42899504Y-29623064D01*
X42899495Y-29623061D01*
X42679984Y-29547702D01*
X42508282Y-29519050D01*
X42451049Y-29509500D01*
X42218951Y-29509500D01*
X42173164Y-29517140D01*
X41990015Y-29547702D01*
X41770504Y-29623061D01*
X41770495Y-29623064D01*
X41566371Y-29733531D01*
X41566365Y-29733535D01*
X41383222Y-29876081D01*
X41383219Y-29876084D01*
X41226016Y-30046852D01*
X41099075Y-30241151D01*
X41005842Y-30453699D01*
X40948866Y-30678691D01*
X40948864Y-30678702D01*
X40929700Y-30909993D01*
X22931441Y-30909993D01*
X22444714Y-30423267D01*
X22582342Y-30331308D01*
X22706308Y-30207342D01*
X22798267Y-30069714D01*
X23516533Y-30787981D01*
X23516534Y-30787980D01*
X23609029Y-30664424D01*
X23738593Y-30427145D01*
X23738595Y-30427141D01*
X23833075Y-30173830D01*
X23890539Y-29909670D01*
X23890540Y-29909663D01*
X23909828Y-29640001D01*
X23909828Y-29639998D01*
X23890540Y-29370336D01*
X23890539Y-29370329D01*
X23833075Y-29106169D01*
X23738595Y-28852858D01*
X23738593Y-28852854D01*
X23609034Y-28615584D01*
X23609033Y-28615583D01*
X23516533Y-28492017D01*
X22798266Y-29210284D01*
X22706308Y-29072658D01*
X22582342Y-28948692D01*
X22444713Y-28856732D01*
X23162981Y-28138465D01*
X23162980Y-28138464D01*
X23039423Y-28045970D01*
X23039415Y-28045965D01*
X22802145Y-27916406D01*
X22802141Y-27916404D01*
X22548830Y-27821924D01*
X22284670Y-27764460D01*
X22284663Y-27764459D01*
X22015001Y-27745172D01*
X22014999Y-27745172D01*
X21745336Y-27764459D01*
X21745329Y-27764460D01*
X21481169Y-27821924D01*
X21227858Y-27916404D01*
X21227854Y-27916406D01*
X20990584Y-28045965D01*
X20990576Y-28045970D01*
X20867018Y-28138464D01*
X20867017Y-28138465D01*
X21585285Y-28856732D01*
X21447658Y-28948692D01*
X21323692Y-29072658D01*
X21231732Y-29210285D01*
X20513465Y-28492017D01*
X20513464Y-28492018D01*
X20420970Y-28615576D01*
X20420965Y-28615584D01*
X20291406Y-28852854D01*
X20291404Y-28852858D01*
X20196924Y-29106169D01*
X20139460Y-29370329D01*
X20139459Y-29370336D01*
X20120172Y-29639998D01*
X15060500Y-29639998D01*
X15060500Y-24559998D01*
X20119671Y-24559998D01*
X20119671Y-24560001D01*
X20138963Y-24829733D01*
X20138964Y-24829740D01*
X20196443Y-25093971D01*
X20290948Y-25347349D01*
X20290950Y-25347353D01*
X20420544Y-25584686D01*
X20420549Y-25584694D01*
X20582599Y-25801169D01*
X20582615Y-25801187D01*
X20773812Y-25992384D01*
X20773830Y-25992400D01*
X20990305Y-26154450D01*
X20990313Y-26154455D01*
X21227646Y-26284049D01*
X21227650Y-26284051D01*
X21227652Y-26284052D01*
X21481024Y-26378555D01*
X21481027Y-26378555D01*
X21481028Y-26378556D01*
X21569105Y-26397715D01*
X21745267Y-26436037D01*
X21995707Y-26453949D01*
X22014999Y-26455329D01*
X22015000Y-26455329D01*
X22015001Y-26455329D01*
X22033005Y-26454041D01*
X22284733Y-26436037D01*
X22548976Y-26378555D01*
X22802348Y-26284052D01*
X23039692Y-26154452D01*
X23256177Y-25992394D01*
X23447394Y-25801177D01*
X23609452Y-25584692D01*
X23685733Y-25444995D01*
X30564592Y-25444995D01*
X30564592Y-25445004D01*
X30584196Y-25706620D01*
X30584197Y-25706625D01*
X30642576Y-25962402D01*
X30642578Y-25962411D01*
X30642580Y-25962416D01*
X30738432Y-26206643D01*
X30869614Y-26433857D01*
X31001736Y-26599533D01*
X31033198Y-26638985D01*
X31214753Y-26807441D01*
X31225521Y-26817433D01*
X31442296Y-26965228D01*
X31442301Y-26965230D01*
X31442302Y-26965231D01*
X31442303Y-26965232D01*
X31567843Y-27025688D01*
X31678673Y-27079061D01*
X31678674Y-27079061D01*
X31678677Y-27079063D01*
X31929385Y-27156396D01*
X32188818Y-27195500D01*
X32451182Y-27195500D01*
X32710615Y-27156396D01*
X32961323Y-27079063D01*
X33197704Y-26965228D01*
X33414479Y-26817433D01*
X33563733Y-26678945D01*
X33606801Y-26638985D01*
X33606801Y-26638983D01*
X33606805Y-26638981D01*
X33770386Y-26433857D01*
X33901568Y-26206643D01*
X33904572Y-26198986D01*
X33947387Y-26143775D01*
X34013257Y-26120474D01*
X34081268Y-26136484D01*
X34129826Y-26186722D01*
X34135422Y-26198973D01*
X34138432Y-26206643D01*
X34138434Y-26206646D01*
X34138435Y-26206649D01*
X34183124Y-26284052D01*
X34269614Y-26433857D01*
X34401736Y-26599533D01*
X34433198Y-26638985D01*
X34614753Y-26807441D01*
X34625521Y-26817433D01*
X34842296Y-26965228D01*
X34842301Y-26965230D01*
X34842302Y-26965231D01*
X34842303Y-26965232D01*
X34967843Y-27025688D01*
X35078673Y-27079061D01*
X35078674Y-27079061D01*
X35078677Y-27079063D01*
X35329385Y-27156396D01*
X35588818Y-27195500D01*
X35851182Y-27195500D01*
X36110615Y-27156396D01*
X36293453Y-27099998D01*
X51764532Y-27099998D01*
X51764532Y-27100001D01*
X51784364Y-27326686D01*
X51784366Y-27326697D01*
X51843258Y-27546488D01*
X51843261Y-27546497D01*
X51939431Y-27752732D01*
X51939432Y-27752734D01*
X52069954Y-27939141D01*
X52230858Y-28100045D01*
X52230861Y-28100047D01*
X52417266Y-28230568D01*
X52623504Y-28326739D01*
X52843308Y-28385635D01*
X53005230Y-28399801D01*
X53069998Y-28405468D01*
X53070000Y-28405468D01*
X53070002Y-28405468D01*
X53126673Y-28400509D01*
X53296692Y-28385635D01*
X53516496Y-28326739D01*
X53722734Y-28230568D01*
X53909139Y-28100047D01*
X54070047Y-27939139D01*
X54200568Y-27752734D01*
X54296739Y-27546496D01*
X54355635Y-27326692D01*
X54375468Y-27100000D01*
X54355635Y-26873308D01*
X54296739Y-26653504D01*
X54200568Y-26447266D01*
X54070047Y-26260861D01*
X54070045Y-26260858D01*
X53909141Y-26099954D01*
X53722734Y-25969432D01*
X53722732Y-25969431D01*
X53516497Y-25873261D01*
X53516488Y-25873258D01*
X53296697Y-25814366D01*
X53296693Y-25814365D01*
X53296692Y-25814365D01*
X53296691Y-25814364D01*
X53296686Y-25814364D01*
X53070002Y-25794532D01*
X53069998Y-25794532D01*
X52843313Y-25814364D01*
X52843302Y-25814366D01*
X52623511Y-25873258D01*
X52623502Y-25873261D01*
X52417267Y-25969431D01*
X52417265Y-25969432D01*
X52230858Y-26099954D01*
X52069954Y-26260858D01*
X51939432Y-26447265D01*
X51939431Y-26447267D01*
X51843261Y-26653502D01*
X51843258Y-26653511D01*
X51784366Y-26873302D01*
X51784364Y-26873313D01*
X51764532Y-27099998D01*
X36293453Y-27099998D01*
X36361323Y-27079063D01*
X36597704Y-26965228D01*
X36814479Y-26817433D01*
X36963733Y-26678945D01*
X37006801Y-26638985D01*
X37006801Y-26638983D01*
X37006805Y-26638981D01*
X37170386Y-26433857D01*
X37301568Y-26206643D01*
X37397420Y-25962416D01*
X37455802Y-25706630D01*
X37475408Y-25445000D01*
X37468090Y-25347349D01*
X37455803Y-25183379D01*
X37455802Y-25183374D01*
X37455802Y-25183370D01*
X37397420Y-24927584D01*
X37301568Y-24683357D01*
X37170386Y-24456143D01*
X37006805Y-24251019D01*
X37006804Y-24251018D01*
X37006801Y-24251014D01*
X36814479Y-24072567D01*
X36746213Y-24026024D01*
X36597704Y-23924772D01*
X36597700Y-23924770D01*
X36597697Y-23924768D01*
X36597696Y-23924767D01*
X36361325Y-23810938D01*
X36361327Y-23810938D01*
X36110623Y-23733606D01*
X36110619Y-23733605D01*
X36110615Y-23733604D01*
X35985823Y-23714794D01*
X35851187Y-23694500D01*
X35851182Y-23694500D01*
X35588818Y-23694500D01*
X35588812Y-23694500D01*
X35427247Y-23718853D01*
X35329385Y-23733604D01*
X35329382Y-23733605D01*
X35329376Y-23733606D01*
X35078673Y-23810938D01*
X34842303Y-23924767D01*
X34842302Y-23924768D01*
X34625520Y-24072567D01*
X34433198Y-24251014D01*
X34269614Y-24456143D01*
X34138432Y-24683356D01*
X34135427Y-24691013D01*
X34092610Y-24746226D01*
X34026739Y-24769525D01*
X33958729Y-24753513D01*
X33910172Y-24703274D01*
X33904573Y-24691013D01*
X33903715Y-24688828D01*
X33901568Y-24683357D01*
X33770386Y-24456143D01*
X33606805Y-24251019D01*
X33606804Y-24251018D01*
X33606801Y-24251014D01*
X33414479Y-24072567D01*
X33346213Y-24026024D01*
X33197704Y-23924772D01*
X33197700Y-23924770D01*
X33197697Y-23924768D01*
X33197696Y-23924767D01*
X32961325Y-23810938D01*
X32961327Y-23810938D01*
X32710623Y-23733606D01*
X32710619Y-23733605D01*
X32710615Y-23733604D01*
X32585823Y-23714794D01*
X32451187Y-23694500D01*
X32451182Y-23694500D01*
X32188818Y-23694500D01*
X32188812Y-23694500D01*
X32027247Y-23718853D01*
X31929385Y-23733604D01*
X31929382Y-23733605D01*
X31929376Y-23733606D01*
X31678673Y-23810938D01*
X31442303Y-23924767D01*
X31442302Y-23924768D01*
X31225520Y-24072567D01*
X31033198Y-24251014D01*
X30869614Y-24456143D01*
X30738432Y-24683356D01*
X30642582Y-24927578D01*
X30642576Y-24927597D01*
X30584197Y-25183374D01*
X30584196Y-25183379D01*
X30564592Y-25444995D01*
X23685733Y-25444995D01*
X23739052Y-25347348D01*
X23833555Y-25093976D01*
X23891037Y-24829733D01*
X23910329Y-24560000D01*
X23891037Y-24290267D01*
X23833555Y-24026024D01*
X23739052Y-23772652D01*
X23609452Y-23535308D01*
X23609450Y-23535305D01*
X23447400Y-23318830D01*
X23447384Y-23318812D01*
X23256187Y-23127615D01*
X23256169Y-23127599D01*
X23039694Y-22965549D01*
X23039686Y-22965544D01*
X22802353Y-22835950D01*
X22802349Y-22835948D01*
X22548971Y-22741443D01*
X22284740Y-22683964D01*
X22284733Y-22683963D01*
X22015001Y-22664671D01*
X22014999Y-22664671D01*
X21745266Y-22683963D01*
X21745259Y-22683964D01*
X21481028Y-22741443D01*
X21227650Y-22835948D01*
X21227646Y-22835950D01*
X20990313Y-22965544D01*
X20990305Y-22965549D01*
X20773830Y-23127599D01*
X20773812Y-23127615D01*
X20582615Y-23318812D01*
X20582599Y-23318830D01*
X20420549Y-23535305D01*
X20420544Y-23535313D01*
X20290950Y-23772646D01*
X20290948Y-23772650D01*
X20196443Y-24026028D01*
X20138964Y-24290259D01*
X20138963Y-24290266D01*
X20119671Y-24559998D01*
X15060500Y-24559998D01*
X15060500Y-19045186D01*
X40159500Y-19045186D01*
X40159500Y-19314813D01*
X40189686Y-19582719D01*
X40189688Y-19582731D01*
X40249684Y-19845594D01*
X40249687Y-19845602D01*
X40338734Y-20100082D01*
X40455714Y-20342994D01*
X40455716Y-20342997D01*
X40599162Y-20571289D01*
X40767266Y-20782085D01*
X40957915Y-20972734D01*
X41168711Y-21140838D01*
X41397003Y-21284284D01*
X41639921Y-21401267D01*
X41831049Y-21468145D01*
X41894397Y-21490312D01*
X41894405Y-21490315D01*
X41894408Y-21490315D01*
X41894409Y-21490316D01*
X42157268Y-21550312D01*
X42425187Y-21580499D01*
X42425188Y-21580500D01*
X42425191Y-21580500D01*
X42694812Y-21580500D01*
X42694812Y-21580499D01*
X42962732Y-21550312D01*
X43225591Y-21490316D01*
X43480079Y-21401267D01*
X43722997Y-21284284D01*
X43951289Y-21140838D01*
X44162085Y-20972734D01*
X44352734Y-20782085D01*
X44520838Y-20571289D01*
X44664284Y-20342997D01*
X44781267Y-20100079D01*
X44870316Y-19845591D01*
X44930312Y-19582732D01*
X44960500Y-19314809D01*
X44960500Y-19045191D01*
X44930312Y-18777268D01*
X44886431Y-18585013D01*
X49160000Y-18585013D01*
X49160000Y-19230000D01*
X49987291Y-19230000D01*
X49975548Y-19250339D01*
X49935000Y-19401667D01*
X49935000Y-19558333D01*
X49975548Y-19709661D01*
X49987291Y-19730000D01*
X49160001Y-19730000D01*
X49160001Y-20374986D01*
X49170494Y-20477697D01*
X49225641Y-20644119D01*
X49225643Y-20644124D01*
X49317684Y-20793345D01*
X49441654Y-20917315D01*
X49590875Y-21009356D01*
X49590880Y-21009358D01*
X49757302Y-21064505D01*
X49757309Y-21064506D01*
X49860019Y-21074999D01*
X50279999Y-21074999D01*
X50280000Y-21074998D01*
X50280000Y-20022709D01*
X50300339Y-20034452D01*
X50451667Y-20075000D01*
X50608333Y-20075000D01*
X50759661Y-20034452D01*
X50780000Y-20022709D01*
X50780000Y-21074999D01*
X51199972Y-21074999D01*
X51199986Y-21074998D01*
X51302697Y-21064505D01*
X51469119Y-21009358D01*
X51469124Y-21009356D01*
X51618345Y-20917315D01*
X51742315Y-20793345D01*
X51834354Y-20644127D01*
X51834745Y-20643289D01*
X51835167Y-20642809D01*
X51838149Y-20637975D01*
X51838974Y-20638484D01*
X51880910Y-20590843D01*
X51948100Y-20571681D01*
X52014984Y-20591887D01*
X52034816Y-20607996D01*
X52177179Y-20750359D01*
X52351701Y-20877157D01*
X52543911Y-20975092D01*
X52749074Y-21041754D01*
X52828973Y-21054408D01*
X52962134Y-21075500D01*
X52962139Y-21075500D01*
X53177866Y-21075500D01*
X53296230Y-21056752D01*
X53390926Y-21041754D01*
X53596089Y-20975092D01*
X53788299Y-20877157D01*
X53962821Y-20750359D01*
X54115359Y-20597821D01*
X54242157Y-20423299D01*
X54340092Y-20231089D01*
X54406754Y-20025926D01*
X54421752Y-19931230D01*
X54440500Y-19812866D01*
X54440500Y-19147133D01*
X54406754Y-18934077D01*
X54406754Y-18934074D01*
X54340092Y-18728911D01*
X54266773Y-18585013D01*
X56780000Y-18585013D01*
X56780000Y-19230000D01*
X57607291Y-19230000D01*
X57595548Y-19250339D01*
X57555000Y-19401667D01*
X57555000Y-19558333D01*
X57595548Y-19709661D01*
X57607291Y-19730000D01*
X56780001Y-19730000D01*
X56780001Y-20374986D01*
X56790494Y-20477697D01*
X56845641Y-20644119D01*
X56845643Y-20644124D01*
X56937684Y-20793345D01*
X57061654Y-20917315D01*
X57210875Y-21009356D01*
X57210880Y-21009358D01*
X57377302Y-21064505D01*
X57377309Y-21064506D01*
X57480019Y-21074999D01*
X57899999Y-21074999D01*
X57900000Y-21074998D01*
X57900000Y-20022709D01*
X57920339Y-20034452D01*
X58071667Y-20075000D01*
X58228333Y-20075000D01*
X58379661Y-20034452D01*
X58400000Y-20022709D01*
X58400000Y-21074999D01*
X58819972Y-21074999D01*
X58819986Y-21074998D01*
X58922697Y-21064505D01*
X59089119Y-21009358D01*
X59089124Y-21009356D01*
X59238345Y-20917315D01*
X59362315Y-20793345D01*
X59454354Y-20644127D01*
X59454745Y-20643289D01*
X59455167Y-20642809D01*
X59458149Y-20637975D01*
X59458974Y-20638484D01*
X59500910Y-20590843D01*
X59568100Y-20571681D01*
X59634984Y-20591887D01*
X59654816Y-20607996D01*
X59797179Y-20750359D01*
X59971701Y-20877157D01*
X60163911Y-20975092D01*
X60369074Y-21041754D01*
X60448973Y-21054408D01*
X60582134Y-21075500D01*
X60582139Y-21075500D01*
X60797866Y-21075500D01*
X60916230Y-21056752D01*
X61010926Y-21041754D01*
X61216089Y-20975092D01*
X61408299Y-20877157D01*
X61582821Y-20750359D01*
X61735359Y-20597821D01*
X61862157Y-20423299D01*
X61960092Y-20231089D01*
X62026754Y-20025926D01*
X62041752Y-19931230D01*
X62060500Y-19812866D01*
X62060500Y-19147133D01*
X62026754Y-18934077D01*
X62026754Y-18934074D01*
X61960092Y-18728911D01*
X61862157Y-18536701D01*
X61735359Y-18362179D01*
X61582821Y-18209641D01*
X61408299Y-18082843D01*
X61329482Y-18042684D01*
X61216091Y-17984909D01*
X61216090Y-17984908D01*
X61216089Y-17984908D01*
X61010926Y-17918246D01*
X61010924Y-17918245D01*
X61010922Y-17918245D01*
X60797866Y-17884500D01*
X60797861Y-17884500D01*
X60582139Y-17884500D01*
X60582134Y-17884500D01*
X60369077Y-17918245D01*
X60163908Y-17984909D01*
X59971700Y-18082843D01*
X59797180Y-18209640D01*
X59654816Y-18352004D01*
X59593493Y-18385488D01*
X59523801Y-18380504D01*
X59467868Y-18338632D01*
X59454748Y-18316716D01*
X59454356Y-18315876D01*
X59362315Y-18166654D01*
X59238345Y-18042684D01*
X59089124Y-17950643D01*
X59089119Y-17950641D01*
X58922697Y-17895494D01*
X58922690Y-17895493D01*
X58819986Y-17885000D01*
X58400000Y-17885000D01*
X58400000Y-18937290D01*
X58379661Y-18925548D01*
X58228333Y-18885000D01*
X58071667Y-18885000D01*
X57920339Y-18925548D01*
X57900000Y-18937290D01*
X57900000Y-17885000D01*
X57480028Y-17885000D01*
X57480012Y-17885001D01*
X57377302Y-17895494D01*
X57210880Y-17950641D01*
X57210875Y-17950643D01*
X57061654Y-18042684D01*
X56937684Y-18166654D01*
X56845643Y-18315875D01*
X56845641Y-18315880D01*
X56790494Y-18482302D01*
X56790493Y-18482309D01*
X56780000Y-18585013D01*
X54266773Y-18585013D01*
X54242157Y-18536701D01*
X54115359Y-18362179D01*
X53962821Y-18209641D01*
X53788299Y-18082843D01*
X53709482Y-18042684D01*
X53596091Y-17984909D01*
X53596090Y-17984908D01*
X53596089Y-17984908D01*
X53390926Y-17918246D01*
X53390924Y-17918245D01*
X53390922Y-17918245D01*
X53177866Y-17884500D01*
X53177861Y-17884500D01*
X52962139Y-17884500D01*
X52962134Y-17884500D01*
X52749077Y-17918245D01*
X52543908Y-17984909D01*
X52351700Y-18082843D01*
X52177180Y-18209640D01*
X52034816Y-18352004D01*
X51973493Y-18385488D01*
X51903801Y-18380504D01*
X51847868Y-18338632D01*
X51834748Y-18316716D01*
X51834356Y-18315876D01*
X51742315Y-18166654D01*
X51618345Y-18042684D01*
X51469124Y-17950643D01*
X51469119Y-17950641D01*
X51302697Y-17895494D01*
X51302690Y-17895493D01*
X51199986Y-17885000D01*
X50780000Y-17885000D01*
X50780000Y-18937290D01*
X50759661Y-18925548D01*
X50608333Y-18885000D01*
X50451667Y-18885000D01*
X50300339Y-18925548D01*
X50280000Y-18937290D01*
X50280000Y-17885000D01*
X49860028Y-17885000D01*
X49860012Y-17885001D01*
X49757302Y-17895494D01*
X49590880Y-17950641D01*
X49590875Y-17950643D01*
X49441654Y-18042684D01*
X49317684Y-18166654D01*
X49225643Y-18315875D01*
X49225641Y-18315880D01*
X49170494Y-18482302D01*
X49170493Y-18482309D01*
X49160000Y-18585013D01*
X44886431Y-18585013D01*
X44870316Y-18514409D01*
X44781267Y-18259921D01*
X44664284Y-18017003D01*
X44520838Y-17788711D01*
X44352734Y-17577915D01*
X44162085Y-17387266D01*
X43951289Y-17219162D01*
X43722997Y-17075716D01*
X43722994Y-17075714D01*
X43480082Y-16958734D01*
X43225602Y-16869687D01*
X43225594Y-16869684D01*
X43028446Y-16824687D01*
X42962732Y-16809688D01*
X42962728Y-16809687D01*
X42962719Y-16809686D01*
X42694813Y-16779500D01*
X42694809Y-16779500D01*
X42425191Y-16779500D01*
X42425186Y-16779500D01*
X42157280Y-16809686D01*
X42157268Y-16809688D01*
X41894405Y-16869684D01*
X41894397Y-16869687D01*
X41639917Y-16958734D01*
X41397005Y-17075714D01*
X41168712Y-17219161D01*
X40957915Y-17387265D01*
X40767265Y-17577915D01*
X40599161Y-17788712D01*
X40455714Y-18017005D01*
X40338734Y-18259917D01*
X40249687Y-18514397D01*
X40249684Y-18514405D01*
X40189688Y-18777268D01*
X40189686Y-18777280D01*
X40159500Y-19045186D01*
X15060500Y-19045186D01*
X15060500Y-14804500D01*
X15080185Y-14737461D01*
X15132989Y-14691706D01*
X15184500Y-14680500D01*
X63935500Y-14680500D01*
X64002539Y-14700185D01*
G37*
%TD.AperFunction*%
%TD*%
M02*
