%TF.GenerationSoftware,KiCad,Pcbnew,8.0.8*%
%TF.CreationDate,2025-04-29T10:47:01+02:00*%
%TF.ProjectId,stern-aux-power-distribution,73746572-6e2d-4617-9578-2d706f776572,rev?*%
%TF.SameCoordinates,Original*%
%TF.FileFunction,Copper,L2,Bot*%
%TF.FilePolarity,Positive*%
%FSLAX46Y46*%
G04 Gerber Fmt 4.6, Leading zero omitted, Abs format (unit mm)*
G04 Created by KiCad (PCBNEW 8.0.8) date 2025-04-29 10:47:01*
%MOMM*%
%LPD*%
G01*
G04 APERTURE LIST*
G04 Aperture macros list*
%AMRoundRect*
0 Rectangle with rounded corners*
0 $1 Rounding radius*
0 $2 $3 $4 $5 $6 $7 $8 $9 X,Y pos of 4 corners*
0 Add a 4 corners polygon primitive as box body*
4,1,4,$2,$3,$4,$5,$6,$7,$8,$9,$2,$3,0*
0 Add four circle primitives for the rounded corners*
1,1,$1+$1,$2,$3*
1,1,$1+$1,$4,$5*
1,1,$1+$1,$6,$7*
1,1,$1+$1,$8,$9*
0 Add four rect primitives between the rounded corners*
20,1,$1+$1,$2,$3,$4,$5,0*
20,1,$1+$1,$4,$5,$6,$7,0*
20,1,$1+$1,$6,$7,$8,$9,0*
20,1,$1+$1,$8,$9,$2,$3,0*%
G04 Aperture macros list end*
%TA.AperFunction,ComponentPad*%
%ADD10RoundRect,0.250000X-0.620000X-0.845000X0.620000X-0.845000X0.620000X0.845000X-0.620000X0.845000X0*%
%TD*%
%TA.AperFunction,ComponentPad*%
%ADD11O,1.740000X2.190000*%
%TD*%
%TA.AperFunction,ComponentPad*%
%ADD12C,1.600000*%
%TD*%
%TA.AperFunction,ComponentPad*%
%ADD13O,1.600000X1.600000*%
%TD*%
%TA.AperFunction,ComponentPad*%
%ADD14C,2.500000*%
%TD*%
%TA.AperFunction,ComponentPad*%
%ADD15RoundRect,0.250000X0.620000X0.845000X-0.620000X0.845000X-0.620000X-0.845000X0.620000X-0.845000X0*%
%TD*%
%TA.AperFunction,ComponentPad*%
%ADD16C,1.800000*%
%TD*%
%TA.AperFunction,ComponentPad*%
%ADD17R,1.800000X1.800000*%
%TD*%
%TA.AperFunction,ComponentPad*%
%ADD18C,2.780000*%
%TD*%
%TA.AperFunction,ComponentPad*%
%ADD19R,2.780000X2.780000*%
%TD*%
%TA.AperFunction,Conductor*%
%ADD20C,2.000000*%
%TD*%
G04 APERTURE END LIST*
D10*
%TO.P,J2,1,Pin_1*%
%TO.N,GND*%
X50530000Y-19480000D03*
D11*
%TO.P,J2,2,Pin_2*%
%TO.N,+12V*%
X53070000Y-19480000D03*
%TD*%
D12*
%TO.P,R1,1*%
%TO.N,Net-(D1-K)*%
X53070000Y-27100000D03*
D13*
%TO.P,R1,2*%
%TO.N,GND*%
X53070000Y-37260000D03*
%TD*%
D14*
%TO.P,F1,2*%
%TO.N,+12V*%
X35720000Y-25445000D03*
X32320000Y-25445000D03*
%TO.P,F1,1*%
%TO.N,Net-(J1-Pin_1)*%
X35720000Y-38915000D03*
X32320000Y-38915000D03*
%TD*%
D10*
%TO.P,J3,1,Pin_1*%
%TO.N,GND*%
X58150000Y-19480000D03*
D11*
%TO.P,J3,2,Pin_2*%
%TO.N,+12V*%
X60690000Y-19480000D03*
%TD*%
D15*
%TO.P,J4,1,Pin_1*%
%TO.N,GND*%
X53070000Y-44880000D03*
D11*
%TO.P,J4,2,Pin_2*%
%TO.N,+12V*%
X50530000Y-44880000D03*
%TD*%
D16*
%TO.P,D1,2,A*%
%TO.N,+12V*%
X42335000Y-30910000D03*
D17*
%TO.P,D1,1,K*%
%TO.N,Net-(D1-K)*%
X42335000Y-33450000D03*
%TD*%
D18*
%TO.P,J1,4,Pin_4*%
%TO.N,unconnected-(J1-Pin_4-Pad4)*%
X22015000Y-24560000D03*
%TO.P,J1,3,Pin_3*%
%TO.N,GND*%
X22015000Y-29640000D03*
%TO.P,J1,2,Pin_2*%
X22015000Y-34720000D03*
D19*
%TO.P,J1,1,Pin_1*%
%TO.N,Net-(J1-Pin_1)*%
X22015000Y-39800000D03*
%TD*%
D15*
%TO.P,J5,1,Pin_1*%
%TO.N,GND*%
X60690000Y-44880000D03*
D11*
%TO.P,J5,2,Pin_2*%
%TO.N,+12V*%
X58150000Y-44880000D03*
%TD*%
D20*
%TO.N,Net-(D1-K)*%
X42335000Y-33450000D02*
X46720000Y-33450000D01*
X53070000Y-27100000D02*
X46720000Y-33450000D01*
%TO.N,Net-(J1-Pin_1)*%
X27095000Y-39800000D02*
X22015000Y-39800000D01*
X35720000Y-38915000D02*
X27980000Y-38915000D01*
X27980000Y-38915000D02*
X27095000Y-39800000D01*
%TD*%
%TA.AperFunction,Conductor*%
%TO.N,GND*%
G36*
X29647539Y-14700185D02*
G01*
X29693294Y-14752989D01*
X29704500Y-14804500D01*
X29704500Y-19073569D01*
X29704500Y-24211344D01*
X29704500Y-25444999D01*
X29704500Y-26678654D01*
X29704500Y-32056000D01*
X29704501Y-32056009D01*
X29716052Y-32163450D01*
X29716054Y-32163462D01*
X29727260Y-32214972D01*
X29761383Y-32317497D01*
X29761386Y-32317503D01*
X29839171Y-32438537D01*
X29839179Y-32438548D01*
X29884923Y-32491340D01*
X29884926Y-32491343D01*
X29884930Y-32491347D01*
X29993664Y-32585567D01*
X30124541Y-32645338D01*
X30191580Y-32665023D01*
X30191584Y-32665024D01*
X30334000Y-32685500D01*
X38470500Y-32685500D01*
X38537539Y-32705185D01*
X38583294Y-32757989D01*
X38594500Y-32809500D01*
X38594500Y-49555500D01*
X38574815Y-49622539D01*
X38522011Y-49668294D01*
X38470500Y-49679500D01*
X15184500Y-49679500D01*
X15117461Y-49659815D01*
X15071706Y-49607011D01*
X15060500Y-49555500D01*
X15060500Y-38362135D01*
X20124500Y-38362135D01*
X20124500Y-41237870D01*
X20124501Y-41237876D01*
X20130908Y-41297483D01*
X20181202Y-41432328D01*
X20181206Y-41432335D01*
X20267452Y-41547544D01*
X20267455Y-41547547D01*
X20382664Y-41633793D01*
X20382671Y-41633797D01*
X20517517Y-41684091D01*
X20517516Y-41684091D01*
X20524444Y-41684835D01*
X20577127Y-41690500D01*
X23452872Y-41690499D01*
X23512483Y-41684091D01*
X23647331Y-41633796D01*
X23762546Y-41547546D01*
X23848796Y-41432331D01*
X23867879Y-41381168D01*
X23909750Y-41325234D01*
X23975214Y-41300816D01*
X23984061Y-41300500D01*
X27213097Y-41300500D01*
X27446368Y-41263553D01*
X27525393Y-41237876D01*
X27670992Y-41190568D01*
X27881434Y-41083343D01*
X28072510Y-40944517D01*
X28565208Y-40451819D01*
X28626531Y-40418334D01*
X28652889Y-40415500D01*
X31375111Y-40415500D01*
X31437708Y-40433880D01*
X31438272Y-40432905D01*
X31442287Y-40435222D01*
X31442296Y-40435228D01*
X31678673Y-40549061D01*
X31678674Y-40549061D01*
X31678677Y-40549063D01*
X31929385Y-40626396D01*
X32188818Y-40665500D01*
X32451182Y-40665500D01*
X32710615Y-40626396D01*
X32961323Y-40549063D01*
X33197704Y-40435228D01*
X33197717Y-40435218D01*
X33201728Y-40432905D01*
X33202692Y-40434576D01*
X33261491Y-40415547D01*
X33264889Y-40415500D01*
X34775111Y-40415500D01*
X34837708Y-40433880D01*
X34838272Y-40432905D01*
X34842287Y-40435222D01*
X34842296Y-40435228D01*
X35078673Y-40549061D01*
X35078674Y-40549061D01*
X35078677Y-40549063D01*
X35329385Y-40626396D01*
X35588818Y-40665500D01*
X35851182Y-40665500D01*
X36110615Y-40626396D01*
X36361323Y-40549063D01*
X36597704Y-40435228D01*
X36814479Y-40287433D01*
X37006805Y-40108981D01*
X37170386Y-39903857D01*
X37301568Y-39676643D01*
X37397420Y-39432416D01*
X37455802Y-39176630D01*
X37475408Y-38915000D01*
X37455802Y-38653370D01*
X37397420Y-38397584D01*
X37301568Y-38153357D01*
X37170386Y-37926143D01*
X37006805Y-37721019D01*
X37006804Y-37721018D01*
X37006801Y-37721014D01*
X36814479Y-37542567D01*
X36760267Y-37505606D01*
X36597704Y-37394772D01*
X36597698Y-37394769D01*
X36597697Y-37394768D01*
X36597696Y-37394767D01*
X36361325Y-37280938D01*
X36361327Y-37280938D01*
X36110623Y-37203606D01*
X36110619Y-37203605D01*
X36110615Y-37203604D01*
X35985823Y-37184794D01*
X35851187Y-37164500D01*
X35851182Y-37164500D01*
X35588818Y-37164500D01*
X35588812Y-37164500D01*
X35427247Y-37188853D01*
X35329385Y-37203604D01*
X35329382Y-37203605D01*
X35329376Y-37203606D01*
X35078673Y-37280938D01*
X34842301Y-37394769D01*
X34838272Y-37397095D01*
X34837307Y-37395423D01*
X34778509Y-37414453D01*
X34775111Y-37414500D01*
X33264889Y-37414500D01*
X33202291Y-37396119D01*
X33201728Y-37397095D01*
X33197708Y-37394775D01*
X33197704Y-37394772D01*
X32961325Y-37280938D01*
X32961327Y-37280938D01*
X32710623Y-37203606D01*
X32710619Y-37203605D01*
X32710615Y-37203604D01*
X32585823Y-37184794D01*
X32451187Y-37164500D01*
X32451182Y-37164500D01*
X32188818Y-37164500D01*
X32188812Y-37164500D01*
X32027247Y-37188853D01*
X31929385Y-37203604D01*
X31929382Y-37203605D01*
X31929376Y-37203606D01*
X31678673Y-37280938D01*
X31442301Y-37394769D01*
X31438272Y-37397095D01*
X31437307Y-37395423D01*
X31378509Y-37414453D01*
X31375111Y-37414500D01*
X27861903Y-37414500D01*
X27628631Y-37451446D01*
X27404003Y-37524433D01*
X27193565Y-37631657D01*
X27002488Y-37770484D01*
X27002487Y-37770485D01*
X26509792Y-38263181D01*
X26448469Y-38296666D01*
X26422111Y-38299500D01*
X23984061Y-38299500D01*
X23917022Y-38279815D01*
X23871267Y-38227011D01*
X23867879Y-38218832D01*
X23848798Y-38167673D01*
X23848793Y-38167664D01*
X23762547Y-38052455D01*
X23762544Y-38052452D01*
X23647335Y-37966206D01*
X23647328Y-37966202D01*
X23512482Y-37915908D01*
X23512483Y-37915908D01*
X23452883Y-37909501D01*
X23452881Y-37909500D01*
X23452873Y-37909500D01*
X23452864Y-37909500D01*
X20577129Y-37909500D01*
X20577123Y-37909501D01*
X20517516Y-37915908D01*
X20382671Y-37966202D01*
X20382664Y-37966206D01*
X20267455Y-38052452D01*
X20267452Y-38052455D01*
X20181206Y-38167664D01*
X20181202Y-38167671D01*
X20130908Y-38302517D01*
X20124501Y-38362116D01*
X20124500Y-38362135D01*
X15060500Y-38362135D01*
X15060500Y-34719998D01*
X20120172Y-34719998D01*
X20120172Y-34720001D01*
X20139459Y-34989663D01*
X20139460Y-34989670D01*
X20196924Y-35253830D01*
X20291404Y-35507141D01*
X20291406Y-35507145D01*
X20420965Y-35744415D01*
X20420970Y-35744423D01*
X20513464Y-35867980D01*
X20513465Y-35867981D01*
X21231732Y-35149713D01*
X21323692Y-35287342D01*
X21447658Y-35411308D01*
X21585285Y-35503266D01*
X20867017Y-36221533D01*
X20990583Y-36314033D01*
X20990584Y-36314034D01*
X21227854Y-36443593D01*
X21227858Y-36443595D01*
X21481169Y-36538075D01*
X21745329Y-36595539D01*
X21745336Y-36595540D01*
X22014999Y-36614828D01*
X22015001Y-36614828D01*
X22284663Y-36595540D01*
X22284670Y-36595539D01*
X22548830Y-36538075D01*
X22802141Y-36443595D01*
X22802145Y-36443593D01*
X23039424Y-36314029D01*
X23162980Y-36221534D01*
X23162981Y-36221533D01*
X22444714Y-35503267D01*
X22582342Y-35411308D01*
X22706308Y-35287342D01*
X22798267Y-35149714D01*
X23516533Y-35867981D01*
X23516534Y-35867980D01*
X23609029Y-35744424D01*
X23738593Y-35507145D01*
X23738595Y-35507141D01*
X23833075Y-35253830D01*
X23890539Y-34989670D01*
X23890540Y-34989663D01*
X23909828Y-34720001D01*
X23909828Y-34719998D01*
X23890540Y-34450336D01*
X23890539Y-34450329D01*
X23833075Y-34186169D01*
X23738595Y-33932858D01*
X23738593Y-33932854D01*
X23609034Y-33695584D01*
X23609033Y-33695583D01*
X23516533Y-33572017D01*
X22798266Y-34290284D01*
X22706308Y-34152658D01*
X22582342Y-34028692D01*
X22444713Y-33936732D01*
X23162981Y-33218465D01*
X23162980Y-33218464D01*
X23039423Y-33125970D01*
X23039415Y-33125965D01*
X22802145Y-32996406D01*
X22802141Y-32996404D01*
X22548830Y-32901924D01*
X22284670Y-32844460D01*
X22284663Y-32844459D01*
X22015001Y-32825172D01*
X22014999Y-32825172D01*
X21745336Y-32844459D01*
X21745329Y-32844460D01*
X21481169Y-32901924D01*
X21227858Y-32996404D01*
X21227854Y-32996406D01*
X20990584Y-33125965D01*
X20990576Y-33125970D01*
X20867018Y-33218464D01*
X20867017Y-33218465D01*
X21585285Y-33936732D01*
X21447658Y-34028692D01*
X21323692Y-34152658D01*
X21231732Y-34290285D01*
X20513465Y-33572017D01*
X20513464Y-33572018D01*
X20420970Y-33695576D01*
X20420965Y-33695584D01*
X20291406Y-33932854D01*
X20291404Y-33932858D01*
X20196924Y-34186169D01*
X20139460Y-34450329D01*
X20139459Y-34450336D01*
X20120172Y-34719998D01*
X15060500Y-34719998D01*
X15060500Y-29639998D01*
X20120172Y-29639998D01*
X20120172Y-29640001D01*
X20139459Y-29909663D01*
X20139460Y-29909670D01*
X20196924Y-30173830D01*
X20291404Y-30427141D01*
X20291406Y-30427145D01*
X20420965Y-30664415D01*
X20420970Y-30664423D01*
X20513464Y-30787980D01*
X20513465Y-30787981D01*
X21231732Y-30069713D01*
X21323692Y-30207342D01*
X21447658Y-30331308D01*
X21585285Y-30423266D01*
X20867017Y-31141533D01*
X20990583Y-31234033D01*
X20990584Y-31234034D01*
X21227854Y-31363593D01*
X21227858Y-31363595D01*
X21481169Y-31458075D01*
X21745329Y-31515539D01*
X21745336Y-31515540D01*
X22014999Y-31534828D01*
X22015001Y-31534828D01*
X22284663Y-31515540D01*
X22284670Y-31515539D01*
X22548830Y-31458075D01*
X22802141Y-31363595D01*
X22802145Y-31363593D01*
X23039424Y-31234029D01*
X23162980Y-31141534D01*
X23162981Y-31141533D01*
X22444714Y-30423267D01*
X22582342Y-30331308D01*
X22706308Y-30207342D01*
X22798267Y-30069714D01*
X23516533Y-30787981D01*
X23516534Y-30787980D01*
X23609029Y-30664424D01*
X23738593Y-30427145D01*
X23738595Y-30427141D01*
X23833075Y-30173830D01*
X23890539Y-29909670D01*
X23890540Y-29909663D01*
X23909828Y-29640001D01*
X23909828Y-29639998D01*
X23890540Y-29370336D01*
X23890539Y-29370329D01*
X23833075Y-29106169D01*
X23738595Y-28852858D01*
X23738593Y-28852854D01*
X23609034Y-28615584D01*
X23609033Y-28615583D01*
X23516533Y-28492017D01*
X22798266Y-29210284D01*
X22706308Y-29072658D01*
X22582342Y-28948692D01*
X22444713Y-28856732D01*
X23162981Y-28138465D01*
X23162980Y-28138464D01*
X23039423Y-28045970D01*
X23039415Y-28045965D01*
X22802145Y-27916406D01*
X22802141Y-27916404D01*
X22548830Y-27821924D01*
X22284670Y-27764460D01*
X22284663Y-27764459D01*
X22015001Y-27745172D01*
X22014999Y-27745172D01*
X21745336Y-27764459D01*
X21745329Y-27764460D01*
X21481169Y-27821924D01*
X21227858Y-27916404D01*
X21227854Y-27916406D01*
X20990584Y-28045965D01*
X20990576Y-28045970D01*
X20867018Y-28138464D01*
X20867017Y-28138465D01*
X21585285Y-28856732D01*
X21447658Y-28948692D01*
X21323692Y-29072658D01*
X21231732Y-29210285D01*
X20513465Y-28492017D01*
X20513464Y-28492018D01*
X20420970Y-28615576D01*
X20420965Y-28615584D01*
X20291406Y-28852854D01*
X20291404Y-28852858D01*
X20196924Y-29106169D01*
X20139460Y-29370329D01*
X20139459Y-29370336D01*
X20120172Y-29639998D01*
X15060500Y-29639998D01*
X15060500Y-24559998D01*
X20119671Y-24559998D01*
X20119671Y-24560001D01*
X20138963Y-24829733D01*
X20138964Y-24829740D01*
X20196443Y-25093971D01*
X20290948Y-25347349D01*
X20290950Y-25347353D01*
X20420544Y-25584686D01*
X20420549Y-25584694D01*
X20582599Y-25801169D01*
X20582615Y-25801187D01*
X20773812Y-25992384D01*
X20773830Y-25992400D01*
X20990305Y-26154450D01*
X20990313Y-26154455D01*
X21227646Y-26284049D01*
X21227650Y-26284051D01*
X21227652Y-26284052D01*
X21481024Y-26378555D01*
X21481027Y-26378555D01*
X21481028Y-26378556D01*
X21569105Y-26397715D01*
X21745267Y-26436037D01*
X21995707Y-26453949D01*
X22014999Y-26455329D01*
X22015000Y-26455329D01*
X22015001Y-26455329D01*
X22033005Y-26454041D01*
X22284733Y-26436037D01*
X22548976Y-26378555D01*
X22802348Y-26284052D01*
X23039692Y-26154452D01*
X23256177Y-25992394D01*
X23447394Y-25801177D01*
X23609452Y-25584692D01*
X23739052Y-25347348D01*
X23833555Y-25093976D01*
X23891037Y-24829733D01*
X23910329Y-24560000D01*
X23891037Y-24290267D01*
X23833555Y-24026024D01*
X23739052Y-23772652D01*
X23609452Y-23535308D01*
X23609450Y-23535305D01*
X23447400Y-23318830D01*
X23447384Y-23318812D01*
X23256187Y-23127615D01*
X23256169Y-23127599D01*
X23039694Y-22965549D01*
X23039686Y-22965544D01*
X22802353Y-22835950D01*
X22802349Y-22835948D01*
X22548971Y-22741443D01*
X22284740Y-22683964D01*
X22284733Y-22683963D01*
X22015001Y-22664671D01*
X22014999Y-22664671D01*
X21745266Y-22683963D01*
X21745259Y-22683964D01*
X21481028Y-22741443D01*
X21227650Y-22835948D01*
X21227646Y-22835950D01*
X20990313Y-22965544D01*
X20990305Y-22965549D01*
X20773830Y-23127599D01*
X20773812Y-23127615D01*
X20582615Y-23318812D01*
X20582599Y-23318830D01*
X20420549Y-23535305D01*
X20420544Y-23535313D01*
X20290950Y-23772646D01*
X20290948Y-23772650D01*
X20196443Y-24026028D01*
X20138964Y-24290259D01*
X20138963Y-24290266D01*
X20119671Y-24559998D01*
X15060500Y-24559998D01*
X15060500Y-14804500D01*
X15080185Y-14737461D01*
X15132989Y-14691706D01*
X15184500Y-14680500D01*
X29580500Y-14680500D01*
X29647539Y-14700185D01*
G37*
%TD.AperFunction*%
%TD*%
%TA.AperFunction,Conductor*%
%TO.N,+12V*%
G36*
X64002539Y-14700185D02*
G01*
X64048294Y-14752989D01*
X64059500Y-14804500D01*
X64059500Y-49555500D01*
X64039815Y-49622539D01*
X63987011Y-49668294D01*
X63935500Y-49679500D01*
X39224000Y-49679500D01*
X39156961Y-49659815D01*
X39111206Y-49607011D01*
X39100000Y-49555500D01*
X39100000Y-45045186D01*
X40159500Y-45045186D01*
X40159500Y-45314813D01*
X40189686Y-45582719D01*
X40189688Y-45582731D01*
X40249684Y-45845594D01*
X40249687Y-45845602D01*
X40338734Y-46100082D01*
X40455714Y-46342994D01*
X40497699Y-46409812D01*
X40599162Y-46571289D01*
X40767266Y-46782085D01*
X40957915Y-46972734D01*
X41168711Y-47140838D01*
X41397003Y-47284284D01*
X41639921Y-47401267D01*
X41831049Y-47468145D01*
X41894397Y-47490312D01*
X41894405Y-47490315D01*
X41894408Y-47490315D01*
X41894409Y-47490316D01*
X42157268Y-47550312D01*
X42425187Y-47580499D01*
X42425188Y-47580500D01*
X42425191Y-47580500D01*
X42694812Y-47580500D01*
X42694812Y-47580499D01*
X42962732Y-47550312D01*
X43225591Y-47490316D01*
X43480079Y-47401267D01*
X43722997Y-47284284D01*
X43951289Y-47140838D01*
X44162085Y-46972734D01*
X44352734Y-46782085D01*
X44520838Y-46571289D01*
X44664284Y-46342997D01*
X44781267Y-46100079D01*
X44870316Y-45845591D01*
X44930312Y-45582732D01*
X44960500Y-45314809D01*
X44960500Y-45045191D01*
X44930312Y-44777268D01*
X44877796Y-44547179D01*
X49160000Y-44547179D01*
X49160000Y-44630000D01*
X49987291Y-44630000D01*
X49975548Y-44650339D01*
X49935000Y-44801667D01*
X49935000Y-44958333D01*
X49975548Y-45109661D01*
X49987291Y-45130000D01*
X49160000Y-45130000D01*
X49160000Y-45212820D01*
X49193734Y-45425809D01*
X49260372Y-45630901D01*
X49358271Y-45823036D01*
X49485025Y-45997496D01*
X49485025Y-45997497D01*
X49637502Y-46149974D01*
X49811963Y-46276728D01*
X50004098Y-46374627D01*
X50209190Y-46441266D01*
X50280000Y-46452481D01*
X50280000Y-45422709D01*
X50300339Y-45434452D01*
X50451667Y-45475000D01*
X50608333Y-45475000D01*
X50759661Y-45434452D01*
X50780000Y-45422709D01*
X50780000Y-46452480D01*
X50850809Y-46441266D01*
X51055901Y-46374627D01*
X51248036Y-46276728D01*
X51422493Y-46149977D01*
X51564578Y-46007892D01*
X51625901Y-45974407D01*
X51695593Y-45979391D01*
X51751527Y-46021262D01*
X51764640Y-46043165D01*
X51765181Y-46044325D01*
X51765185Y-46044331D01*
X51765186Y-46044334D01*
X51857288Y-46193656D01*
X51981344Y-46317712D01*
X52130666Y-46409814D01*
X52297203Y-46464999D01*
X52399991Y-46475500D01*
X53740008Y-46475499D01*
X53842797Y-46464999D01*
X54009334Y-46409814D01*
X54158656Y-46317712D01*
X54282712Y-46193656D01*
X54374814Y-46044334D01*
X54429999Y-45877797D01*
X54440500Y-45775009D01*
X54440499Y-44547179D01*
X56780000Y-44547179D01*
X56780000Y-44630000D01*
X57607291Y-44630000D01*
X57595548Y-44650339D01*
X57555000Y-44801667D01*
X57555000Y-44958333D01*
X57595548Y-45109661D01*
X57607291Y-45130000D01*
X56780000Y-45130000D01*
X56780000Y-45212820D01*
X56813734Y-45425809D01*
X56880372Y-45630901D01*
X56978271Y-45823036D01*
X57105025Y-45997496D01*
X57105025Y-45997497D01*
X57257502Y-46149974D01*
X57431963Y-46276728D01*
X57624098Y-46374627D01*
X57829190Y-46441266D01*
X57900000Y-46452481D01*
X57900000Y-45422709D01*
X57920339Y-45434452D01*
X58071667Y-45475000D01*
X58228333Y-45475000D01*
X58379661Y-45434452D01*
X58400000Y-45422709D01*
X58400000Y-46452480D01*
X58470809Y-46441266D01*
X58675901Y-46374627D01*
X58868036Y-46276728D01*
X59042493Y-46149977D01*
X59184578Y-46007892D01*
X59245901Y-45974407D01*
X59315593Y-45979391D01*
X59371527Y-46021262D01*
X59384640Y-46043165D01*
X59385181Y-46044325D01*
X59385185Y-46044331D01*
X59385186Y-46044334D01*
X59477288Y-46193656D01*
X59601344Y-46317712D01*
X59750666Y-46409814D01*
X59917203Y-46464999D01*
X60019991Y-46475500D01*
X61360008Y-46475499D01*
X61462797Y-46464999D01*
X61629334Y-46409814D01*
X61778656Y-46317712D01*
X61902712Y-46193656D01*
X61994814Y-46044334D01*
X62049999Y-45877797D01*
X62060500Y-45775009D01*
X62060499Y-43984992D01*
X62049999Y-43882203D01*
X61994814Y-43715666D01*
X61902712Y-43566344D01*
X61778656Y-43442288D01*
X61629334Y-43350186D01*
X61462797Y-43295001D01*
X61462795Y-43295000D01*
X61360010Y-43284500D01*
X60019998Y-43284500D01*
X60019981Y-43284501D01*
X59917203Y-43295000D01*
X59917200Y-43295001D01*
X59750668Y-43350185D01*
X59750663Y-43350187D01*
X59601342Y-43442289D01*
X59477289Y-43566342D01*
X59385182Y-43715672D01*
X59384638Y-43716840D01*
X59384051Y-43717505D01*
X59381395Y-43721813D01*
X59380658Y-43721358D01*
X59338461Y-43769275D01*
X59271266Y-43788422D01*
X59204387Y-43768201D01*
X59184579Y-43752107D01*
X59042497Y-43610025D01*
X58868036Y-43483271D01*
X58675899Y-43385372D01*
X58470805Y-43318733D01*
X58400000Y-43307518D01*
X58400000Y-44337290D01*
X58379661Y-44325548D01*
X58228333Y-44285000D01*
X58071667Y-44285000D01*
X57920339Y-44325548D01*
X57900000Y-44337290D01*
X57900000Y-43307518D01*
X57899999Y-43307518D01*
X57829194Y-43318733D01*
X57624100Y-43385372D01*
X57431963Y-43483271D01*
X57257503Y-43610025D01*
X57257502Y-43610025D01*
X57105025Y-43762502D01*
X57105025Y-43762503D01*
X56978271Y-43936963D01*
X56880372Y-44129098D01*
X56813734Y-44334190D01*
X56780000Y-44547179D01*
X54440499Y-44547179D01*
X54440499Y-43984992D01*
X54429999Y-43882203D01*
X54374814Y-43715666D01*
X54282712Y-43566344D01*
X54158656Y-43442288D01*
X54009334Y-43350186D01*
X53842797Y-43295001D01*
X53842795Y-43295000D01*
X53740010Y-43284500D01*
X52399998Y-43284500D01*
X52399981Y-43284501D01*
X52297203Y-43295000D01*
X52297200Y-43295001D01*
X52130668Y-43350185D01*
X52130663Y-43350187D01*
X51981342Y-43442289D01*
X51857289Y-43566342D01*
X51765182Y-43715672D01*
X51764638Y-43716840D01*
X51764051Y-43717505D01*
X51761395Y-43721813D01*
X51760658Y-43721358D01*
X51718461Y-43769275D01*
X51651266Y-43788422D01*
X51584387Y-43768201D01*
X51564579Y-43752107D01*
X51422497Y-43610025D01*
X51248036Y-43483271D01*
X51055899Y-43385372D01*
X50850805Y-43318733D01*
X50780000Y-43307518D01*
X50780000Y-44337290D01*
X50759661Y-44325548D01*
X50608333Y-44285000D01*
X50451667Y-44285000D01*
X50300339Y-44325548D01*
X50280000Y-44337290D01*
X50280000Y-43307518D01*
X50279999Y-43307518D01*
X50209194Y-43318733D01*
X50004100Y-43385372D01*
X49811963Y-43483271D01*
X49637503Y-43610025D01*
X49637502Y-43610025D01*
X49485025Y-43762502D01*
X49485025Y-43762503D01*
X49358271Y-43936963D01*
X49260372Y-44129098D01*
X49193734Y-44334190D01*
X49160000Y-44547179D01*
X44877796Y-44547179D01*
X44870316Y-44514409D01*
X44781267Y-44259921D01*
X44664284Y-44017003D01*
X44520838Y-43788711D01*
X44352734Y-43577915D01*
X44162085Y-43387266D01*
X43951289Y-43219162D01*
X43722997Y-43075716D01*
X43722994Y-43075714D01*
X43480082Y-42958734D01*
X43225602Y-42869687D01*
X43225594Y-42869684D01*
X43028446Y-42824687D01*
X42962732Y-42809688D01*
X42962728Y-42809687D01*
X42962719Y-42809686D01*
X42694813Y-42779500D01*
X42694809Y-42779500D01*
X42425191Y-42779500D01*
X42425186Y-42779500D01*
X42157280Y-42809686D01*
X42157268Y-42809688D01*
X41894405Y-42869684D01*
X41894397Y-42869687D01*
X41639917Y-42958734D01*
X41397005Y-43075714D01*
X41168712Y-43219161D01*
X40957915Y-43387265D01*
X40767265Y-43577915D01*
X40599161Y-43788712D01*
X40455714Y-44017005D01*
X40338734Y-44259917D01*
X40249687Y-44514397D01*
X40249684Y-44514405D01*
X40189688Y-44777268D01*
X40189686Y-44777280D01*
X40159500Y-45045186D01*
X39100000Y-45045186D01*
X39100000Y-37259998D01*
X51764532Y-37259998D01*
X51764532Y-37260001D01*
X51784364Y-37486686D01*
X51784366Y-37486697D01*
X51843258Y-37706488D01*
X51843261Y-37706497D01*
X51939431Y-37912732D01*
X51939432Y-37912734D01*
X52069954Y-38099141D01*
X52230858Y-38260045D01*
X52230861Y-38260047D01*
X52417266Y-38390568D01*
X52623504Y-38486739D01*
X52843308Y-38545635D01*
X53005230Y-38559801D01*
X53069998Y-38565468D01*
X53070000Y-38565468D01*
X53070002Y-38565468D01*
X53126673Y-38560509D01*
X53296692Y-38545635D01*
X53516496Y-38486739D01*
X53722734Y-38390568D01*
X53909139Y-38260047D01*
X54070047Y-38099139D01*
X54200568Y-37912734D01*
X54296739Y-37706496D01*
X54355635Y-37486692D01*
X54375468Y-37260000D01*
X54355635Y-37033308D01*
X54296739Y-36813504D01*
X54200568Y-36607266D01*
X54070047Y-36420861D01*
X54070045Y-36420858D01*
X53909141Y-36259954D01*
X53722734Y-36129432D01*
X53722732Y-36129431D01*
X53516497Y-36033261D01*
X53516488Y-36033258D01*
X53296697Y-35974366D01*
X53296693Y-35974365D01*
X53296692Y-35974365D01*
X53296691Y-35974364D01*
X53296686Y-35974364D01*
X53070002Y-35954532D01*
X53069998Y-35954532D01*
X52843313Y-35974364D01*
X52843302Y-35974366D01*
X52623511Y-36033258D01*
X52623502Y-36033261D01*
X52417267Y-36129431D01*
X52417265Y-36129432D01*
X52230858Y-36259954D01*
X52069954Y-36420858D01*
X51939432Y-36607265D01*
X51939431Y-36607267D01*
X51843261Y-36813502D01*
X51843258Y-36813511D01*
X51784366Y-37033302D01*
X51784364Y-37033313D01*
X51764532Y-37259998D01*
X39100000Y-37259998D01*
X39100000Y-33331902D01*
X40834500Y-33331902D01*
X40834500Y-33568097D01*
X40871446Y-33801368D01*
X40928431Y-33976747D01*
X40934500Y-34015065D01*
X40934500Y-34397869D01*
X40934501Y-34397876D01*
X40940908Y-34457483D01*
X40991202Y-34592328D01*
X40991206Y-34592335D01*
X41077452Y-34707544D01*
X41077455Y-34707547D01*
X41192664Y-34793793D01*
X41192671Y-34793797D01*
X41237618Y-34810561D01*
X41327517Y-34844091D01*
X41387127Y-34850500D01*
X41769933Y-34850499D01*
X41808251Y-34856568D01*
X41859661Y-34873272D01*
X41983632Y-34913553D01*
X42071110Y-34927408D01*
X42216903Y-34950500D01*
X42216908Y-34950500D01*
X46838097Y-34950500D01*
X47071368Y-34913553D01*
X47295992Y-34840568D01*
X47506434Y-34733343D01*
X47697510Y-34594517D01*
X54214517Y-28077510D01*
X54353343Y-27886434D01*
X54460568Y-27675992D01*
X54533553Y-27451369D01*
X54549973Y-27347690D01*
X54570500Y-27218097D01*
X54570500Y-26981902D01*
X54533553Y-26748631D01*
X54460566Y-26524003D01*
X54353342Y-26313566D01*
X54214517Y-26122490D01*
X54047510Y-25955483D01*
X53856433Y-25816657D01*
X53820902Y-25798553D01*
X53645996Y-25709433D01*
X53421368Y-25636446D01*
X53188097Y-25599500D01*
X53188092Y-25599500D01*
X52951908Y-25599500D01*
X52951903Y-25599500D01*
X52718634Y-25636446D01*
X52494005Y-25709433D01*
X52283565Y-25816657D01*
X52092488Y-25955484D01*
X52092487Y-25955485D01*
X46134792Y-31913181D01*
X46073469Y-31946666D01*
X46047111Y-31949500D01*
X43557301Y-31949500D01*
X43490262Y-31929815D01*
X43444507Y-31877011D01*
X43434563Y-31807853D01*
X43453492Y-31757679D01*
X43570483Y-31578609D01*
X43663682Y-31366135D01*
X43720638Y-31141218D01*
X43739798Y-30910005D01*
X43739798Y-30909994D01*
X43720638Y-30678781D01*
X43663682Y-30453864D01*
X43570483Y-30241390D01*
X43486186Y-30112364D01*
X42777138Y-30821414D01*
X42754333Y-30736306D01*
X42695090Y-30633694D01*
X42611306Y-30549910D01*
X42508694Y-30490667D01*
X42423584Y-30467861D01*
X43133797Y-29757647D01*
X43133797Y-29757645D01*
X43103360Y-29733955D01*
X43103354Y-29733951D01*
X42899302Y-29623523D01*
X42899293Y-29623520D01*
X42679860Y-29548188D01*
X42451007Y-29510000D01*
X42218993Y-29510000D01*
X41990139Y-29548188D01*
X41770706Y-29623520D01*
X41770697Y-29623523D01*
X41566650Y-29733949D01*
X41536200Y-29757647D01*
X42246415Y-30467861D01*
X42161306Y-30490667D01*
X42058694Y-30549910D01*
X41974910Y-30633694D01*
X41915667Y-30736306D01*
X41892861Y-30821414D01*
X41183812Y-30112365D01*
X41099516Y-30241391D01*
X41099514Y-30241395D01*
X41006317Y-30453864D01*
X40949361Y-30678781D01*
X40930202Y-30909994D01*
X40930202Y-30910005D01*
X40949361Y-31141218D01*
X41006317Y-31366135D01*
X41099516Y-31578609D01*
X41183811Y-31707633D01*
X41892861Y-30998584D01*
X41915667Y-31083694D01*
X41974910Y-31186306D01*
X42058694Y-31270090D01*
X42161306Y-31329333D01*
X42246415Y-31352138D01*
X41585370Y-32013181D01*
X41524047Y-32046666D01*
X41497690Y-32049500D01*
X41387130Y-32049500D01*
X41387123Y-32049501D01*
X41327516Y-32055908D01*
X41192671Y-32106202D01*
X41192664Y-32106206D01*
X41077455Y-32192452D01*
X41077452Y-32192455D01*
X40991206Y-32307664D01*
X40991202Y-32307671D01*
X40940908Y-32442517D01*
X40934501Y-32502116D01*
X40934500Y-32502135D01*
X40934500Y-32884934D01*
X40928431Y-32923252D01*
X40871447Y-33098630D01*
X40834500Y-33331902D01*
X39100000Y-33331902D01*
X39100000Y-32180000D01*
X30334000Y-32180000D01*
X30266961Y-32160315D01*
X30221206Y-32107511D01*
X30210000Y-32056000D01*
X30210000Y-25444995D01*
X30565093Y-25444995D01*
X30565093Y-25445004D01*
X30584692Y-25706545D01*
X30584693Y-25706550D01*
X30643058Y-25962270D01*
X30738883Y-26206426D01*
X30738882Y-26206426D01*
X30870029Y-26433576D01*
X30917873Y-26493572D01*
X31604152Y-25807292D01*
X31611049Y-25823942D01*
X31698599Y-25954970D01*
X31810030Y-26066401D01*
X31941058Y-26153951D01*
X31957705Y-26160846D01*
X31270830Y-26847720D01*
X31442546Y-26964793D01*
X31442550Y-26964795D01*
X31678854Y-27078594D01*
X31678858Y-27078595D01*
X31929494Y-27155907D01*
X31929500Y-27155909D01*
X32188848Y-27194999D01*
X32188857Y-27195000D01*
X32451143Y-27195000D01*
X32451151Y-27194999D01*
X32710499Y-27155909D01*
X32710505Y-27155907D01*
X32961143Y-27078595D01*
X33197445Y-26964798D01*
X33197447Y-26964797D01*
X33369168Y-26847720D01*
X32682294Y-26160846D01*
X32698942Y-26153951D01*
X32829970Y-26066401D01*
X32941401Y-25954970D01*
X33028951Y-25823942D01*
X33035846Y-25807293D01*
X33722125Y-26493572D01*
X33769971Y-26433573D01*
X33901113Y-26206431D01*
X33904570Y-26197625D01*
X33947385Y-26142410D01*
X34013254Y-26119108D01*
X34081266Y-26135116D01*
X34129825Y-26185353D01*
X34135430Y-26197625D01*
X34138886Y-26206431D01*
X34270029Y-26433576D01*
X34317873Y-26493572D01*
X35004152Y-25807292D01*
X35011049Y-25823942D01*
X35098599Y-25954970D01*
X35210030Y-26066401D01*
X35341058Y-26153951D01*
X35357705Y-26160846D01*
X34670830Y-26847720D01*
X34842546Y-26964793D01*
X34842550Y-26964795D01*
X35078854Y-27078594D01*
X35078858Y-27078595D01*
X35329494Y-27155907D01*
X35329500Y-27155909D01*
X35588848Y-27194999D01*
X35588857Y-27195000D01*
X35851143Y-27195000D01*
X35851151Y-27194999D01*
X36110499Y-27155909D01*
X36110505Y-27155907D01*
X36361143Y-27078595D01*
X36597445Y-26964798D01*
X36597447Y-26964797D01*
X36769168Y-26847720D01*
X36082294Y-26160846D01*
X36098942Y-26153951D01*
X36229970Y-26066401D01*
X36341401Y-25954970D01*
X36428951Y-25823942D01*
X36435846Y-25807293D01*
X37122125Y-26493572D01*
X37169971Y-26433573D01*
X37301116Y-26206426D01*
X37396941Y-25962270D01*
X37455306Y-25706550D01*
X37455307Y-25706545D01*
X37474907Y-25445004D01*
X37474907Y-25444995D01*
X37455307Y-25183454D01*
X37455306Y-25183449D01*
X37396941Y-24927729D01*
X37301116Y-24683573D01*
X37301117Y-24683573D01*
X37169972Y-24456426D01*
X37122124Y-24396427D01*
X36435846Y-25082705D01*
X36428951Y-25066058D01*
X36341401Y-24935030D01*
X36229970Y-24823599D01*
X36098942Y-24736049D01*
X36082293Y-24729152D01*
X36769168Y-24042278D01*
X36597454Y-23925206D01*
X36597445Y-23925201D01*
X36361142Y-23811404D01*
X36361144Y-23811404D01*
X36110505Y-23734092D01*
X36110499Y-23734090D01*
X35851151Y-23695000D01*
X35588848Y-23695000D01*
X35329500Y-23734090D01*
X35329494Y-23734092D01*
X35078858Y-23811404D01*
X35078854Y-23811405D01*
X34842547Y-23925205D01*
X34842539Y-23925210D01*
X34670830Y-24042277D01*
X35357706Y-24729152D01*
X35341058Y-24736049D01*
X35210030Y-24823599D01*
X35098599Y-24935030D01*
X35011049Y-25066058D01*
X35004153Y-25082706D01*
X34317874Y-24396427D01*
X34270028Y-24456425D01*
X34138883Y-24683573D01*
X34135428Y-24692377D01*
X34092612Y-24747591D01*
X34026742Y-24770892D01*
X33958732Y-24754881D01*
X33910173Y-24704643D01*
X33904572Y-24692377D01*
X33901116Y-24683573D01*
X33901117Y-24683573D01*
X33769972Y-24456426D01*
X33722124Y-24396427D01*
X33035846Y-25082705D01*
X33028951Y-25066058D01*
X32941401Y-24935030D01*
X32829970Y-24823599D01*
X32698942Y-24736049D01*
X32682293Y-24729152D01*
X33369168Y-24042278D01*
X33197454Y-23925206D01*
X33197445Y-23925201D01*
X32961142Y-23811404D01*
X32961144Y-23811404D01*
X32710505Y-23734092D01*
X32710499Y-23734090D01*
X32451151Y-23695000D01*
X32188848Y-23695000D01*
X31929500Y-23734090D01*
X31929494Y-23734092D01*
X31678858Y-23811404D01*
X31678854Y-23811405D01*
X31442547Y-23925205D01*
X31442539Y-23925210D01*
X31270830Y-24042277D01*
X31957706Y-24729152D01*
X31941058Y-24736049D01*
X31810030Y-24823599D01*
X31698599Y-24935030D01*
X31611049Y-25066058D01*
X31604153Y-25082706D01*
X30917874Y-24396427D01*
X30870028Y-24456425D01*
X30738883Y-24683573D01*
X30643058Y-24927729D01*
X30584693Y-25183449D01*
X30584692Y-25183454D01*
X30565093Y-25444995D01*
X30210000Y-25444995D01*
X30210000Y-19045186D01*
X40159500Y-19045186D01*
X40159500Y-19314813D01*
X40189686Y-19582719D01*
X40189688Y-19582731D01*
X40249684Y-19845594D01*
X40249687Y-19845602D01*
X40338734Y-20100082D01*
X40455714Y-20342994D01*
X40475836Y-20375018D01*
X40599162Y-20571289D01*
X40767266Y-20782085D01*
X40957915Y-20972734D01*
X41168711Y-21140838D01*
X41397003Y-21284284D01*
X41639921Y-21401267D01*
X41831049Y-21468145D01*
X41894397Y-21490312D01*
X41894405Y-21490315D01*
X41894408Y-21490315D01*
X41894409Y-21490316D01*
X42157268Y-21550312D01*
X42425187Y-21580499D01*
X42425188Y-21580500D01*
X42425191Y-21580500D01*
X42694812Y-21580500D01*
X42694812Y-21580499D01*
X42962732Y-21550312D01*
X43225591Y-21490316D01*
X43480079Y-21401267D01*
X43722997Y-21284284D01*
X43951289Y-21140838D01*
X44162085Y-20972734D01*
X44352734Y-20782085D01*
X44520838Y-20571289D01*
X44664284Y-20342997D01*
X44781267Y-20100079D01*
X44870316Y-19845591D01*
X44930312Y-19582732D01*
X44960500Y-19314809D01*
X44960500Y-19045191D01*
X44930312Y-18777268D01*
X44886424Y-18584983D01*
X49159500Y-18584983D01*
X49159500Y-20375001D01*
X49159501Y-20375018D01*
X49170000Y-20477796D01*
X49170001Y-20477799D01*
X49207774Y-20591788D01*
X49225186Y-20644334D01*
X49317288Y-20793656D01*
X49441344Y-20917712D01*
X49590666Y-21009814D01*
X49757203Y-21064999D01*
X49859991Y-21075500D01*
X51200008Y-21075499D01*
X51302797Y-21064999D01*
X51469334Y-21009814D01*
X51618656Y-20917712D01*
X51742712Y-20793656D01*
X51834814Y-20644334D01*
X51834817Y-20644323D01*
X51835353Y-20643177D01*
X51835934Y-20642516D01*
X51838605Y-20638187D01*
X51839344Y-20638643D01*
X51881521Y-20590734D01*
X51948713Y-20571577D01*
X52015596Y-20591788D01*
X52035420Y-20607892D01*
X52177502Y-20749974D01*
X52351963Y-20876728D01*
X52544098Y-20974627D01*
X52749190Y-21041266D01*
X52820000Y-21052481D01*
X52820000Y-20022709D01*
X52840339Y-20034452D01*
X52991667Y-20075000D01*
X53148333Y-20075000D01*
X53299661Y-20034452D01*
X53320000Y-20022709D01*
X53320000Y-21052480D01*
X53390809Y-21041266D01*
X53595901Y-20974627D01*
X53788036Y-20876728D01*
X53962496Y-20749974D01*
X53962497Y-20749974D01*
X54114974Y-20597497D01*
X54114974Y-20597496D01*
X54241728Y-20423036D01*
X54339627Y-20230901D01*
X54406265Y-20025809D01*
X54440000Y-19812820D01*
X54440000Y-19730000D01*
X53612709Y-19730000D01*
X53624452Y-19709661D01*
X53665000Y-19558333D01*
X53665000Y-19401667D01*
X53624452Y-19250339D01*
X53612709Y-19230000D01*
X54440000Y-19230000D01*
X54440000Y-19147179D01*
X54406265Y-18934190D01*
X54339627Y-18729098D01*
X54266196Y-18584983D01*
X56779500Y-18584983D01*
X56779500Y-20375001D01*
X56779501Y-20375018D01*
X56790000Y-20477796D01*
X56790001Y-20477799D01*
X56827774Y-20591788D01*
X56845186Y-20644334D01*
X56937288Y-20793656D01*
X57061344Y-20917712D01*
X57210666Y-21009814D01*
X57377203Y-21064999D01*
X57479991Y-21075500D01*
X58820008Y-21075499D01*
X58922797Y-21064999D01*
X59089334Y-21009814D01*
X59238656Y-20917712D01*
X59362712Y-20793656D01*
X59454814Y-20644334D01*
X59454817Y-20644323D01*
X59455353Y-20643177D01*
X59455934Y-20642516D01*
X59458605Y-20638187D01*
X59459344Y-20638643D01*
X59501521Y-20590734D01*
X59568713Y-20571577D01*
X59635596Y-20591788D01*
X59655420Y-20607892D01*
X59797502Y-20749974D01*
X59971963Y-20876728D01*
X60164098Y-20974627D01*
X60369190Y-21041266D01*
X60440000Y-21052481D01*
X60440000Y-20022709D01*
X60460339Y-20034452D01*
X60611667Y-20075000D01*
X60768333Y-20075000D01*
X60919661Y-20034452D01*
X60940000Y-20022709D01*
X60940000Y-21052480D01*
X61010809Y-21041266D01*
X61215901Y-20974627D01*
X61408036Y-20876728D01*
X61582496Y-20749974D01*
X61582497Y-20749974D01*
X61734974Y-20597497D01*
X61734974Y-20597496D01*
X61861728Y-20423036D01*
X61959627Y-20230901D01*
X62026265Y-20025809D01*
X62060000Y-19812820D01*
X62060000Y-19730000D01*
X61232709Y-19730000D01*
X61244452Y-19709661D01*
X61285000Y-19558333D01*
X61285000Y-19401667D01*
X61244452Y-19250339D01*
X61232709Y-19230000D01*
X62060000Y-19230000D01*
X62060000Y-19147179D01*
X62026265Y-18934190D01*
X61959627Y-18729098D01*
X61861728Y-18536963D01*
X61734974Y-18362503D01*
X61734974Y-18362502D01*
X61582497Y-18210025D01*
X61408036Y-18083271D01*
X61215899Y-17985372D01*
X61010805Y-17918733D01*
X60940000Y-17907518D01*
X60940000Y-18937290D01*
X60919661Y-18925548D01*
X60768333Y-18885000D01*
X60611667Y-18885000D01*
X60460339Y-18925548D01*
X60440000Y-18937290D01*
X60440000Y-17907518D01*
X60439999Y-17907518D01*
X60369194Y-17918733D01*
X60164100Y-17985372D01*
X59971963Y-18083271D01*
X59797506Y-18210022D01*
X59655420Y-18352108D01*
X59594097Y-18385592D01*
X59524405Y-18380608D01*
X59468472Y-18338736D01*
X59455356Y-18316828D01*
X59454816Y-18315670D01*
X59420430Y-18259921D01*
X59362712Y-18166344D01*
X59238656Y-18042288D01*
X59089334Y-17950186D01*
X58922797Y-17895001D01*
X58922795Y-17895000D01*
X58820010Y-17884500D01*
X57479998Y-17884500D01*
X57479981Y-17884501D01*
X57377203Y-17895000D01*
X57377200Y-17895001D01*
X57210668Y-17950185D01*
X57210663Y-17950187D01*
X57061342Y-18042289D01*
X56937289Y-18166342D01*
X56845187Y-18315663D01*
X56845185Y-18315668D01*
X56844801Y-18316828D01*
X56790001Y-18482203D01*
X56790001Y-18482204D01*
X56790000Y-18482204D01*
X56779500Y-18584983D01*
X54266196Y-18584983D01*
X54241728Y-18536963D01*
X54114974Y-18362503D01*
X54114974Y-18362502D01*
X53962497Y-18210025D01*
X53788036Y-18083271D01*
X53595899Y-17985372D01*
X53390805Y-17918733D01*
X53320000Y-17907518D01*
X53320000Y-18937290D01*
X53299661Y-18925548D01*
X53148333Y-18885000D01*
X52991667Y-18885000D01*
X52840339Y-18925548D01*
X52820000Y-18937290D01*
X52820000Y-17907518D01*
X52819999Y-17907518D01*
X52749194Y-17918733D01*
X52544100Y-17985372D01*
X52351963Y-18083271D01*
X52177506Y-18210022D01*
X52035420Y-18352108D01*
X51974097Y-18385592D01*
X51904405Y-18380608D01*
X51848472Y-18338736D01*
X51835356Y-18316828D01*
X51834816Y-18315670D01*
X51800430Y-18259921D01*
X51742712Y-18166344D01*
X51618656Y-18042288D01*
X51469334Y-17950186D01*
X51302797Y-17895001D01*
X51302795Y-17895000D01*
X51200010Y-17884500D01*
X49859998Y-17884500D01*
X49859981Y-17884501D01*
X49757203Y-17895000D01*
X49757200Y-17895001D01*
X49590668Y-17950185D01*
X49590663Y-17950187D01*
X49441342Y-18042289D01*
X49317289Y-18166342D01*
X49225187Y-18315663D01*
X49225185Y-18315668D01*
X49224801Y-18316828D01*
X49170001Y-18482203D01*
X49170001Y-18482204D01*
X49170000Y-18482204D01*
X49159500Y-18584983D01*
X44886424Y-18584983D01*
X44870316Y-18514409D01*
X44781267Y-18259921D01*
X44664284Y-18017003D01*
X44520838Y-17788711D01*
X44352734Y-17577915D01*
X44162085Y-17387266D01*
X43951289Y-17219162D01*
X43722997Y-17075716D01*
X43722994Y-17075714D01*
X43480082Y-16958734D01*
X43225602Y-16869687D01*
X43225594Y-16869684D01*
X43028446Y-16824687D01*
X42962732Y-16809688D01*
X42962728Y-16809687D01*
X42962719Y-16809686D01*
X42694813Y-16779500D01*
X42694809Y-16779500D01*
X42425191Y-16779500D01*
X42425186Y-16779500D01*
X42157280Y-16809686D01*
X42157268Y-16809688D01*
X41894405Y-16869684D01*
X41894397Y-16869687D01*
X41639917Y-16958734D01*
X41397005Y-17075714D01*
X41168712Y-17219161D01*
X40957915Y-17387265D01*
X40767265Y-17577915D01*
X40599161Y-17788712D01*
X40455714Y-18017005D01*
X40338734Y-18259917D01*
X40249687Y-18514397D01*
X40249684Y-18514405D01*
X40189688Y-18777268D01*
X40189686Y-18777280D01*
X40159500Y-19045186D01*
X30210000Y-19045186D01*
X30210000Y-14804500D01*
X30229685Y-14737461D01*
X30282489Y-14691706D01*
X30334000Y-14680500D01*
X63935500Y-14680500D01*
X64002539Y-14700185D01*
G37*
%TD.AperFunction*%
%TD*%
M02*
