%TF.GenerationSoftware,KiCad,Pcbnew,8.0.8*%
%TF.CreationDate,2025-04-29T10:47:02+02:00*%
%TF.ProjectId,stern-aux-power-distribution,73746572-6e2d-4617-9578-2d706f776572,rev?*%
%TF.SameCoordinates,Original*%
%TF.FileFunction,Legend,Top*%
%TF.FilePolarity,Positive*%
%FSLAX46Y46*%
G04 Gerber Fmt 4.6, Leading zero omitted, Abs format (unit mm)*
G04 Created by KiCad (PCBNEW 8.0.8) date 2025-04-29 10:47:02*
%MOMM*%
%LPD*%
G01*
G04 APERTURE LIST*
%ADD10C,0.200000*%
%ADD11C,0.300000*%
%ADD12C,0.150000*%
%ADD13C,0.120000*%
G04 APERTURE END LIST*
D10*
X26020000Y-17180000D02*
X26020000Y-19680000D01*
X18020000Y-17180000D02*
X18020000Y-19680000D01*
X20020000Y-17180000D02*
X18020000Y-17180000D01*
X26020000Y-17180000D02*
X24020000Y-17180000D01*
X48020000Y-24380000D02*
X40020000Y-24380000D01*
X48020000Y-39780000D02*
X40020000Y-39780000D01*
X40020000Y-39780000D02*
X40020000Y-24380000D01*
X60020000Y-29680000D02*
X60020000Y-23680000D01*
X60020000Y-40680000D02*
X60020000Y-34680000D01*
X49520000Y-40680000D02*
X60020000Y-40680000D01*
X49520000Y-23680000D02*
X60020000Y-23680000D01*
D11*
X57936666Y-30820947D02*
X58412857Y-30820947D01*
X58412857Y-30820947D02*
X58650952Y-30939995D01*
X58650952Y-30939995D02*
X58889047Y-31178090D01*
X58889047Y-31178090D02*
X59008095Y-31654280D01*
X59008095Y-31654280D02*
X59008095Y-32487614D01*
X59008095Y-32487614D02*
X58889047Y-32963804D01*
X58889047Y-32963804D02*
X58650952Y-33201900D01*
X58650952Y-33201900D02*
X58412857Y-33320947D01*
X58412857Y-33320947D02*
X57936666Y-33320947D01*
X57936666Y-33320947D02*
X57698571Y-33201900D01*
X57698571Y-33201900D02*
X57460476Y-32963804D01*
X57460476Y-32963804D02*
X57341428Y-32487614D01*
X57341428Y-32487614D02*
X57341428Y-31654280D01*
X57341428Y-31654280D02*
X57460476Y-31178090D01*
X57460476Y-31178090D02*
X57698571Y-30939995D01*
X57698571Y-30939995D02*
X57936666Y-30820947D01*
X61150952Y-31654280D02*
X61150952Y-33320947D01*
X60079524Y-31654280D02*
X60079524Y-32963804D01*
X60079524Y-32963804D02*
X60198571Y-33201900D01*
X60198571Y-33201900D02*
X60436666Y-33320947D01*
X60436666Y-33320947D02*
X60793809Y-33320947D01*
X60793809Y-33320947D02*
X61031905Y-33201900D01*
X61031905Y-33201900D02*
X61150952Y-33082852D01*
X61984286Y-31654280D02*
X62936667Y-31654280D01*
X62341429Y-30820947D02*
X62341429Y-32963804D01*
X62341429Y-32963804D02*
X62460476Y-33201900D01*
X62460476Y-33201900D02*
X62698571Y-33320947D01*
X62698571Y-33320947D02*
X62936667Y-33320947D01*
X20889048Y-17858447D02*
X20889048Y-15358447D01*
X22079524Y-16191780D02*
X22079524Y-17858447D01*
X22079524Y-16429876D02*
X22198571Y-16310828D01*
X22198571Y-16310828D02*
X22436666Y-16191780D01*
X22436666Y-16191780D02*
X22793809Y-16191780D01*
X22793809Y-16191780D02*
X23031905Y-16310828D01*
X23031905Y-16310828D02*
X23150952Y-16548923D01*
X23150952Y-16548923D02*
X23150952Y-17858447D01*
G36*
X46682144Y-32922856D02*
G01*
X46424334Y-32922856D01*
X46262631Y-32842004D01*
X46181780Y-32680302D01*
X46181780Y-32274933D01*
X46262631Y-32113230D01*
X46424333Y-32032380D01*
X46504049Y-32032380D01*
X46682144Y-32922856D01*
G37*
G36*
X47264616Y-27613061D02*
G01*
X47456121Y-27804567D01*
X47548447Y-27989217D01*
X47548447Y-28394589D01*
X47456121Y-28579239D01*
X47264616Y-28770745D01*
X46846650Y-28875237D01*
X46050245Y-28875237D01*
X45632278Y-28770745D01*
X45440772Y-28579239D01*
X45348447Y-28394588D01*
X45348447Y-27989218D01*
X45440772Y-27804567D01*
X45632278Y-27613061D01*
X46050245Y-27508570D01*
X46846650Y-27508570D01*
X47264616Y-27613061D01*
G37*
G36*
X48126225Y-39810158D02*
G01*
X44770669Y-39810158D01*
X44770669Y-38191904D01*
X45048447Y-38191904D01*
X45048447Y-39382380D01*
X45051329Y-39411644D01*
X45073727Y-39465716D01*
X45115111Y-39507100D01*
X45169183Y-39529498D01*
X45198447Y-39532380D01*
X47698447Y-39532380D01*
X47727711Y-39529498D01*
X47781783Y-39507100D01*
X47823167Y-39465716D01*
X47845565Y-39411644D01*
X47845565Y-39353116D01*
X47823167Y-39299044D01*
X47781783Y-39257660D01*
X47727711Y-39235262D01*
X47698447Y-39232380D01*
X46538923Y-39232380D01*
X46538923Y-38549047D01*
X46536041Y-38519783D01*
X46513643Y-38465711D01*
X46472259Y-38424327D01*
X46418187Y-38401929D01*
X46359659Y-38401929D01*
X46305587Y-38424327D01*
X46264203Y-38465711D01*
X46241805Y-38519783D01*
X46238923Y-38549047D01*
X46238923Y-39232380D01*
X45348447Y-39232380D01*
X45348447Y-38191904D01*
X45345565Y-38162640D01*
X45323167Y-38108568D01*
X45281783Y-38067184D01*
X45227711Y-38044786D01*
X45169183Y-38044786D01*
X45115111Y-38067184D01*
X45073727Y-38108568D01*
X45051329Y-38162640D01*
X45048447Y-38191904D01*
X44770669Y-38191904D01*
X44770669Y-36138831D01*
X45884662Y-36138831D01*
X45884662Y-36197359D01*
X45907060Y-36251431D01*
X45948444Y-36292815D01*
X46002516Y-36315213D01*
X46031780Y-36318095D01*
X47398220Y-36318095D01*
X47456121Y-36375996D01*
X47548447Y-36560647D01*
X47548447Y-36846971D01*
X47467596Y-37008672D01*
X47305894Y-37089523D01*
X46031780Y-37089523D01*
X46002516Y-37092405D01*
X45948444Y-37114803D01*
X45907060Y-37156187D01*
X45884662Y-37210259D01*
X45884662Y-37268787D01*
X45907060Y-37322859D01*
X45948444Y-37364243D01*
X46002516Y-37386641D01*
X46031780Y-37389523D01*
X47341304Y-37389523D01*
X47370568Y-37386641D01*
X47375546Y-37384578D01*
X47380922Y-37384197D01*
X47408386Y-37373687D01*
X47646482Y-37254640D01*
X47651375Y-37251559D01*
X47653684Y-37250790D01*
X47656558Y-37248296D01*
X47671367Y-37238975D01*
X47683690Y-37224766D01*
X47697899Y-37212443D01*
X47707220Y-37197634D01*
X47709714Y-37194760D01*
X47710483Y-37192451D01*
X47713564Y-37187558D01*
X47832611Y-36949463D01*
X47843121Y-36921999D01*
X47843502Y-36916623D01*
X47845565Y-36911645D01*
X47848447Y-36882381D01*
X47848447Y-36525238D01*
X47845565Y-36495974D01*
X47843502Y-36490995D01*
X47843121Y-36485620D01*
X47832611Y-36458156D01*
X47755404Y-36303741D01*
X47781783Y-36292815D01*
X47823167Y-36251431D01*
X47845565Y-36197359D01*
X47845565Y-36138831D01*
X47823167Y-36084759D01*
X47781783Y-36043375D01*
X47727711Y-36020977D01*
X47698447Y-36018095D01*
X46031780Y-36018095D01*
X46002516Y-36020977D01*
X45948444Y-36043375D01*
X45907060Y-36084759D01*
X45884662Y-36138831D01*
X44770669Y-36138831D01*
X44770669Y-34382380D01*
X45881780Y-34382380D01*
X45881780Y-34739523D01*
X45884662Y-34768787D01*
X45886723Y-34773764D01*
X45887106Y-34779142D01*
X45897616Y-34806605D01*
X46016664Y-35044701D01*
X46019743Y-35049592D01*
X46020513Y-35051902D01*
X46023007Y-35054778D01*
X46032329Y-35069586D01*
X46046537Y-35081908D01*
X46058860Y-35096117D01*
X46073665Y-35105436D01*
X46076544Y-35107933D01*
X46078855Y-35108703D01*
X46083746Y-35111782D01*
X46321841Y-35230830D01*
X46349305Y-35241340D01*
X46354680Y-35241721D01*
X46359659Y-35243784D01*
X46388923Y-35246666D01*
X46507971Y-35246666D01*
X46537235Y-35243784D01*
X46542212Y-35241722D01*
X46547590Y-35241340D01*
X46575053Y-35230830D01*
X46813149Y-35111782D01*
X46818040Y-35108702D01*
X46820350Y-35107933D01*
X46823226Y-35105438D01*
X46838034Y-35096117D01*
X46850356Y-35081908D01*
X46864565Y-35069586D01*
X46873884Y-35054780D01*
X46876381Y-35051902D01*
X46877151Y-35049590D01*
X46880230Y-35044700D01*
X46999278Y-34806605D01*
X47009788Y-34779141D01*
X47010169Y-34773765D01*
X47012232Y-34768787D01*
X47015114Y-34739523D01*
X47015114Y-34417789D01*
X47095964Y-34256088D01*
X47257667Y-34175237D01*
X47305894Y-34175237D01*
X47467596Y-34256088D01*
X47548447Y-34417789D01*
X47548447Y-34823161D01*
X47445236Y-35029584D01*
X47434726Y-35057048D01*
X47430578Y-35115428D01*
X47449086Y-35170950D01*
X47487433Y-35215165D01*
X47539782Y-35241340D01*
X47598162Y-35245488D01*
X47653684Y-35226980D01*
X47697899Y-35188633D01*
X47713564Y-35163748D01*
X47832611Y-34925653D01*
X47843121Y-34898189D01*
X47843502Y-34892813D01*
X47845565Y-34887835D01*
X47848447Y-34858571D01*
X47848447Y-34382380D01*
X47845565Y-34353116D01*
X47843502Y-34348137D01*
X47843121Y-34342762D01*
X47832611Y-34315298D01*
X47713564Y-34077203D01*
X47710483Y-34072309D01*
X47709714Y-34070001D01*
X47707220Y-34067126D01*
X47697899Y-34052318D01*
X47683690Y-34039994D01*
X47671367Y-34025786D01*
X47656558Y-34016464D01*
X47653684Y-34013971D01*
X47651375Y-34013201D01*
X47646482Y-34010121D01*
X47408386Y-33891073D01*
X47380923Y-33880563D01*
X47375545Y-33880180D01*
X47370568Y-33878119D01*
X47341304Y-33875237D01*
X47222257Y-33875237D01*
X47192993Y-33878119D01*
X47188012Y-33880182D01*
X47182638Y-33880564D01*
X47155175Y-33891073D01*
X46917079Y-34010121D01*
X46912184Y-34013201D01*
X46909877Y-34013971D01*
X46907003Y-34016463D01*
X46892193Y-34025786D01*
X46879868Y-34039997D01*
X46865662Y-34052318D01*
X46856340Y-34067125D01*
X46853847Y-34070001D01*
X46853077Y-34072309D01*
X46849997Y-34077203D01*
X46730950Y-34315298D01*
X46720440Y-34342762D01*
X46720058Y-34348137D01*
X46717996Y-34353116D01*
X46715114Y-34382380D01*
X46715114Y-34704112D01*
X46634262Y-34865814D01*
X46472561Y-34946666D01*
X46424334Y-34946666D01*
X46262631Y-34865814D01*
X46181780Y-34704112D01*
X46181780Y-34417790D01*
X46284992Y-34211367D01*
X46295502Y-34183903D01*
X46299650Y-34125523D01*
X46281143Y-34070001D01*
X46242796Y-34025786D01*
X46190447Y-33999611D01*
X46132067Y-33995463D01*
X46076544Y-34013970D01*
X46032329Y-34052317D01*
X46016664Y-34077202D01*
X45897616Y-34315298D01*
X45887106Y-34342761D01*
X45886723Y-34348138D01*
X45884662Y-34353116D01*
X45881780Y-34382380D01*
X44770669Y-34382380D01*
X44770669Y-32239523D01*
X45881780Y-32239523D01*
X45881780Y-32715713D01*
X45884662Y-32744977D01*
X45886723Y-32749954D01*
X45887106Y-32755332D01*
X45897616Y-32782795D01*
X46016664Y-33020891D01*
X46019743Y-33025782D01*
X46020513Y-33028092D01*
X46023007Y-33030968D01*
X46032329Y-33045776D01*
X46046537Y-33058098D01*
X46058860Y-33072307D01*
X46073665Y-33081626D01*
X46076544Y-33084123D01*
X46078855Y-33084893D01*
X46083746Y-33087972D01*
X46321841Y-33207020D01*
X46349305Y-33217530D01*
X46354680Y-33217911D01*
X46359659Y-33219974D01*
X46388923Y-33222856D01*
X46865270Y-33222856D01*
X47341304Y-33222856D01*
X47370568Y-33219974D01*
X47375545Y-33217912D01*
X47380923Y-33217530D01*
X47408386Y-33207020D01*
X47646482Y-33087972D01*
X47651375Y-33084891D01*
X47653684Y-33084122D01*
X47656558Y-33081628D01*
X47671367Y-33072307D01*
X47683690Y-33058098D01*
X47697899Y-33045775D01*
X47707220Y-33030966D01*
X47709714Y-33028092D01*
X47710483Y-33025783D01*
X47713564Y-33020890D01*
X47832611Y-32782795D01*
X47843121Y-32755331D01*
X47843502Y-32749955D01*
X47845565Y-32744977D01*
X47848447Y-32715713D01*
X47848447Y-32239523D01*
X47845565Y-32210259D01*
X47843502Y-32205280D01*
X47843121Y-32199905D01*
X47832611Y-32172441D01*
X47713564Y-31934345D01*
X47697899Y-31909460D01*
X47653684Y-31871113D01*
X47598162Y-31852605D01*
X47539782Y-31856753D01*
X47487433Y-31882928D01*
X47449086Y-31927143D01*
X47430578Y-31982665D01*
X47434726Y-32041045D01*
X47445236Y-32068509D01*
X47548447Y-32274932D01*
X47548447Y-32680303D01*
X47467596Y-32842004D01*
X47305894Y-32922856D01*
X46988084Y-32922856D01*
X46774106Y-31852963D01*
X46765541Y-31824832D01*
X46757362Y-31812619D01*
X46751739Y-31799044D01*
X46741238Y-31788543D01*
X46732974Y-31776203D01*
X46720745Y-31768050D01*
X46710355Y-31757660D01*
X46696635Y-31751976D01*
X46684277Y-31743738D01*
X46669859Y-31740885D01*
X46656283Y-31735262D01*
X46627019Y-31732380D01*
X46388923Y-31732380D01*
X46359659Y-31735262D01*
X46354680Y-31737324D01*
X46349305Y-31737706D01*
X46321841Y-31748216D01*
X46083746Y-31867263D01*
X46078852Y-31870343D01*
X46076544Y-31871113D01*
X46073669Y-31873606D01*
X46058861Y-31882928D01*
X46046537Y-31897136D01*
X46032329Y-31909460D01*
X46023007Y-31924268D01*
X46020514Y-31927143D01*
X46019744Y-31929451D01*
X46016664Y-31934345D01*
X45897616Y-32172441D01*
X45887106Y-32199904D01*
X45886723Y-32205281D01*
X45884662Y-32210259D01*
X45881780Y-32239523D01*
X44770669Y-32239523D01*
X44770669Y-27953808D01*
X45048447Y-27953808D01*
X45048447Y-28429999D01*
X45051329Y-28459263D01*
X45053390Y-28464240D01*
X45053773Y-28469618D01*
X45064283Y-28497081D01*
X45183331Y-28735177D01*
X45191258Y-28747770D01*
X45192774Y-28751429D01*
X45196154Y-28755548D01*
X45198996Y-28760062D01*
X45201990Y-28762658D01*
X45211429Y-28774160D01*
X45449524Y-29012255D01*
X45472255Y-29030910D01*
X45482556Y-29035177D01*
X45491518Y-29041817D01*
X45519210Y-29051710D01*
X45995400Y-29170758D01*
X46000471Y-29171507D01*
X46002516Y-29172355D01*
X46013538Y-29173440D01*
X46024489Y-29175060D01*
X46026676Y-29174734D01*
X46031780Y-29175237D01*
X46865114Y-29175237D01*
X46870217Y-29174734D01*
X46872405Y-29175060D01*
X46883355Y-29173440D01*
X46894378Y-29172355D01*
X46896422Y-29171507D01*
X46901494Y-29170758D01*
X47377685Y-29051710D01*
X47405376Y-29041817D01*
X47414337Y-29035177D01*
X47424639Y-29030910D01*
X47447370Y-29012255D01*
X47685466Y-28774160D01*
X47694909Y-28762653D01*
X47697899Y-28760061D01*
X47700735Y-28755555D01*
X47704121Y-28751430D01*
X47705638Y-28747766D01*
X47713564Y-28735176D01*
X47832611Y-28497081D01*
X47843121Y-28469617D01*
X47843502Y-28464241D01*
X47845565Y-28459263D01*
X47848447Y-28429999D01*
X47848447Y-27953808D01*
X47845565Y-27924544D01*
X47843502Y-27919565D01*
X47843121Y-27914190D01*
X47832611Y-27886726D01*
X47713564Y-27648631D01*
X47705638Y-27636040D01*
X47704121Y-27632377D01*
X47700735Y-27628251D01*
X47697899Y-27623746D01*
X47694909Y-27621153D01*
X47685466Y-27609647D01*
X47447370Y-27371552D01*
X47424639Y-27352897D01*
X47414337Y-27348629D01*
X47405376Y-27341990D01*
X47377685Y-27332097D01*
X46901494Y-27213049D01*
X46896422Y-27212299D01*
X46894378Y-27211452D01*
X46883355Y-27210366D01*
X46872405Y-27208747D01*
X46870217Y-27209072D01*
X46865114Y-27208570D01*
X46031780Y-27208570D01*
X46026676Y-27209072D01*
X46024489Y-27208747D01*
X46013538Y-27210366D01*
X46002516Y-27211452D01*
X46000471Y-27212299D01*
X45995400Y-27213049D01*
X45519210Y-27332097D01*
X45491518Y-27341990D01*
X45482556Y-27348629D01*
X45472255Y-27352897D01*
X45449524Y-27371552D01*
X45211429Y-27609647D01*
X45201990Y-27621148D01*
X45198996Y-27623745D01*
X45196154Y-27628258D01*
X45192774Y-27632378D01*
X45191258Y-27636036D01*
X45183331Y-27648630D01*
X45064283Y-27886726D01*
X45053773Y-27914189D01*
X45053390Y-27919566D01*
X45051329Y-27924544D01*
X45048447Y-27953808D01*
X44770669Y-27953808D01*
X44770669Y-24829307D01*
X45051329Y-24829307D01*
X45051329Y-24887833D01*
X45073726Y-24941905D01*
X45092381Y-24964636D01*
X46264887Y-26137141D01*
X45198447Y-26137141D01*
X45169183Y-26140023D01*
X45115111Y-26162421D01*
X45073727Y-26203805D01*
X45051329Y-26257877D01*
X45051329Y-26316405D01*
X45073727Y-26370477D01*
X45115111Y-26411861D01*
X45169183Y-26434259D01*
X45198447Y-26437141D01*
X47698447Y-26437141D01*
X47727711Y-26434259D01*
X47781783Y-26411861D01*
X47823167Y-26370477D01*
X47845565Y-26316405D01*
X47845565Y-26257877D01*
X47823167Y-26203805D01*
X47781783Y-26162421D01*
X47727711Y-26140023D01*
X47698447Y-26137141D01*
X46689151Y-26137141D01*
X46498237Y-25946227D01*
X47788447Y-24978570D01*
X47810129Y-24958706D01*
X47839948Y-24908344D01*
X47848224Y-24850407D01*
X47833700Y-24793710D01*
X47798583Y-24746888D01*
X47748221Y-24717069D01*
X47690284Y-24708793D01*
X47633587Y-24723317D01*
X47608447Y-24738570D01*
X46283951Y-25731942D01*
X45304513Y-24752504D01*
X45281782Y-24733849D01*
X45227710Y-24711452D01*
X45169184Y-24711452D01*
X45115112Y-24733849D01*
X45073726Y-24775235D01*
X45051329Y-24829307D01*
X44770669Y-24829307D01*
X44770669Y-24431015D01*
X48126225Y-24431015D01*
X48126225Y-39810158D01*
G37*
X32234286Y-18596542D02*
X32353334Y-18477495D01*
X32353334Y-18477495D02*
X32591429Y-18358447D01*
X32591429Y-18358447D02*
X33186667Y-18358447D01*
X33186667Y-18358447D02*
X33424762Y-18477495D01*
X33424762Y-18477495D02*
X33543810Y-18596542D01*
X33543810Y-18596542D02*
X33662857Y-18834638D01*
X33662857Y-18834638D02*
X33662857Y-19072733D01*
X33662857Y-19072733D02*
X33543810Y-19429876D01*
X33543810Y-19429876D02*
X32115238Y-20858447D01*
X32115238Y-20858447D02*
X33662857Y-20858447D01*
X34615238Y-20144161D02*
X35805714Y-20144161D01*
X34377143Y-20858447D02*
X35210476Y-18358447D01*
X35210476Y-18358447D02*
X36043809Y-20858447D01*
D12*
X51466666Y-14814819D02*
X51466666Y-15529104D01*
X51466666Y-15529104D02*
X51419047Y-15671961D01*
X51419047Y-15671961D02*
X51323809Y-15767200D01*
X51323809Y-15767200D02*
X51180952Y-15814819D01*
X51180952Y-15814819D02*
X51085714Y-15814819D01*
X51895238Y-14910057D02*
X51942857Y-14862438D01*
X51942857Y-14862438D02*
X52038095Y-14814819D01*
X52038095Y-14814819D02*
X52276190Y-14814819D01*
X52276190Y-14814819D02*
X52371428Y-14862438D01*
X52371428Y-14862438D02*
X52419047Y-14910057D01*
X52419047Y-14910057D02*
X52466666Y-15005295D01*
X52466666Y-15005295D02*
X52466666Y-15100533D01*
X52466666Y-15100533D02*
X52419047Y-15243390D01*
X52419047Y-15243390D02*
X51847619Y-15814819D01*
X51847619Y-15814819D02*
X52466666Y-15814819D01*
X52858152Y-32870476D02*
X53524819Y-32870476D01*
X52477200Y-33108571D02*
X53191485Y-33346666D01*
X53191485Y-33346666D02*
X53191485Y-32727619D01*
X52524819Y-32441904D02*
X52524819Y-31775238D01*
X52524819Y-31775238D02*
X53524819Y-32203809D01*
X53524819Y-31394285D02*
X52524819Y-31394285D01*
X53143866Y-31299047D02*
X53524819Y-31013333D01*
X52858152Y-31013333D02*
X53239104Y-31394285D01*
X59086666Y-14814819D02*
X59086666Y-15529104D01*
X59086666Y-15529104D02*
X59039047Y-15671961D01*
X59039047Y-15671961D02*
X58943809Y-15767200D01*
X58943809Y-15767200D02*
X58800952Y-15814819D01*
X58800952Y-15814819D02*
X58705714Y-15814819D01*
X59467619Y-14814819D02*
X60086666Y-14814819D01*
X60086666Y-14814819D02*
X59753333Y-15195771D01*
X59753333Y-15195771D02*
X59896190Y-15195771D01*
X59896190Y-15195771D02*
X59991428Y-15243390D01*
X59991428Y-15243390D02*
X60039047Y-15291009D01*
X60039047Y-15291009D02*
X60086666Y-15386247D01*
X60086666Y-15386247D02*
X60086666Y-15624342D01*
X60086666Y-15624342D02*
X60039047Y-15719580D01*
X60039047Y-15719580D02*
X59991428Y-15767200D01*
X59991428Y-15767200D02*
X59896190Y-15814819D01*
X59896190Y-15814819D02*
X59610476Y-15814819D01*
X59610476Y-15814819D02*
X59515238Y-15767200D01*
X59515238Y-15767200D02*
X59467619Y-15719580D01*
X51466666Y-48454819D02*
X51466666Y-49169104D01*
X51466666Y-49169104D02*
X51419047Y-49311961D01*
X51419047Y-49311961D02*
X51323809Y-49407200D01*
X51323809Y-49407200D02*
X51180952Y-49454819D01*
X51180952Y-49454819D02*
X51085714Y-49454819D01*
X52371428Y-48788152D02*
X52371428Y-49454819D01*
X52133333Y-48407200D02*
X51895238Y-49121485D01*
X51895238Y-49121485D02*
X52514285Y-49121485D01*
X21621666Y-45604819D02*
X21621666Y-46319104D01*
X21621666Y-46319104D02*
X21574047Y-46461961D01*
X21574047Y-46461961D02*
X21478809Y-46557200D01*
X21478809Y-46557200D02*
X21335952Y-46604819D01*
X21335952Y-46604819D02*
X21240714Y-46604819D01*
X22621666Y-46604819D02*
X22050238Y-46604819D01*
X22335952Y-46604819D02*
X22335952Y-45604819D01*
X22335952Y-45604819D02*
X22240714Y-45747676D01*
X22240714Y-45747676D02*
X22145476Y-45842914D01*
X22145476Y-45842914D02*
X22050238Y-45890533D01*
X59086666Y-48454819D02*
X59086666Y-49169104D01*
X59086666Y-49169104D02*
X59039047Y-49311961D01*
X59039047Y-49311961D02*
X58943809Y-49407200D01*
X58943809Y-49407200D02*
X58800952Y-49454819D01*
X58800952Y-49454819D02*
X58705714Y-49454819D01*
X60039047Y-48454819D02*
X59562857Y-48454819D01*
X59562857Y-48454819D02*
X59515238Y-48931009D01*
X59515238Y-48931009D02*
X59562857Y-48883390D01*
X59562857Y-48883390D02*
X59658095Y-48835771D01*
X59658095Y-48835771D02*
X59896190Y-48835771D01*
X59896190Y-48835771D02*
X59991428Y-48883390D01*
X59991428Y-48883390D02*
X60039047Y-48931009D01*
X60039047Y-48931009D02*
X60086666Y-49026247D01*
X60086666Y-49026247D02*
X60086666Y-49264342D01*
X60086666Y-49264342D02*
X60039047Y-49359580D01*
X60039047Y-49359580D02*
X59991428Y-49407200D01*
X59991428Y-49407200D02*
X59896190Y-49454819D01*
X59896190Y-49454819D02*
X59658095Y-49454819D01*
X59658095Y-49454819D02*
X59562857Y-49407200D01*
X59562857Y-49407200D02*
X59515238Y-49359580D01*
D13*
%TO.C,J2*%
X48860000Y-17480000D02*
X48860000Y-21480000D01*
X49150000Y-16450000D02*
X49150000Y-22470000D01*
X49150000Y-22470000D02*
X54450000Y-22470000D01*
X49730000Y-16450000D02*
X49730000Y-17050000D01*
X49730000Y-17050000D02*
X51330000Y-17050000D01*
X50530000Y-21470000D02*
X50780000Y-20940000D01*
X50530000Y-21470000D02*
X53070000Y-21470000D01*
X50530000Y-22470000D02*
X50530000Y-21470000D01*
X50780000Y-20940000D02*
X52820000Y-20940000D01*
X50780000Y-22470000D02*
X50780000Y-21470000D01*
X51330000Y-17050000D02*
X51330000Y-16450000D01*
X52270000Y-16450000D02*
X52270000Y-17050000D01*
X52270000Y-17050000D02*
X53870000Y-17050000D01*
X52820000Y-20940000D02*
X53070000Y-21470000D01*
X52820000Y-22470000D02*
X52820000Y-21470000D01*
X53070000Y-21470000D02*
X53070000Y-22470000D01*
X53870000Y-17050000D02*
X53870000Y-16450000D01*
X54450000Y-16450000D02*
X49150000Y-16450000D01*
X54450000Y-22470000D02*
X54450000Y-16450000D01*
%TO.C,R1*%
X51700000Y-28910000D02*
X51700000Y-35450000D01*
X51700000Y-35450000D02*
X54440000Y-35450000D01*
X53070000Y-28140000D02*
X53070000Y-28910000D01*
X53070000Y-36220000D02*
X53070000Y-35450000D01*
X54440000Y-28910000D02*
X51700000Y-28910000D01*
X54440000Y-35450000D02*
X54440000Y-28910000D01*
%TO.C,F1*%
X30655000Y-42085000D02*
X37385000Y-42085000D01*
X37385000Y-22275000D01*
X30655000Y-22275000D01*
X30655000Y-42085000D01*
%TO.C,J3*%
X56480000Y-17480000D02*
X56480000Y-21480000D01*
X56770000Y-16450000D02*
X56770000Y-22470000D01*
X56770000Y-22470000D02*
X62070000Y-22470000D01*
X57350000Y-16450000D02*
X57350000Y-17050000D01*
X57350000Y-17050000D02*
X58950000Y-17050000D01*
X58150000Y-21470000D02*
X58400000Y-20940000D01*
X58150000Y-21470000D02*
X60690000Y-21470000D01*
X58150000Y-22470000D02*
X58150000Y-21470000D01*
X58400000Y-20940000D02*
X60440000Y-20940000D01*
X58400000Y-22470000D02*
X58400000Y-21470000D01*
X58950000Y-17050000D02*
X58950000Y-16450000D01*
X59890000Y-16450000D02*
X59890000Y-17050000D01*
X59890000Y-17050000D02*
X61490000Y-17050000D01*
X60440000Y-20940000D02*
X60690000Y-21470000D01*
X60440000Y-22470000D02*
X60440000Y-21470000D01*
X60690000Y-21470000D02*
X60690000Y-22470000D01*
X61490000Y-17050000D02*
X61490000Y-16450000D01*
X62070000Y-16450000D02*
X56770000Y-16450000D01*
X62070000Y-22470000D02*
X62070000Y-16450000D01*
%TO.C,J4*%
X49150000Y-41890000D02*
X49150000Y-47910000D01*
X49150000Y-47910000D02*
X54450000Y-47910000D01*
X49730000Y-47310000D02*
X49730000Y-47910000D01*
X50530000Y-42890000D02*
X50530000Y-41890000D01*
X50780000Y-41890000D02*
X50780000Y-42890000D01*
X50780000Y-43420000D02*
X50530000Y-42890000D01*
X51330000Y-47310000D02*
X49730000Y-47310000D01*
X51330000Y-47910000D02*
X51330000Y-47310000D01*
X52270000Y-47310000D02*
X52270000Y-47910000D01*
X52820000Y-41890000D02*
X52820000Y-42890000D01*
X52820000Y-43420000D02*
X50780000Y-43420000D01*
X53070000Y-41890000D02*
X53070000Y-42890000D01*
X53070000Y-42890000D02*
X50530000Y-42890000D01*
X53070000Y-42890000D02*
X52820000Y-43420000D01*
X53870000Y-47310000D02*
X52270000Y-47310000D01*
X53870000Y-47910000D02*
X53870000Y-47310000D01*
X54450000Y-41890000D02*
X49150000Y-41890000D01*
X54450000Y-47910000D02*
X54450000Y-41890000D01*
X54740000Y-46880000D02*
X54740000Y-42880000D01*
%TO.C,D1*%
X43415061Y-30508603D02*
G75*
G02*
X43570516Y-33740000I-1080061J-1671397D01*
G01*
X43415049Y-31139090D02*
G75*
G02*
X43415000Y-33220961I-1080049J-1040910D01*
G01*
X41255000Y-33220961D02*
G75*
G02*
X41254951Y-31139090I1080000J1040961D01*
G01*
X41099484Y-33740000D02*
G75*
G02*
X41254939Y-30508603I1235516J1560000D01*
G01*
X43415000Y-33740000D02*
X43571000Y-33740000D01*
X41099000Y-33740000D02*
X41255000Y-33740000D01*
%TO.C,J1*%
X26295000Y-42810000D02*
G75*
G02*
X25155000Y-43950000I-1139999J-1D01*
G01*
X25155000Y-20410000D02*
G75*
G02*
X26295000Y-21550000I0J-1140000D01*
G01*
X18875000Y-43950000D02*
G75*
G02*
X17735000Y-42810000I-1J1139999D01*
G01*
X17735000Y-21550000D02*
G75*
G02*
X18875000Y-20410000I1140000J0D01*
G01*
X26295000Y-42810000D02*
X26295000Y-21550000D01*
X25235000Y-40920000D02*
X23405000Y-42750000D01*
X25235000Y-23440000D02*
X25235000Y-40920000D01*
X25155000Y-20410000D02*
X16345000Y-20410000D01*
X23875000Y-45030000D02*
X20155000Y-45030000D01*
X23875000Y-43950000D02*
X23875000Y-45030000D01*
X23875000Y-20410000D02*
X23875000Y-19330000D01*
X23875000Y-19330000D02*
X20155000Y-19330000D01*
X23405000Y-42750000D02*
X18795000Y-42750000D01*
X23405000Y-21610000D02*
X25235000Y-23440000D01*
X20155000Y-45030000D02*
X20155000Y-43950000D01*
X20155000Y-19330000D02*
X20155000Y-20410000D01*
X18875000Y-43950000D02*
X25155000Y-43950000D01*
X18795000Y-42750000D02*
X18795000Y-21610000D01*
X18795000Y-21610000D02*
X23405000Y-21610000D01*
X17735000Y-42270000D02*
X16345000Y-42270000D01*
X17735000Y-37380000D02*
X16345000Y-37380000D01*
X17735000Y-32300000D02*
X16345000Y-32300000D01*
X17735000Y-27200000D02*
X16345000Y-27200000D01*
X17735000Y-22100000D02*
X16345000Y-22100000D01*
X17735000Y-21550000D02*
X17735000Y-42810000D01*
X16345000Y-42270000D02*
X16345000Y-40580000D01*
X16345000Y-40580000D02*
X17735000Y-40580000D01*
X16345000Y-37380000D02*
X16345000Y-35690000D01*
X16345000Y-35690000D02*
X17735000Y-35690000D01*
X16345000Y-32300000D02*
X16345000Y-30610000D01*
X16345000Y-30610000D02*
X17735000Y-30610000D01*
X16345000Y-27200000D02*
X16345000Y-25510000D01*
X16345000Y-25510000D02*
X17735000Y-25510000D01*
X16345000Y-22100000D02*
X16345000Y-20410000D01*
%TO.C,J5*%
X56770000Y-41890000D02*
X56770000Y-47910000D01*
X56770000Y-47910000D02*
X62070000Y-47910000D01*
X57350000Y-47310000D02*
X57350000Y-47910000D01*
X58150000Y-42890000D02*
X58150000Y-41890000D01*
X58400000Y-41890000D02*
X58400000Y-42890000D01*
X58400000Y-43420000D02*
X58150000Y-42890000D01*
X58950000Y-47310000D02*
X57350000Y-47310000D01*
X58950000Y-47910000D02*
X58950000Y-47310000D01*
X59890000Y-47310000D02*
X59890000Y-47910000D01*
X60440000Y-41890000D02*
X60440000Y-42890000D01*
X60440000Y-43420000D02*
X58400000Y-43420000D01*
X60690000Y-41890000D02*
X60690000Y-42890000D01*
X60690000Y-42890000D02*
X58150000Y-42890000D01*
X60690000Y-42890000D02*
X60440000Y-43420000D01*
X61490000Y-47310000D02*
X59890000Y-47310000D01*
X61490000Y-47910000D02*
X61490000Y-47310000D01*
X62070000Y-41890000D02*
X56770000Y-41890000D01*
X62070000Y-47910000D02*
X62070000Y-41890000D01*
X62360000Y-46880000D02*
X62360000Y-42880000D01*
%TD*%
M02*
