%TF.GenerationSoftware,KiCad,Pcbnew,8.0.8*%
%TF.CreationDate,2025-04-28T22:16:34+02:00*%
%TF.ProjectId,stern-aux-power-distribution,73746572-6e2d-4617-9578-2d706f776572,rev?*%
%TF.SameCoordinates,Original*%
%TF.FileFunction,Legend,Bot*%
%TF.FilePolarity,Positive*%
%FSLAX46Y46*%
G04 Gerber Fmt 4.6, Leading zero omitted, Abs format (unit mm)*
G04 Created by KiCad (PCBNEW 8.0.8) date 2025-04-28 22:16:34*
%MOMM*%
%LPD*%
G01*
G04 APERTURE LIST*
%ADD10C,0.100000*%
G04 APERTURE END LIST*
D10*
X41467693Y-48754961D02*
X41372455Y-48802580D01*
X41372455Y-48802580D02*
X41229598Y-48802580D01*
X41229598Y-48802580D02*
X41086741Y-48754961D01*
X41086741Y-48754961D02*
X40991503Y-48659723D01*
X40991503Y-48659723D02*
X40943884Y-48564485D01*
X40943884Y-48564485D02*
X40896265Y-48374009D01*
X40896265Y-48374009D02*
X40896265Y-48231152D01*
X40896265Y-48231152D02*
X40943884Y-48040676D01*
X40943884Y-48040676D02*
X40991503Y-47945438D01*
X40991503Y-47945438D02*
X41086741Y-47850200D01*
X41086741Y-47850200D02*
X41229598Y-47802580D01*
X41229598Y-47802580D02*
X41324836Y-47802580D01*
X41324836Y-47802580D02*
X41467693Y-47850200D01*
X41467693Y-47850200D02*
X41515312Y-47897819D01*
X41515312Y-47897819D02*
X41515312Y-48231152D01*
X41515312Y-48231152D02*
X41324836Y-48231152D01*
X41943884Y-47802580D02*
X41943884Y-48802580D01*
X41943884Y-48802580D02*
X42515312Y-47802580D01*
X42515312Y-47802580D02*
X42515312Y-48802580D01*
X42991503Y-47802580D02*
X42991503Y-48802580D01*
X42991503Y-48802580D02*
X43229598Y-48802580D01*
X43229598Y-48802580D02*
X43372455Y-48754961D01*
X43372455Y-48754961D02*
X43467693Y-48659723D01*
X43467693Y-48659723D02*
X43515312Y-48564485D01*
X43515312Y-48564485D02*
X43562931Y-48374009D01*
X43562931Y-48374009D02*
X43562931Y-48231152D01*
X43562931Y-48231152D02*
X43515312Y-48040676D01*
X43515312Y-48040676D02*
X43467693Y-47945438D01*
X43467693Y-47945438D02*
X43372455Y-47850200D01*
X43372455Y-47850200D02*
X43229598Y-47802580D01*
X43229598Y-47802580D02*
X42991503Y-47802580D01*
X76716760Y-39974285D02*
X76716760Y-40450475D01*
X77002475Y-39879047D02*
X76002475Y-40212380D01*
X76002475Y-40212380D02*
X77002475Y-40545713D01*
X76335808Y-41307618D02*
X77002475Y-41307618D01*
X76335808Y-40879047D02*
X76859617Y-40879047D01*
X76859617Y-40879047D02*
X76954856Y-40926666D01*
X76954856Y-40926666D02*
X77002475Y-41021904D01*
X77002475Y-41021904D02*
X77002475Y-41164761D01*
X77002475Y-41164761D02*
X76954856Y-41259999D01*
X76954856Y-41259999D02*
X76907236Y-41307618D01*
X77002475Y-41688571D02*
X76335808Y-42212380D01*
X76335808Y-41688571D02*
X77002475Y-42212380D01*
X76335808Y-43355238D02*
X77335808Y-43355238D01*
X76383427Y-43355238D02*
X76335808Y-43450476D01*
X76335808Y-43450476D02*
X76335808Y-43640952D01*
X76335808Y-43640952D02*
X76383427Y-43736190D01*
X76383427Y-43736190D02*
X76431046Y-43783809D01*
X76431046Y-43783809D02*
X76526284Y-43831428D01*
X76526284Y-43831428D02*
X76811998Y-43831428D01*
X76811998Y-43831428D02*
X76907236Y-43783809D01*
X76907236Y-43783809D02*
X76954856Y-43736190D01*
X76954856Y-43736190D02*
X77002475Y-43640952D01*
X77002475Y-43640952D02*
X77002475Y-43450476D01*
X77002475Y-43450476D02*
X76954856Y-43355238D01*
X77002475Y-44402857D02*
X76954856Y-44307619D01*
X76954856Y-44307619D02*
X76907236Y-44260000D01*
X76907236Y-44260000D02*
X76811998Y-44212381D01*
X76811998Y-44212381D02*
X76526284Y-44212381D01*
X76526284Y-44212381D02*
X76431046Y-44260000D01*
X76431046Y-44260000D02*
X76383427Y-44307619D01*
X76383427Y-44307619D02*
X76335808Y-44402857D01*
X76335808Y-44402857D02*
X76335808Y-44545714D01*
X76335808Y-44545714D02*
X76383427Y-44640952D01*
X76383427Y-44640952D02*
X76431046Y-44688571D01*
X76431046Y-44688571D02*
X76526284Y-44736190D01*
X76526284Y-44736190D02*
X76811998Y-44736190D01*
X76811998Y-44736190D02*
X76907236Y-44688571D01*
X76907236Y-44688571D02*
X76954856Y-44640952D01*
X76954856Y-44640952D02*
X77002475Y-44545714D01*
X77002475Y-44545714D02*
X77002475Y-44402857D01*
X76335808Y-45069524D02*
X77002475Y-45260000D01*
X77002475Y-45260000D02*
X76526284Y-45450476D01*
X76526284Y-45450476D02*
X77002475Y-45640952D01*
X77002475Y-45640952D02*
X76335808Y-45831428D01*
X76954856Y-46593333D02*
X77002475Y-46498095D01*
X77002475Y-46498095D02*
X77002475Y-46307619D01*
X77002475Y-46307619D02*
X76954856Y-46212381D01*
X76954856Y-46212381D02*
X76859617Y-46164762D01*
X76859617Y-46164762D02*
X76478665Y-46164762D01*
X76478665Y-46164762D02*
X76383427Y-46212381D01*
X76383427Y-46212381D02*
X76335808Y-46307619D01*
X76335808Y-46307619D02*
X76335808Y-46498095D01*
X76335808Y-46498095D02*
X76383427Y-46593333D01*
X76383427Y-46593333D02*
X76478665Y-46640952D01*
X76478665Y-46640952D02*
X76573903Y-46640952D01*
X76573903Y-46640952D02*
X76669141Y-46164762D01*
X77002475Y-47069524D02*
X76335808Y-47069524D01*
X76526284Y-47069524D02*
X76431046Y-47117143D01*
X76431046Y-47117143D02*
X76383427Y-47164762D01*
X76383427Y-47164762D02*
X76335808Y-47260000D01*
X76335808Y-47260000D02*
X76335808Y-47355238D01*
X77002475Y-48879048D02*
X76002475Y-48879048D01*
X76954856Y-48879048D02*
X77002475Y-48783810D01*
X77002475Y-48783810D02*
X77002475Y-48593334D01*
X77002475Y-48593334D02*
X76954856Y-48498096D01*
X76954856Y-48498096D02*
X76907236Y-48450477D01*
X76907236Y-48450477D02*
X76811998Y-48402858D01*
X76811998Y-48402858D02*
X76526284Y-48402858D01*
X76526284Y-48402858D02*
X76431046Y-48450477D01*
X76431046Y-48450477D02*
X76383427Y-48498096D01*
X76383427Y-48498096D02*
X76335808Y-48593334D01*
X76335808Y-48593334D02*
X76335808Y-48783810D01*
X76335808Y-48783810D02*
X76383427Y-48879048D01*
X77002475Y-49355239D02*
X76335808Y-49355239D01*
X76002475Y-49355239D02*
X76050094Y-49307620D01*
X76050094Y-49307620D02*
X76097713Y-49355239D01*
X76097713Y-49355239D02*
X76050094Y-49402858D01*
X76050094Y-49402858D02*
X76002475Y-49355239D01*
X76002475Y-49355239D02*
X76097713Y-49355239D01*
X76954856Y-49783810D02*
X77002475Y-49879048D01*
X77002475Y-49879048D02*
X77002475Y-50069524D01*
X77002475Y-50069524D02*
X76954856Y-50164762D01*
X76954856Y-50164762D02*
X76859617Y-50212381D01*
X76859617Y-50212381D02*
X76811998Y-50212381D01*
X76811998Y-50212381D02*
X76716760Y-50164762D01*
X76716760Y-50164762D02*
X76669141Y-50069524D01*
X76669141Y-50069524D02*
X76669141Y-49926667D01*
X76669141Y-49926667D02*
X76621522Y-49831429D01*
X76621522Y-49831429D02*
X76526284Y-49783810D01*
X76526284Y-49783810D02*
X76478665Y-49783810D01*
X76478665Y-49783810D02*
X76383427Y-49831429D01*
X76383427Y-49831429D02*
X76335808Y-49926667D01*
X76335808Y-49926667D02*
X76335808Y-50069524D01*
X76335808Y-50069524D02*
X76383427Y-50164762D01*
X76335808Y-50498096D02*
X76335808Y-50879048D01*
X76002475Y-50640953D02*
X76859617Y-50640953D01*
X76859617Y-50640953D02*
X76954856Y-50688572D01*
X76954856Y-50688572D02*
X77002475Y-50783810D01*
X77002475Y-50783810D02*
X77002475Y-50879048D01*
X77002475Y-51212382D02*
X76335808Y-51212382D01*
X76526284Y-51212382D02*
X76431046Y-51260001D01*
X76431046Y-51260001D02*
X76383427Y-51307620D01*
X76383427Y-51307620D02*
X76335808Y-51402858D01*
X76335808Y-51402858D02*
X76335808Y-51498096D01*
X77002475Y-51831430D02*
X76335808Y-51831430D01*
X76002475Y-51831430D02*
X76050094Y-51783811D01*
X76050094Y-51783811D02*
X76097713Y-51831430D01*
X76097713Y-51831430D02*
X76050094Y-51879049D01*
X76050094Y-51879049D02*
X76002475Y-51831430D01*
X76002475Y-51831430D02*
X76097713Y-51831430D01*
X77002475Y-52307620D02*
X76002475Y-52307620D01*
X76383427Y-52307620D02*
X76335808Y-52402858D01*
X76335808Y-52402858D02*
X76335808Y-52593334D01*
X76335808Y-52593334D02*
X76383427Y-52688572D01*
X76383427Y-52688572D02*
X76431046Y-52736191D01*
X76431046Y-52736191D02*
X76526284Y-52783810D01*
X76526284Y-52783810D02*
X76811998Y-52783810D01*
X76811998Y-52783810D02*
X76907236Y-52736191D01*
X76907236Y-52736191D02*
X76954856Y-52688572D01*
X76954856Y-52688572D02*
X77002475Y-52593334D01*
X77002475Y-52593334D02*
X77002475Y-52402858D01*
X77002475Y-52402858D02*
X76954856Y-52307620D01*
X76335808Y-53640953D02*
X77002475Y-53640953D01*
X76335808Y-53212382D02*
X76859617Y-53212382D01*
X76859617Y-53212382D02*
X76954856Y-53260001D01*
X76954856Y-53260001D02*
X77002475Y-53355239D01*
X77002475Y-53355239D02*
X77002475Y-53498096D01*
X77002475Y-53498096D02*
X76954856Y-53593334D01*
X76954856Y-53593334D02*
X76907236Y-53640953D01*
X76335808Y-53974287D02*
X76335808Y-54355239D01*
X76002475Y-54117144D02*
X76859617Y-54117144D01*
X76859617Y-54117144D02*
X76954856Y-54164763D01*
X76954856Y-54164763D02*
X77002475Y-54260001D01*
X77002475Y-54260001D02*
X77002475Y-54355239D01*
X77002475Y-54688573D02*
X76335808Y-54688573D01*
X76002475Y-54688573D02*
X76050094Y-54640954D01*
X76050094Y-54640954D02*
X76097713Y-54688573D01*
X76097713Y-54688573D02*
X76050094Y-54736192D01*
X76050094Y-54736192D02*
X76002475Y-54688573D01*
X76002475Y-54688573D02*
X76097713Y-54688573D01*
X77002475Y-55307620D02*
X76954856Y-55212382D01*
X76954856Y-55212382D02*
X76907236Y-55164763D01*
X76907236Y-55164763D02*
X76811998Y-55117144D01*
X76811998Y-55117144D02*
X76526284Y-55117144D01*
X76526284Y-55117144D02*
X76431046Y-55164763D01*
X76431046Y-55164763D02*
X76383427Y-55212382D01*
X76383427Y-55212382D02*
X76335808Y-55307620D01*
X76335808Y-55307620D02*
X76335808Y-55450477D01*
X76335808Y-55450477D02*
X76383427Y-55545715D01*
X76383427Y-55545715D02*
X76431046Y-55593334D01*
X76431046Y-55593334D02*
X76526284Y-55640953D01*
X76526284Y-55640953D02*
X76811998Y-55640953D01*
X76811998Y-55640953D02*
X76907236Y-55593334D01*
X76907236Y-55593334D02*
X76954856Y-55545715D01*
X76954856Y-55545715D02*
X77002475Y-55450477D01*
X77002475Y-55450477D02*
X77002475Y-55307620D01*
X76335808Y-56069525D02*
X77002475Y-56069525D01*
X76431046Y-56069525D02*
X76383427Y-56117144D01*
X76383427Y-56117144D02*
X76335808Y-56212382D01*
X76335808Y-56212382D02*
X76335808Y-56355239D01*
X76335808Y-56355239D02*
X76383427Y-56450477D01*
X76383427Y-56450477D02*
X76478665Y-56498096D01*
X76478665Y-56498096D02*
X77002475Y-56498096D01*
X77945752Y-41069523D02*
X77945752Y-41450475D01*
X78612419Y-41212380D02*
X77755276Y-41212380D01*
X77755276Y-41212380D02*
X77660038Y-41259999D01*
X77660038Y-41259999D02*
X77612419Y-41355237D01*
X77612419Y-41355237D02*
X77612419Y-41450475D01*
X78612419Y-41926666D02*
X78564800Y-41831428D01*
X78564800Y-41831428D02*
X78517180Y-41783809D01*
X78517180Y-41783809D02*
X78421942Y-41736190D01*
X78421942Y-41736190D02*
X78136228Y-41736190D01*
X78136228Y-41736190D02*
X78040990Y-41783809D01*
X78040990Y-41783809D02*
X77993371Y-41831428D01*
X77993371Y-41831428D02*
X77945752Y-41926666D01*
X77945752Y-41926666D02*
X77945752Y-42069523D01*
X77945752Y-42069523D02*
X77993371Y-42164761D01*
X77993371Y-42164761D02*
X78040990Y-42212380D01*
X78040990Y-42212380D02*
X78136228Y-42259999D01*
X78136228Y-42259999D02*
X78421942Y-42259999D01*
X78421942Y-42259999D02*
X78517180Y-42212380D01*
X78517180Y-42212380D02*
X78564800Y-42164761D01*
X78564800Y-42164761D02*
X78612419Y-42069523D01*
X78612419Y-42069523D02*
X78612419Y-41926666D01*
X78612419Y-42688571D02*
X77945752Y-42688571D01*
X78136228Y-42688571D02*
X78040990Y-42736190D01*
X78040990Y-42736190D02*
X77993371Y-42783809D01*
X77993371Y-42783809D02*
X77945752Y-42879047D01*
X77945752Y-42879047D02*
X77945752Y-42974285D01*
X78564800Y-44021905D02*
X78612419Y-44164762D01*
X78612419Y-44164762D02*
X78612419Y-44402857D01*
X78612419Y-44402857D02*
X78564800Y-44498095D01*
X78564800Y-44498095D02*
X78517180Y-44545714D01*
X78517180Y-44545714D02*
X78421942Y-44593333D01*
X78421942Y-44593333D02*
X78326704Y-44593333D01*
X78326704Y-44593333D02*
X78231466Y-44545714D01*
X78231466Y-44545714D02*
X78183847Y-44498095D01*
X78183847Y-44498095D02*
X78136228Y-44402857D01*
X78136228Y-44402857D02*
X78088609Y-44212381D01*
X78088609Y-44212381D02*
X78040990Y-44117143D01*
X78040990Y-44117143D02*
X77993371Y-44069524D01*
X77993371Y-44069524D02*
X77898133Y-44021905D01*
X77898133Y-44021905D02*
X77802895Y-44021905D01*
X77802895Y-44021905D02*
X77707657Y-44069524D01*
X77707657Y-44069524D02*
X77660038Y-44117143D01*
X77660038Y-44117143D02*
X77612419Y-44212381D01*
X77612419Y-44212381D02*
X77612419Y-44450476D01*
X77612419Y-44450476D02*
X77660038Y-44593333D01*
X77945752Y-44879048D02*
X77945752Y-45260000D01*
X77612419Y-45021905D02*
X78469561Y-45021905D01*
X78469561Y-45021905D02*
X78564800Y-45069524D01*
X78564800Y-45069524D02*
X78612419Y-45164762D01*
X78612419Y-45164762D02*
X78612419Y-45260000D01*
X78564800Y-45974286D02*
X78612419Y-45879048D01*
X78612419Y-45879048D02*
X78612419Y-45688572D01*
X78612419Y-45688572D02*
X78564800Y-45593334D01*
X78564800Y-45593334D02*
X78469561Y-45545715D01*
X78469561Y-45545715D02*
X78088609Y-45545715D01*
X78088609Y-45545715D02*
X77993371Y-45593334D01*
X77993371Y-45593334D02*
X77945752Y-45688572D01*
X77945752Y-45688572D02*
X77945752Y-45879048D01*
X77945752Y-45879048D02*
X77993371Y-45974286D01*
X77993371Y-45974286D02*
X78088609Y-46021905D01*
X78088609Y-46021905D02*
X78183847Y-46021905D01*
X78183847Y-46021905D02*
X78279085Y-45545715D01*
X78612419Y-46450477D02*
X77945752Y-46450477D01*
X78136228Y-46450477D02*
X78040990Y-46498096D01*
X78040990Y-46498096D02*
X77993371Y-46545715D01*
X77993371Y-46545715D02*
X77945752Y-46640953D01*
X77945752Y-46640953D02*
X77945752Y-46736191D01*
X77945752Y-47069525D02*
X78612419Y-47069525D01*
X78040990Y-47069525D02*
X77993371Y-47117144D01*
X77993371Y-47117144D02*
X77945752Y-47212382D01*
X77945752Y-47212382D02*
X77945752Y-47355239D01*
X77945752Y-47355239D02*
X77993371Y-47450477D01*
X77993371Y-47450477D02*
X78088609Y-47498096D01*
X78088609Y-47498096D02*
X78612419Y-47498096D01*
X78612419Y-48736192D02*
X77945752Y-48736192D01*
X78040990Y-48736192D02*
X77993371Y-48783811D01*
X77993371Y-48783811D02*
X77945752Y-48879049D01*
X77945752Y-48879049D02*
X77945752Y-49021906D01*
X77945752Y-49021906D02*
X77993371Y-49117144D01*
X77993371Y-49117144D02*
X78088609Y-49164763D01*
X78088609Y-49164763D02*
X78612419Y-49164763D01*
X78088609Y-49164763D02*
X77993371Y-49212382D01*
X77993371Y-49212382D02*
X77945752Y-49307620D01*
X77945752Y-49307620D02*
X77945752Y-49450477D01*
X77945752Y-49450477D02*
X77993371Y-49545716D01*
X77993371Y-49545716D02*
X78088609Y-49593335D01*
X78088609Y-49593335D02*
X78612419Y-49593335D01*
X78612419Y-50498096D02*
X78088609Y-50498096D01*
X78088609Y-50498096D02*
X77993371Y-50450477D01*
X77993371Y-50450477D02*
X77945752Y-50355239D01*
X77945752Y-50355239D02*
X77945752Y-50164763D01*
X77945752Y-50164763D02*
X77993371Y-50069525D01*
X78564800Y-50498096D02*
X78612419Y-50402858D01*
X78612419Y-50402858D02*
X78612419Y-50164763D01*
X78612419Y-50164763D02*
X78564800Y-50069525D01*
X78564800Y-50069525D02*
X78469561Y-50021906D01*
X78469561Y-50021906D02*
X78374323Y-50021906D01*
X78374323Y-50021906D02*
X78279085Y-50069525D01*
X78279085Y-50069525D02*
X78231466Y-50164763D01*
X78231466Y-50164763D02*
X78231466Y-50402858D01*
X78231466Y-50402858D02*
X78183847Y-50498096D01*
X78564800Y-51402858D02*
X78612419Y-51307620D01*
X78612419Y-51307620D02*
X78612419Y-51117144D01*
X78612419Y-51117144D02*
X78564800Y-51021906D01*
X78564800Y-51021906D02*
X78517180Y-50974287D01*
X78517180Y-50974287D02*
X78421942Y-50926668D01*
X78421942Y-50926668D02*
X78136228Y-50926668D01*
X78136228Y-50926668D02*
X78040990Y-50974287D01*
X78040990Y-50974287D02*
X77993371Y-51021906D01*
X77993371Y-51021906D02*
X77945752Y-51117144D01*
X77945752Y-51117144D02*
X77945752Y-51307620D01*
X77945752Y-51307620D02*
X77993371Y-51402858D01*
X78612419Y-51831430D02*
X77612419Y-51831430D01*
X78612419Y-52260001D02*
X78088609Y-52260001D01*
X78088609Y-52260001D02*
X77993371Y-52212382D01*
X77993371Y-52212382D02*
X77945752Y-52117144D01*
X77945752Y-52117144D02*
X77945752Y-51974287D01*
X77945752Y-51974287D02*
X77993371Y-51879049D01*
X77993371Y-51879049D02*
X78040990Y-51831430D01*
X78612419Y-52736192D02*
X77945752Y-52736192D01*
X77612419Y-52736192D02*
X77660038Y-52688573D01*
X77660038Y-52688573D02*
X77707657Y-52736192D01*
X77707657Y-52736192D02*
X77660038Y-52783811D01*
X77660038Y-52783811D02*
X77612419Y-52736192D01*
X77612419Y-52736192D02*
X77707657Y-52736192D01*
X77945752Y-53212382D02*
X78612419Y-53212382D01*
X78040990Y-53212382D02*
X77993371Y-53260001D01*
X77993371Y-53260001D02*
X77945752Y-53355239D01*
X77945752Y-53355239D02*
X77945752Y-53498096D01*
X77945752Y-53498096D02*
X77993371Y-53593334D01*
X77993371Y-53593334D02*
X78088609Y-53640953D01*
X78088609Y-53640953D02*
X78612419Y-53640953D01*
X78564800Y-54498096D02*
X78612419Y-54402858D01*
X78612419Y-54402858D02*
X78612419Y-54212382D01*
X78612419Y-54212382D02*
X78564800Y-54117144D01*
X78564800Y-54117144D02*
X78469561Y-54069525D01*
X78469561Y-54069525D02*
X78088609Y-54069525D01*
X78088609Y-54069525D02*
X77993371Y-54117144D01*
X77993371Y-54117144D02*
X77945752Y-54212382D01*
X77945752Y-54212382D02*
X77945752Y-54402858D01*
X77945752Y-54402858D02*
X77993371Y-54498096D01*
X77993371Y-54498096D02*
X78088609Y-54545715D01*
X78088609Y-54545715D02*
X78183847Y-54545715D01*
X78183847Y-54545715D02*
X78279085Y-54069525D01*
X78564800Y-54926668D02*
X78612419Y-55021906D01*
X78612419Y-55021906D02*
X78612419Y-55212382D01*
X78612419Y-55212382D02*
X78564800Y-55307620D01*
X78564800Y-55307620D02*
X78469561Y-55355239D01*
X78469561Y-55355239D02*
X78421942Y-55355239D01*
X78421942Y-55355239D02*
X78326704Y-55307620D01*
X78326704Y-55307620D02*
X78279085Y-55212382D01*
X78279085Y-55212382D02*
X78279085Y-55069525D01*
X78279085Y-55069525D02*
X78231466Y-54974287D01*
X78231466Y-54974287D02*
X78136228Y-54926668D01*
X78136228Y-54926668D02*
X78088609Y-54926668D01*
X78088609Y-54926668D02*
X77993371Y-54974287D01*
X77993371Y-54974287D02*
X77945752Y-55069525D01*
X77945752Y-55069525D02*
X77945752Y-55212382D01*
X77945752Y-55212382D02*
X77993371Y-55307620D01*
X41467693Y-55422580D02*
X40896265Y-55422580D01*
X41181979Y-55422580D02*
X41181979Y-56422580D01*
X41181979Y-56422580D02*
X41086741Y-56279723D01*
X41086741Y-56279723D02*
X40991503Y-56184485D01*
X40991503Y-56184485D02*
X40896265Y-56136866D01*
X41848646Y-56327342D02*
X41896265Y-56374961D01*
X41896265Y-56374961D02*
X41991503Y-56422580D01*
X41991503Y-56422580D02*
X42229598Y-56422580D01*
X42229598Y-56422580D02*
X42324836Y-56374961D01*
X42324836Y-56374961D02*
X42372455Y-56327342D01*
X42372455Y-56327342D02*
X42420074Y-56232104D01*
X42420074Y-56232104D02*
X42420074Y-56136866D01*
X42420074Y-56136866D02*
X42372455Y-55994009D01*
X42372455Y-55994009D02*
X41801027Y-55422580D01*
X41801027Y-55422580D02*
X42420074Y-55422580D01*
X42705789Y-56422580D02*
X43039122Y-55422580D01*
X43039122Y-55422580D02*
X43372455Y-56422580D01*
M02*
