%TF.GenerationSoftware,KiCad,Pcbnew,8.0.8*%
%TF.CreationDate,2025-04-28T22:16:34+02:00*%
%TF.ProjectId,stern-aux-power-distribution,73746572-6e2d-4617-9578-2d706f776572,rev?*%
%TF.SameCoordinates,Original*%
%TF.FileFunction,Copper,L1,Top*%
%TF.FilePolarity,Positive*%
%FSLAX46Y46*%
G04 Gerber Fmt 4.6, Leading zero omitted, Abs format (unit mm)*
G04 Created by KiCad (PCBNEW 8.0.8) date 2025-04-28 22:16:34*
%MOMM*%
%LPD*%
G01*
G04 APERTURE LIST*
G04 Aperture macros list*
%AMRoundRect*
0 Rectangle with rounded corners*
0 $1 Rounding radius*
0 $2 $3 $4 $5 $6 $7 $8 $9 X,Y pos of 4 corners*
0 Add a 4 corners polygon primitive as box body*
4,1,4,$2,$3,$4,$5,$6,$7,$8,$9,$2,$3,0*
0 Add four circle primitives for the rounded corners*
1,1,$1+$1,$2,$3*
1,1,$1+$1,$4,$5*
1,1,$1+$1,$6,$7*
1,1,$1+$1,$8,$9*
0 Add four rect primitives between the rounded corners*
20,1,$1+$1,$2,$3,$4,$5,0*
20,1,$1+$1,$4,$5,$6,$7,0*
20,1,$1+$1,$6,$7,$8,$9,0*
20,1,$1+$1,$8,$9,$2,$3,0*%
G04 Aperture macros list end*
%TA.AperFunction,ComponentPad*%
%ADD10C,2.500000*%
%TD*%
%TA.AperFunction,ComponentPad*%
%ADD11RoundRect,0.250000X-0.620000X-0.845000X0.620000X-0.845000X0.620000X0.845000X-0.620000X0.845000X0*%
%TD*%
%TA.AperFunction,ComponentPad*%
%ADD12O,1.740000X2.190000*%
%TD*%
%TA.AperFunction,ComponentPad*%
%ADD13C,1.600000*%
%TD*%
%TA.AperFunction,ComponentPad*%
%ADD14O,1.600000X1.600000*%
%TD*%
%TA.AperFunction,ComponentPad*%
%ADD15RoundRect,0.250000X0.620000X0.845000X-0.620000X0.845000X-0.620000X-0.845000X0.620000X-0.845000X0*%
%TD*%
%TA.AperFunction,ComponentPad*%
%ADD16R,1.800000X1.800000*%
%TD*%
%TA.AperFunction,ComponentPad*%
%ADD17C,1.800000*%
%TD*%
%TA.AperFunction,ComponentPad*%
%ADD18R,2.780000X2.780000*%
%TD*%
%TA.AperFunction,ComponentPad*%
%ADD19C,2.780000*%
%TD*%
G04 APERTURE END LIST*
D10*
%TO.P,F1,1*%
%TO.N,Net-(J1-Pin_1)*%
X49100000Y-54995000D03*
X52500000Y-54995000D03*
%TO.P,F1,2*%
%TO.N,+12V*%
X49100000Y-41525000D03*
X52500000Y-41525000D03*
%TD*%
D11*
%TO.P,J2,1,Pin_1*%
%TO.N,GND*%
X67310000Y-35560000D03*
D12*
%TO.P,J2,2,Pin_2*%
%TO.N,+12V*%
X69850000Y-35560000D03*
%TD*%
D13*
%TO.P,R1,1*%
%TO.N,Net-(D1-K)*%
X69850000Y-43180000D03*
D14*
%TO.P,R1,2*%
%TO.N,GND*%
X69850000Y-53340000D03*
%TD*%
D11*
%TO.P,J3,1,Pin_1*%
%TO.N,GND*%
X74930000Y-35560000D03*
D12*
%TO.P,J3,2,Pin_2*%
%TO.N,+12V*%
X77470000Y-35560000D03*
%TD*%
D15*
%TO.P,J4,1,Pin_1*%
%TO.N,GND*%
X69850000Y-60960000D03*
D12*
%TO.P,J4,2,Pin_2*%
%TO.N,+12V*%
X67310000Y-60960000D03*
%TD*%
D16*
%TO.P,D1,1,K*%
%TO.N,Net-(D1-K)*%
X59115000Y-49530000D03*
D17*
%TO.P,D1,2,A*%
%TO.N,+12V*%
X59115000Y-46990000D03*
%TD*%
D18*
%TO.P,J1,1,Pin_1*%
%TO.N,Net-(J1-Pin_1)*%
X38795000Y-55880000D03*
D19*
%TO.P,J1,2,Pin_2*%
%TO.N,GND*%
X38795000Y-50800000D03*
%TO.P,J1,3,Pin_3*%
X38795000Y-45720000D03*
%TO.P,J1,4,Pin_4*%
%TO.N,unconnected-(J1-Pin_4-Pad4)*%
X38795000Y-40640000D03*
%TD*%
D15*
%TO.P,J5,1,Pin_1*%
%TO.N,GND*%
X77470000Y-60960000D03*
D12*
%TO.P,J5,2,Pin_2*%
%TO.N,+12V*%
X74930000Y-60960000D03*
%TD*%
%TA.AperFunction,Conductor*%
%TO.N,GND*%
G36*
X80782539Y-30780185D02*
G01*
X80828294Y-30832989D01*
X80839500Y-30884500D01*
X80839500Y-65635500D01*
X80819815Y-65702539D01*
X80767011Y-65748294D01*
X80715500Y-65759500D01*
X31964500Y-65759500D01*
X31897461Y-65739815D01*
X31851706Y-65687011D01*
X31840500Y-65635500D01*
X31840500Y-61112486D01*
X57549500Y-61112486D01*
X57549500Y-61407513D01*
X57568918Y-61555000D01*
X57588007Y-61699993D01*
X57657058Y-61957697D01*
X57664361Y-61984951D01*
X57664364Y-61984961D01*
X57777254Y-62257500D01*
X57777258Y-62257510D01*
X57924761Y-62512993D01*
X58104352Y-62747040D01*
X58104358Y-62747047D01*
X58312952Y-62955641D01*
X58312959Y-62955647D01*
X58547006Y-63135238D01*
X58802489Y-63282741D01*
X58802490Y-63282741D01*
X58802493Y-63282743D01*
X59075048Y-63395639D01*
X59360007Y-63471993D01*
X59652494Y-63510500D01*
X59652501Y-63510500D01*
X59947499Y-63510500D01*
X59947506Y-63510500D01*
X60239993Y-63471993D01*
X60524952Y-63395639D01*
X60797507Y-63282743D01*
X61052994Y-63135238D01*
X61287042Y-62955646D01*
X61495646Y-62747042D01*
X61675238Y-62512994D01*
X61822743Y-62257507D01*
X61935639Y-61984952D01*
X62011993Y-61699993D01*
X62050500Y-61407506D01*
X62050500Y-61112494D01*
X62011993Y-60820007D01*
X61960313Y-60627133D01*
X65939500Y-60627133D01*
X65939500Y-61292866D01*
X65973245Y-61505922D01*
X65973246Y-61505926D01*
X66039908Y-61711089D01*
X66137843Y-61903299D01*
X66264641Y-62077821D01*
X66417179Y-62230359D01*
X66591701Y-62357157D01*
X66783911Y-62455092D01*
X66989074Y-62521754D01*
X67068973Y-62534408D01*
X67202134Y-62555500D01*
X67202139Y-62555500D01*
X67417866Y-62555500D01*
X67536230Y-62536752D01*
X67630926Y-62521754D01*
X67836089Y-62455092D01*
X68028299Y-62357157D01*
X68202821Y-62230359D01*
X68345186Y-62087993D01*
X68406505Y-62054511D01*
X68476197Y-62059495D01*
X68532131Y-62101366D01*
X68545248Y-62123277D01*
X68545640Y-62124118D01*
X68637684Y-62273345D01*
X68761654Y-62397315D01*
X68910875Y-62489356D01*
X68910880Y-62489358D01*
X69077302Y-62544505D01*
X69077309Y-62544506D01*
X69180019Y-62554999D01*
X69599999Y-62554999D01*
X69600000Y-62554998D01*
X69600000Y-61502709D01*
X69620339Y-61514452D01*
X69771667Y-61555000D01*
X69928333Y-61555000D01*
X70079661Y-61514452D01*
X70100000Y-61502709D01*
X70100000Y-62554999D01*
X70519972Y-62554999D01*
X70519986Y-62554998D01*
X70622697Y-62544505D01*
X70789119Y-62489358D01*
X70789124Y-62489356D01*
X70938345Y-62397315D01*
X71062315Y-62273345D01*
X71154356Y-62124124D01*
X71154358Y-62124119D01*
X71209505Y-61957697D01*
X71209506Y-61957690D01*
X71219999Y-61854986D01*
X71220000Y-61854973D01*
X71220000Y-61210000D01*
X70392709Y-61210000D01*
X70404452Y-61189661D01*
X70445000Y-61038333D01*
X70445000Y-60881667D01*
X70404452Y-60730339D01*
X70392709Y-60710000D01*
X71219999Y-60710000D01*
X71219999Y-60627133D01*
X73559500Y-60627133D01*
X73559500Y-61292866D01*
X73593245Y-61505922D01*
X73593246Y-61505926D01*
X73659908Y-61711089D01*
X73757843Y-61903299D01*
X73884641Y-62077821D01*
X74037179Y-62230359D01*
X74211701Y-62357157D01*
X74403911Y-62455092D01*
X74609074Y-62521754D01*
X74688973Y-62534408D01*
X74822134Y-62555500D01*
X74822139Y-62555500D01*
X75037866Y-62555500D01*
X75156230Y-62536752D01*
X75250926Y-62521754D01*
X75456089Y-62455092D01*
X75648299Y-62357157D01*
X75822821Y-62230359D01*
X75965186Y-62087993D01*
X76026505Y-62054511D01*
X76096197Y-62059495D01*
X76152131Y-62101366D01*
X76165248Y-62123277D01*
X76165640Y-62124118D01*
X76257684Y-62273345D01*
X76381654Y-62397315D01*
X76530875Y-62489356D01*
X76530880Y-62489358D01*
X76697302Y-62544505D01*
X76697309Y-62544506D01*
X76800019Y-62554999D01*
X77219999Y-62554999D01*
X77220000Y-62554998D01*
X77220000Y-61502709D01*
X77240339Y-61514452D01*
X77391667Y-61555000D01*
X77548333Y-61555000D01*
X77699661Y-61514452D01*
X77720000Y-61502709D01*
X77720000Y-62554999D01*
X78139972Y-62554999D01*
X78139986Y-62554998D01*
X78242697Y-62544505D01*
X78409119Y-62489358D01*
X78409124Y-62489356D01*
X78558345Y-62397315D01*
X78682315Y-62273345D01*
X78774356Y-62124124D01*
X78774358Y-62124119D01*
X78829505Y-61957697D01*
X78829506Y-61957690D01*
X78839999Y-61854986D01*
X78840000Y-61854973D01*
X78840000Y-61210000D01*
X78012709Y-61210000D01*
X78024452Y-61189661D01*
X78065000Y-61038333D01*
X78065000Y-60881667D01*
X78024452Y-60730339D01*
X78012709Y-60710000D01*
X78839999Y-60710000D01*
X78839999Y-60065028D01*
X78839998Y-60065013D01*
X78829505Y-59962302D01*
X78774358Y-59795880D01*
X78774356Y-59795875D01*
X78682315Y-59646654D01*
X78558345Y-59522684D01*
X78409124Y-59430643D01*
X78409119Y-59430641D01*
X78242697Y-59375494D01*
X78242690Y-59375493D01*
X78139986Y-59365000D01*
X77720000Y-59365000D01*
X77720000Y-60417290D01*
X77699661Y-60405548D01*
X77548333Y-60365000D01*
X77391667Y-60365000D01*
X77240339Y-60405548D01*
X77220000Y-60417290D01*
X77220000Y-59365000D01*
X76800028Y-59365000D01*
X76800012Y-59365001D01*
X76697302Y-59375494D01*
X76530880Y-59430641D01*
X76530875Y-59430643D01*
X76381654Y-59522684D01*
X76257684Y-59646654D01*
X76165637Y-59795885D01*
X76165245Y-59796728D01*
X76164821Y-59797208D01*
X76161851Y-59802025D01*
X76161027Y-59801517D01*
X76119072Y-59849167D01*
X76051879Y-59868318D01*
X75984998Y-59848101D01*
X75965183Y-59832003D01*
X75822823Y-59689643D01*
X75822821Y-59689641D01*
X75648299Y-59562843D01*
X75456089Y-59464908D01*
X75250926Y-59398246D01*
X75250924Y-59398245D01*
X75250922Y-59398245D01*
X75037866Y-59364500D01*
X75037861Y-59364500D01*
X74822139Y-59364500D01*
X74822134Y-59364500D01*
X74609077Y-59398245D01*
X74403908Y-59464909D01*
X74211700Y-59562843D01*
X74112129Y-59635186D01*
X74037179Y-59689641D01*
X74037177Y-59689643D01*
X74037176Y-59689643D01*
X73884643Y-59842176D01*
X73884643Y-59842177D01*
X73884641Y-59842179D01*
X73879564Y-59849167D01*
X73757843Y-60016700D01*
X73659909Y-60208908D01*
X73593245Y-60414077D01*
X73559500Y-60627133D01*
X71219999Y-60627133D01*
X71219999Y-60065028D01*
X71219998Y-60065013D01*
X71209505Y-59962302D01*
X71154358Y-59795880D01*
X71154356Y-59795875D01*
X71062315Y-59646654D01*
X70938345Y-59522684D01*
X70789124Y-59430643D01*
X70789119Y-59430641D01*
X70622697Y-59375494D01*
X70622690Y-59375493D01*
X70519986Y-59365000D01*
X70100000Y-59365000D01*
X70100000Y-60417290D01*
X70079661Y-60405548D01*
X69928333Y-60365000D01*
X69771667Y-60365000D01*
X69620339Y-60405548D01*
X69600000Y-60417290D01*
X69600000Y-59365000D01*
X69180028Y-59365000D01*
X69180012Y-59365001D01*
X69077302Y-59375494D01*
X68910880Y-59430641D01*
X68910875Y-59430643D01*
X68761654Y-59522684D01*
X68637684Y-59646654D01*
X68545637Y-59795885D01*
X68545245Y-59796728D01*
X68544821Y-59797208D01*
X68541851Y-59802025D01*
X68541027Y-59801517D01*
X68499072Y-59849167D01*
X68431879Y-59868318D01*
X68364998Y-59848101D01*
X68345183Y-59832003D01*
X68202823Y-59689643D01*
X68202821Y-59689641D01*
X68028299Y-59562843D01*
X67836089Y-59464908D01*
X67630926Y-59398246D01*
X67630924Y-59398245D01*
X67630922Y-59398245D01*
X67417866Y-59364500D01*
X67417861Y-59364500D01*
X67202139Y-59364500D01*
X67202134Y-59364500D01*
X66989077Y-59398245D01*
X66783908Y-59464909D01*
X66591700Y-59562843D01*
X66492129Y-59635186D01*
X66417179Y-59689641D01*
X66417177Y-59689643D01*
X66417176Y-59689643D01*
X66264643Y-59842176D01*
X66264643Y-59842177D01*
X66264641Y-59842179D01*
X66259564Y-59849167D01*
X66137843Y-60016700D01*
X66039909Y-60208908D01*
X65973245Y-60414077D01*
X65939500Y-60627133D01*
X61960313Y-60627133D01*
X61935639Y-60535048D01*
X61822743Y-60262493D01*
X61675238Y-60007006D01*
X61568819Y-59868318D01*
X61495647Y-59772959D01*
X61495641Y-59772952D01*
X61287047Y-59564358D01*
X61287040Y-59564352D01*
X61052993Y-59384761D01*
X60797510Y-59237258D01*
X60797500Y-59237254D01*
X60524961Y-59124364D01*
X60524954Y-59124362D01*
X60524952Y-59124361D01*
X60239993Y-59048007D01*
X60191113Y-59041571D01*
X59947513Y-59009500D01*
X59947506Y-59009500D01*
X59652494Y-59009500D01*
X59652486Y-59009500D01*
X59374085Y-59046153D01*
X59360007Y-59048007D01*
X59075048Y-59124361D01*
X59075038Y-59124364D01*
X58802499Y-59237254D01*
X58802489Y-59237258D01*
X58547006Y-59384761D01*
X58312959Y-59564352D01*
X58312952Y-59564358D01*
X58104358Y-59772952D01*
X58104352Y-59772959D01*
X57924761Y-60007006D01*
X57777258Y-60262489D01*
X57777254Y-60262499D01*
X57664364Y-60535038D01*
X57664361Y-60535048D01*
X57639686Y-60627139D01*
X57588008Y-60820004D01*
X57588006Y-60820015D01*
X57549500Y-61112486D01*
X31840500Y-61112486D01*
X31840500Y-54442135D01*
X36904500Y-54442135D01*
X36904500Y-57317870D01*
X36904501Y-57317876D01*
X36910908Y-57377483D01*
X36961202Y-57512328D01*
X36961206Y-57512335D01*
X37047452Y-57627544D01*
X37047455Y-57627547D01*
X37162664Y-57713793D01*
X37162671Y-57713797D01*
X37297517Y-57764091D01*
X37297516Y-57764091D01*
X37304444Y-57764835D01*
X37357127Y-57770500D01*
X40232872Y-57770499D01*
X40292483Y-57764091D01*
X40427331Y-57713796D01*
X40542546Y-57627546D01*
X40628796Y-57512331D01*
X40679091Y-57377483D01*
X40685500Y-57317873D01*
X40685499Y-54994995D01*
X47344592Y-54994995D01*
X47344592Y-54995004D01*
X47364196Y-55256620D01*
X47364197Y-55256625D01*
X47422576Y-55512402D01*
X47422578Y-55512411D01*
X47422580Y-55512416D01*
X47518432Y-55756643D01*
X47649614Y-55983857D01*
X47781736Y-56149533D01*
X47813198Y-56188985D01*
X47994753Y-56357441D01*
X48005521Y-56367433D01*
X48222296Y-56515228D01*
X48222301Y-56515230D01*
X48222302Y-56515231D01*
X48222303Y-56515232D01*
X48347843Y-56575688D01*
X48458673Y-56629061D01*
X48458674Y-56629061D01*
X48458677Y-56629063D01*
X48709385Y-56706396D01*
X48968818Y-56745500D01*
X49231182Y-56745500D01*
X49490615Y-56706396D01*
X49741323Y-56629063D01*
X49977704Y-56515228D01*
X50194479Y-56367433D01*
X50386805Y-56188981D01*
X50550386Y-55983857D01*
X50681568Y-55756643D01*
X50684572Y-55748986D01*
X50727387Y-55693775D01*
X50793257Y-55670474D01*
X50861268Y-55686484D01*
X50909826Y-55736722D01*
X50915422Y-55748973D01*
X50918432Y-55756643D01*
X51049614Y-55983857D01*
X51181736Y-56149533D01*
X51213198Y-56188985D01*
X51394753Y-56357441D01*
X51405521Y-56367433D01*
X51622296Y-56515228D01*
X51622301Y-56515230D01*
X51622302Y-56515231D01*
X51622303Y-56515232D01*
X51747843Y-56575688D01*
X51858673Y-56629061D01*
X51858674Y-56629061D01*
X51858677Y-56629063D01*
X52109385Y-56706396D01*
X52368818Y-56745500D01*
X52631182Y-56745500D01*
X52890615Y-56706396D01*
X53141323Y-56629063D01*
X53377704Y-56515228D01*
X53594479Y-56367433D01*
X53786805Y-56188981D01*
X53950386Y-55983857D01*
X54081568Y-55756643D01*
X54177420Y-55512416D01*
X54235802Y-55256630D01*
X54255408Y-54995000D01*
X54235802Y-54733370D01*
X54177420Y-54477584D01*
X54081568Y-54233357D01*
X53950386Y-54006143D01*
X53786805Y-53801019D01*
X53786804Y-53801018D01*
X53786801Y-53801014D01*
X53594479Y-53622567D01*
X53540267Y-53585606D01*
X53377704Y-53474772D01*
X53377700Y-53474770D01*
X53377697Y-53474768D01*
X53377696Y-53474767D01*
X53141325Y-53360938D01*
X53141327Y-53360938D01*
X52890623Y-53283606D01*
X52890619Y-53283605D01*
X52890615Y-53283604D01*
X52765823Y-53264794D01*
X52631187Y-53244500D01*
X52631182Y-53244500D01*
X52368818Y-53244500D01*
X52368812Y-53244500D01*
X52207247Y-53268853D01*
X52109385Y-53283604D01*
X52109382Y-53283605D01*
X52109376Y-53283606D01*
X51858673Y-53360938D01*
X51622303Y-53474767D01*
X51622302Y-53474768D01*
X51405520Y-53622567D01*
X51213198Y-53801014D01*
X51049614Y-54006143D01*
X50918432Y-54233356D01*
X50915427Y-54241013D01*
X50872610Y-54296226D01*
X50806739Y-54319525D01*
X50738729Y-54303513D01*
X50690172Y-54253274D01*
X50684573Y-54241013D01*
X50683715Y-54238828D01*
X50681568Y-54233357D01*
X50550386Y-54006143D01*
X50386805Y-53801019D01*
X50386804Y-53801018D01*
X50386801Y-53801014D01*
X50194479Y-53622567D01*
X50140267Y-53585606D01*
X49977704Y-53474772D01*
X49977700Y-53474770D01*
X49977697Y-53474768D01*
X49977696Y-53474767D01*
X49741325Y-53360938D01*
X49741327Y-53360938D01*
X49490623Y-53283606D01*
X49490619Y-53283605D01*
X49490615Y-53283604D01*
X49365823Y-53264794D01*
X49231187Y-53244500D01*
X49231182Y-53244500D01*
X48968818Y-53244500D01*
X48968812Y-53244500D01*
X48807247Y-53268853D01*
X48709385Y-53283604D01*
X48709382Y-53283605D01*
X48709376Y-53283606D01*
X48458673Y-53360938D01*
X48222303Y-53474767D01*
X48222302Y-53474768D01*
X48005520Y-53622567D01*
X47813198Y-53801014D01*
X47649614Y-54006143D01*
X47518432Y-54233356D01*
X47422582Y-54477578D01*
X47422576Y-54477597D01*
X47364197Y-54733374D01*
X47364196Y-54733379D01*
X47344592Y-54994995D01*
X40685499Y-54994995D01*
X40685499Y-54442128D01*
X40679091Y-54382517D01*
X40663105Y-54339657D01*
X40628797Y-54247671D01*
X40628793Y-54247664D01*
X40542547Y-54132455D01*
X40542544Y-54132452D01*
X40427335Y-54046206D01*
X40427328Y-54046202D01*
X40292482Y-53995908D01*
X40292483Y-53995908D01*
X40232883Y-53989501D01*
X40232881Y-53989500D01*
X40232873Y-53989500D01*
X40232864Y-53989500D01*
X37357129Y-53989500D01*
X37357123Y-53989501D01*
X37297516Y-53995908D01*
X37162671Y-54046202D01*
X37162664Y-54046206D01*
X37047455Y-54132452D01*
X37047452Y-54132455D01*
X36961206Y-54247664D01*
X36961202Y-54247671D01*
X36910908Y-54382517D01*
X36904501Y-54442116D01*
X36904501Y-54442123D01*
X36904500Y-54442135D01*
X31840500Y-54442135D01*
X31840500Y-53089999D01*
X68571127Y-53089999D01*
X68571128Y-53090000D01*
X69534314Y-53090000D01*
X69529920Y-53094394D01*
X69477259Y-53185606D01*
X69450000Y-53287339D01*
X69450000Y-53392661D01*
X69477259Y-53494394D01*
X69529920Y-53585606D01*
X69534314Y-53590000D01*
X68571128Y-53590000D01*
X68623730Y-53786317D01*
X68623734Y-53786326D01*
X68719865Y-53992482D01*
X68850342Y-54178820D01*
X69011179Y-54339657D01*
X69197517Y-54470134D01*
X69403673Y-54566265D01*
X69403682Y-54566269D01*
X69599999Y-54618872D01*
X69600000Y-54618871D01*
X69600000Y-53655686D01*
X69604394Y-53660080D01*
X69695606Y-53712741D01*
X69797339Y-53740000D01*
X69902661Y-53740000D01*
X70004394Y-53712741D01*
X70095606Y-53660080D01*
X70100000Y-53655686D01*
X70100000Y-54618872D01*
X70296317Y-54566269D01*
X70296326Y-54566265D01*
X70502482Y-54470134D01*
X70688820Y-54339657D01*
X70849657Y-54178820D01*
X70980134Y-53992482D01*
X71076265Y-53786326D01*
X71076269Y-53786317D01*
X71128872Y-53590000D01*
X70165686Y-53590000D01*
X70170080Y-53585606D01*
X70222741Y-53494394D01*
X70250000Y-53392661D01*
X70250000Y-53287339D01*
X70222741Y-53185606D01*
X70170080Y-53094394D01*
X70165686Y-53090000D01*
X71128872Y-53090000D01*
X71128872Y-53089999D01*
X71076269Y-52893682D01*
X71076265Y-52893673D01*
X70980134Y-52687517D01*
X70849657Y-52501179D01*
X70688820Y-52340342D01*
X70502482Y-52209865D01*
X70296328Y-52113734D01*
X70100000Y-52061127D01*
X70100000Y-53024314D01*
X70095606Y-53019920D01*
X70004394Y-52967259D01*
X69902661Y-52940000D01*
X69797339Y-52940000D01*
X69695606Y-52967259D01*
X69604394Y-53019920D01*
X69600000Y-53024314D01*
X69600000Y-52061127D01*
X69403671Y-52113734D01*
X69197517Y-52209865D01*
X69011179Y-52340342D01*
X68850342Y-52501179D01*
X68719865Y-52687517D01*
X68623734Y-52893673D01*
X68623730Y-52893682D01*
X68571127Y-53089999D01*
X31840500Y-53089999D01*
X31840500Y-50799998D01*
X36900172Y-50799998D01*
X36900172Y-50800001D01*
X36919459Y-51069663D01*
X36919460Y-51069670D01*
X36976924Y-51333830D01*
X37071404Y-51587141D01*
X37071406Y-51587145D01*
X37200965Y-51824415D01*
X37200970Y-51824423D01*
X37293464Y-51947980D01*
X37293465Y-51947981D01*
X38011732Y-51229713D01*
X38103692Y-51367342D01*
X38227658Y-51491308D01*
X38365285Y-51583266D01*
X37647017Y-52301533D01*
X37770583Y-52394033D01*
X37770584Y-52394034D01*
X38007854Y-52523593D01*
X38007858Y-52523595D01*
X38261169Y-52618075D01*
X38525329Y-52675539D01*
X38525336Y-52675540D01*
X38794999Y-52694828D01*
X38795001Y-52694828D01*
X39064663Y-52675540D01*
X39064670Y-52675539D01*
X39328830Y-52618075D01*
X39582141Y-52523595D01*
X39582145Y-52523593D01*
X39819424Y-52394029D01*
X39942980Y-52301534D01*
X39942981Y-52301533D01*
X39224714Y-51583267D01*
X39362342Y-51491308D01*
X39486308Y-51367342D01*
X39578267Y-51229714D01*
X40296533Y-51947981D01*
X40296534Y-51947980D01*
X40389029Y-51824424D01*
X40518593Y-51587145D01*
X40518595Y-51587141D01*
X40613075Y-51333830D01*
X40670539Y-51069670D01*
X40670540Y-51069663D01*
X40689828Y-50800001D01*
X40689828Y-50799998D01*
X40670540Y-50530336D01*
X40670539Y-50530329D01*
X40613075Y-50266169D01*
X40518595Y-50012858D01*
X40518593Y-50012854D01*
X40389034Y-49775584D01*
X40389033Y-49775583D01*
X40296533Y-49652017D01*
X39578266Y-50370284D01*
X39486308Y-50232658D01*
X39362342Y-50108692D01*
X39224713Y-50016732D01*
X39942981Y-49298465D01*
X39942980Y-49298464D01*
X39819423Y-49205970D01*
X39819415Y-49205965D01*
X39582145Y-49076406D01*
X39582141Y-49076404D01*
X39328830Y-48981924D01*
X39064670Y-48924460D01*
X39064663Y-48924459D01*
X38795001Y-48905172D01*
X38794999Y-48905172D01*
X38525336Y-48924459D01*
X38525329Y-48924460D01*
X38261169Y-48981924D01*
X38007858Y-49076404D01*
X38007854Y-49076406D01*
X37770584Y-49205965D01*
X37770576Y-49205970D01*
X37647018Y-49298464D01*
X37647017Y-49298465D01*
X38365285Y-50016732D01*
X38227658Y-50108692D01*
X38103692Y-50232658D01*
X38011732Y-50370285D01*
X37293465Y-49652017D01*
X37293464Y-49652018D01*
X37200970Y-49775576D01*
X37200965Y-49775584D01*
X37071406Y-50012854D01*
X37071404Y-50012858D01*
X36976924Y-50266169D01*
X36919460Y-50530329D01*
X36919459Y-50530336D01*
X36900172Y-50799998D01*
X31840500Y-50799998D01*
X31840500Y-45719998D01*
X36900172Y-45719998D01*
X36900172Y-45720001D01*
X36919459Y-45989663D01*
X36919460Y-45989670D01*
X36976924Y-46253830D01*
X37071404Y-46507141D01*
X37071406Y-46507145D01*
X37200965Y-46744415D01*
X37200970Y-46744423D01*
X37293464Y-46867980D01*
X37293465Y-46867981D01*
X38011732Y-46149713D01*
X38103692Y-46287342D01*
X38227658Y-46411308D01*
X38365285Y-46503266D01*
X37647017Y-47221533D01*
X37770583Y-47314033D01*
X37770584Y-47314034D01*
X38007854Y-47443593D01*
X38007858Y-47443595D01*
X38261169Y-47538075D01*
X38525329Y-47595539D01*
X38525336Y-47595540D01*
X38794999Y-47614828D01*
X38795001Y-47614828D01*
X39064663Y-47595540D01*
X39064670Y-47595539D01*
X39328830Y-47538075D01*
X39582141Y-47443595D01*
X39582145Y-47443593D01*
X39819424Y-47314029D01*
X39942980Y-47221534D01*
X39942981Y-47221533D01*
X39711441Y-46989993D01*
X57709700Y-46989993D01*
X57709700Y-46990006D01*
X57728864Y-47221297D01*
X57728866Y-47221308D01*
X57785842Y-47446300D01*
X57879075Y-47658848D01*
X58006016Y-47853147D01*
X58006019Y-47853151D01*
X58006021Y-47853153D01*
X58100803Y-47956114D01*
X58131724Y-48018767D01*
X58123864Y-48088193D01*
X58079716Y-48142348D01*
X58052906Y-48156277D01*
X57972669Y-48186203D01*
X57972664Y-48186206D01*
X57857455Y-48272452D01*
X57857452Y-48272455D01*
X57771206Y-48387664D01*
X57771202Y-48387671D01*
X57720908Y-48522517D01*
X57714501Y-48582116D01*
X57714501Y-48582123D01*
X57714500Y-48582135D01*
X57714500Y-50477870D01*
X57714501Y-50477876D01*
X57720908Y-50537483D01*
X57771202Y-50672328D01*
X57771206Y-50672335D01*
X57857452Y-50787544D01*
X57857455Y-50787547D01*
X57972664Y-50873793D01*
X57972671Y-50873797D01*
X58107517Y-50924091D01*
X58107516Y-50924091D01*
X58114444Y-50924835D01*
X58167127Y-50930500D01*
X60062872Y-50930499D01*
X60122483Y-50924091D01*
X60257331Y-50873796D01*
X60372546Y-50787546D01*
X60458796Y-50672331D01*
X60509091Y-50537483D01*
X60515500Y-50477873D01*
X60515499Y-48582128D01*
X60509091Y-48522517D01*
X60458796Y-48387669D01*
X60458795Y-48387668D01*
X60458793Y-48387664D01*
X60372547Y-48272455D01*
X60372544Y-48272452D01*
X60257335Y-48186206D01*
X60257328Y-48186202D01*
X60177094Y-48156277D01*
X60121160Y-48114406D01*
X60096743Y-48048941D01*
X60111595Y-47980668D01*
X60129190Y-47956121D01*
X60223979Y-47853153D01*
X60350924Y-47658849D01*
X60444157Y-47446300D01*
X60501134Y-47221305D01*
X60520300Y-46990000D01*
X60520300Y-46989993D01*
X60501135Y-46758702D01*
X60501133Y-46758691D01*
X60444157Y-46533699D01*
X60350924Y-46321151D01*
X60223983Y-46126852D01*
X60223980Y-46126849D01*
X60223979Y-46126847D01*
X60066784Y-45956087D01*
X60066779Y-45956083D01*
X60066777Y-45956081D01*
X59883634Y-45813535D01*
X59883628Y-45813531D01*
X59679504Y-45703064D01*
X59679495Y-45703061D01*
X59459984Y-45627702D01*
X59288282Y-45599050D01*
X59231049Y-45589500D01*
X58998951Y-45589500D01*
X58953164Y-45597140D01*
X58770015Y-45627702D01*
X58550504Y-45703061D01*
X58550495Y-45703064D01*
X58346371Y-45813531D01*
X58346365Y-45813535D01*
X58163222Y-45956081D01*
X58163219Y-45956084D01*
X58006016Y-46126852D01*
X57879075Y-46321151D01*
X57785842Y-46533699D01*
X57728866Y-46758691D01*
X57728864Y-46758702D01*
X57709700Y-46989993D01*
X39711441Y-46989993D01*
X39224714Y-46503267D01*
X39362342Y-46411308D01*
X39486308Y-46287342D01*
X39578267Y-46149714D01*
X40296533Y-46867981D01*
X40296534Y-46867980D01*
X40389029Y-46744424D01*
X40518593Y-46507145D01*
X40518595Y-46507141D01*
X40613075Y-46253830D01*
X40670539Y-45989670D01*
X40670540Y-45989663D01*
X40689828Y-45720001D01*
X40689828Y-45719998D01*
X40670540Y-45450336D01*
X40670539Y-45450329D01*
X40613075Y-45186169D01*
X40518595Y-44932858D01*
X40518593Y-44932854D01*
X40389034Y-44695584D01*
X40389033Y-44695583D01*
X40296533Y-44572017D01*
X39578266Y-45290284D01*
X39486308Y-45152658D01*
X39362342Y-45028692D01*
X39224713Y-44936732D01*
X39942981Y-44218465D01*
X39942980Y-44218464D01*
X39819423Y-44125970D01*
X39819415Y-44125965D01*
X39582145Y-43996406D01*
X39582141Y-43996404D01*
X39328830Y-43901924D01*
X39064670Y-43844460D01*
X39064663Y-43844459D01*
X38795001Y-43825172D01*
X38794999Y-43825172D01*
X38525336Y-43844459D01*
X38525329Y-43844460D01*
X38261169Y-43901924D01*
X38007858Y-43996404D01*
X38007854Y-43996406D01*
X37770584Y-44125965D01*
X37770576Y-44125970D01*
X37647018Y-44218464D01*
X37647017Y-44218465D01*
X38365285Y-44936732D01*
X38227658Y-45028692D01*
X38103692Y-45152658D01*
X38011732Y-45290285D01*
X37293465Y-44572017D01*
X37293464Y-44572018D01*
X37200970Y-44695576D01*
X37200965Y-44695584D01*
X37071406Y-44932854D01*
X37071404Y-44932858D01*
X36976924Y-45186169D01*
X36919460Y-45450329D01*
X36919459Y-45450336D01*
X36900172Y-45719998D01*
X31840500Y-45719998D01*
X31840500Y-40639998D01*
X36899671Y-40639998D01*
X36899671Y-40640001D01*
X36918963Y-40909733D01*
X36918964Y-40909740D01*
X36976443Y-41173971D01*
X37070948Y-41427349D01*
X37070950Y-41427353D01*
X37200544Y-41664686D01*
X37200549Y-41664694D01*
X37362599Y-41881169D01*
X37362615Y-41881187D01*
X37553812Y-42072384D01*
X37553830Y-42072400D01*
X37770305Y-42234450D01*
X37770313Y-42234455D01*
X38007646Y-42364049D01*
X38007650Y-42364051D01*
X38007652Y-42364052D01*
X38261024Y-42458555D01*
X38261027Y-42458555D01*
X38261028Y-42458556D01*
X38349105Y-42477715D01*
X38525267Y-42516037D01*
X38775707Y-42533949D01*
X38794999Y-42535329D01*
X38795000Y-42535329D01*
X38795001Y-42535329D01*
X38813005Y-42534041D01*
X39064733Y-42516037D01*
X39328976Y-42458555D01*
X39582348Y-42364052D01*
X39819692Y-42234452D01*
X40036177Y-42072394D01*
X40227394Y-41881177D01*
X40389452Y-41664692D01*
X40465733Y-41524995D01*
X47344592Y-41524995D01*
X47344592Y-41525004D01*
X47364196Y-41786620D01*
X47364197Y-41786625D01*
X47422576Y-42042402D01*
X47422578Y-42042411D01*
X47422580Y-42042416D01*
X47518432Y-42286643D01*
X47649614Y-42513857D01*
X47781736Y-42679533D01*
X47813198Y-42718985D01*
X47994753Y-42887441D01*
X48005521Y-42897433D01*
X48222296Y-43045228D01*
X48222301Y-43045230D01*
X48222302Y-43045231D01*
X48222303Y-43045232D01*
X48347843Y-43105688D01*
X48458673Y-43159061D01*
X48458674Y-43159061D01*
X48458677Y-43159063D01*
X48709385Y-43236396D01*
X48968818Y-43275500D01*
X49231182Y-43275500D01*
X49490615Y-43236396D01*
X49741323Y-43159063D01*
X49977704Y-43045228D01*
X50194479Y-42897433D01*
X50343733Y-42758945D01*
X50386801Y-42718985D01*
X50386801Y-42718983D01*
X50386805Y-42718981D01*
X50550386Y-42513857D01*
X50681568Y-42286643D01*
X50684572Y-42278986D01*
X50727387Y-42223775D01*
X50793257Y-42200474D01*
X50861268Y-42216484D01*
X50909826Y-42266722D01*
X50915422Y-42278973D01*
X50918432Y-42286643D01*
X50918434Y-42286646D01*
X50918435Y-42286649D01*
X50963124Y-42364052D01*
X51049614Y-42513857D01*
X51181736Y-42679533D01*
X51213198Y-42718985D01*
X51394753Y-42887441D01*
X51405521Y-42897433D01*
X51622296Y-43045228D01*
X51622301Y-43045230D01*
X51622302Y-43045231D01*
X51622303Y-43045232D01*
X51747843Y-43105688D01*
X51858673Y-43159061D01*
X51858674Y-43159061D01*
X51858677Y-43159063D01*
X52109385Y-43236396D01*
X52368818Y-43275500D01*
X52631182Y-43275500D01*
X52890615Y-43236396D01*
X53073453Y-43179998D01*
X68544532Y-43179998D01*
X68544532Y-43180001D01*
X68564364Y-43406686D01*
X68564366Y-43406697D01*
X68623258Y-43626488D01*
X68623261Y-43626497D01*
X68719431Y-43832732D01*
X68719432Y-43832734D01*
X68849954Y-44019141D01*
X69010858Y-44180045D01*
X69010861Y-44180047D01*
X69197266Y-44310568D01*
X69403504Y-44406739D01*
X69623308Y-44465635D01*
X69785230Y-44479801D01*
X69849998Y-44485468D01*
X69850000Y-44485468D01*
X69850002Y-44485468D01*
X69906673Y-44480509D01*
X70076692Y-44465635D01*
X70296496Y-44406739D01*
X70502734Y-44310568D01*
X70689139Y-44180047D01*
X70850047Y-44019139D01*
X70980568Y-43832734D01*
X71076739Y-43626496D01*
X71135635Y-43406692D01*
X71155468Y-43180000D01*
X71135635Y-42953308D01*
X71076739Y-42733504D01*
X70980568Y-42527266D01*
X70850047Y-42340861D01*
X70850045Y-42340858D01*
X70689141Y-42179954D01*
X70502734Y-42049432D01*
X70502732Y-42049431D01*
X70296497Y-41953261D01*
X70296488Y-41953258D01*
X70076697Y-41894366D01*
X70076693Y-41894365D01*
X70076692Y-41894365D01*
X70076691Y-41894364D01*
X70076686Y-41894364D01*
X69850002Y-41874532D01*
X69849998Y-41874532D01*
X69623313Y-41894364D01*
X69623302Y-41894366D01*
X69403511Y-41953258D01*
X69403502Y-41953261D01*
X69197267Y-42049431D01*
X69197265Y-42049432D01*
X69010858Y-42179954D01*
X68849954Y-42340858D01*
X68719432Y-42527265D01*
X68719431Y-42527267D01*
X68623261Y-42733502D01*
X68623258Y-42733511D01*
X68564366Y-42953302D01*
X68564364Y-42953313D01*
X68544532Y-43179998D01*
X53073453Y-43179998D01*
X53141323Y-43159063D01*
X53377704Y-43045228D01*
X53594479Y-42897433D01*
X53743733Y-42758945D01*
X53786801Y-42718985D01*
X53786801Y-42718983D01*
X53786805Y-42718981D01*
X53950386Y-42513857D01*
X54081568Y-42286643D01*
X54177420Y-42042416D01*
X54235802Y-41786630D01*
X54255408Y-41525000D01*
X54248090Y-41427349D01*
X54235803Y-41263379D01*
X54235802Y-41263374D01*
X54235802Y-41263370D01*
X54177420Y-41007584D01*
X54081568Y-40763357D01*
X53950386Y-40536143D01*
X53786805Y-40331019D01*
X53786804Y-40331018D01*
X53786801Y-40331014D01*
X53594479Y-40152567D01*
X53526213Y-40106024D01*
X53377704Y-40004772D01*
X53377700Y-40004770D01*
X53377697Y-40004768D01*
X53377696Y-40004767D01*
X53141325Y-39890938D01*
X53141327Y-39890938D01*
X52890623Y-39813606D01*
X52890619Y-39813605D01*
X52890615Y-39813604D01*
X52765823Y-39794794D01*
X52631187Y-39774500D01*
X52631182Y-39774500D01*
X52368818Y-39774500D01*
X52368812Y-39774500D01*
X52207247Y-39798853D01*
X52109385Y-39813604D01*
X52109382Y-39813605D01*
X52109376Y-39813606D01*
X51858673Y-39890938D01*
X51622303Y-40004767D01*
X51622302Y-40004768D01*
X51405520Y-40152567D01*
X51213198Y-40331014D01*
X51049614Y-40536143D01*
X50918432Y-40763356D01*
X50915427Y-40771013D01*
X50872610Y-40826226D01*
X50806739Y-40849525D01*
X50738729Y-40833513D01*
X50690172Y-40783274D01*
X50684573Y-40771013D01*
X50683715Y-40768828D01*
X50681568Y-40763357D01*
X50550386Y-40536143D01*
X50386805Y-40331019D01*
X50386804Y-40331018D01*
X50386801Y-40331014D01*
X50194479Y-40152567D01*
X50126213Y-40106024D01*
X49977704Y-40004772D01*
X49977700Y-40004770D01*
X49977697Y-40004768D01*
X49977696Y-40004767D01*
X49741325Y-39890938D01*
X49741327Y-39890938D01*
X49490623Y-39813606D01*
X49490619Y-39813605D01*
X49490615Y-39813604D01*
X49365823Y-39794794D01*
X49231187Y-39774500D01*
X49231182Y-39774500D01*
X48968818Y-39774500D01*
X48968812Y-39774500D01*
X48807247Y-39798853D01*
X48709385Y-39813604D01*
X48709382Y-39813605D01*
X48709376Y-39813606D01*
X48458673Y-39890938D01*
X48222303Y-40004767D01*
X48222302Y-40004768D01*
X48005520Y-40152567D01*
X47813198Y-40331014D01*
X47649614Y-40536143D01*
X47518432Y-40763356D01*
X47422582Y-41007578D01*
X47422576Y-41007597D01*
X47364197Y-41263374D01*
X47364196Y-41263379D01*
X47344592Y-41524995D01*
X40465733Y-41524995D01*
X40519052Y-41427348D01*
X40613555Y-41173976D01*
X40671037Y-40909733D01*
X40690329Y-40640000D01*
X40671037Y-40370267D01*
X40613555Y-40106024D01*
X40519052Y-39852652D01*
X40389452Y-39615308D01*
X40389450Y-39615305D01*
X40227400Y-39398830D01*
X40227384Y-39398812D01*
X40036187Y-39207615D01*
X40036169Y-39207599D01*
X39819694Y-39045549D01*
X39819686Y-39045544D01*
X39582353Y-38915950D01*
X39582349Y-38915948D01*
X39328971Y-38821443D01*
X39064740Y-38763964D01*
X39064733Y-38763963D01*
X38795001Y-38744671D01*
X38794999Y-38744671D01*
X38525266Y-38763963D01*
X38525259Y-38763964D01*
X38261028Y-38821443D01*
X38007650Y-38915948D01*
X38007646Y-38915950D01*
X37770313Y-39045544D01*
X37770305Y-39045549D01*
X37553830Y-39207599D01*
X37553812Y-39207615D01*
X37362615Y-39398812D01*
X37362599Y-39398830D01*
X37200549Y-39615305D01*
X37200544Y-39615313D01*
X37070950Y-39852646D01*
X37070948Y-39852650D01*
X36976443Y-40106028D01*
X36918964Y-40370259D01*
X36918963Y-40370266D01*
X36899671Y-40639998D01*
X31840500Y-40639998D01*
X31840500Y-35112486D01*
X57549500Y-35112486D01*
X57549500Y-35407513D01*
X57579889Y-35638333D01*
X57588007Y-35699993D01*
X57639687Y-35892866D01*
X57664361Y-35984951D01*
X57664364Y-35984961D01*
X57777254Y-36257500D01*
X57777258Y-36257510D01*
X57924761Y-36512993D01*
X58104352Y-36747040D01*
X58104358Y-36747047D01*
X58312952Y-36955641D01*
X58312959Y-36955647D01*
X58547006Y-37135238D01*
X58802489Y-37282741D01*
X58802490Y-37282741D01*
X58802493Y-37282743D01*
X59075048Y-37395639D01*
X59360007Y-37471993D01*
X59652494Y-37510500D01*
X59652501Y-37510500D01*
X59947499Y-37510500D01*
X59947506Y-37510500D01*
X60239993Y-37471993D01*
X60524952Y-37395639D01*
X60797507Y-37282743D01*
X61052994Y-37135238D01*
X61287042Y-36955646D01*
X61495646Y-36747042D01*
X61675238Y-36512994D01*
X61822743Y-36257507D01*
X61935639Y-35984952D01*
X62011993Y-35699993D01*
X62050500Y-35407506D01*
X62050500Y-35112494D01*
X62011993Y-34820007D01*
X61970463Y-34665013D01*
X65940000Y-34665013D01*
X65940000Y-35310000D01*
X66767291Y-35310000D01*
X66755548Y-35330339D01*
X66715000Y-35481667D01*
X66715000Y-35638333D01*
X66755548Y-35789661D01*
X66767291Y-35810000D01*
X65940001Y-35810000D01*
X65940001Y-36454986D01*
X65950494Y-36557697D01*
X66005641Y-36724119D01*
X66005643Y-36724124D01*
X66097684Y-36873345D01*
X66221654Y-36997315D01*
X66370875Y-37089356D01*
X66370880Y-37089358D01*
X66537302Y-37144505D01*
X66537309Y-37144506D01*
X66640019Y-37154999D01*
X67059999Y-37154999D01*
X67060000Y-37154998D01*
X67060000Y-36102709D01*
X67080339Y-36114452D01*
X67231667Y-36155000D01*
X67388333Y-36155000D01*
X67539661Y-36114452D01*
X67560000Y-36102709D01*
X67560000Y-37154999D01*
X67979972Y-37154999D01*
X67979986Y-37154998D01*
X68082697Y-37144505D01*
X68249119Y-37089358D01*
X68249124Y-37089356D01*
X68398345Y-36997315D01*
X68522315Y-36873345D01*
X68614354Y-36724127D01*
X68614745Y-36723289D01*
X68615167Y-36722809D01*
X68618149Y-36717975D01*
X68618974Y-36718484D01*
X68660910Y-36670843D01*
X68728100Y-36651681D01*
X68794984Y-36671887D01*
X68814816Y-36687996D01*
X68957179Y-36830359D01*
X69131701Y-36957157D01*
X69323911Y-37055092D01*
X69529074Y-37121754D01*
X69608973Y-37134408D01*
X69742134Y-37155500D01*
X69742139Y-37155500D01*
X69957866Y-37155500D01*
X70085791Y-37135238D01*
X70170926Y-37121754D01*
X70376089Y-37055092D01*
X70568299Y-36957157D01*
X70742821Y-36830359D01*
X70895359Y-36677821D01*
X71022157Y-36503299D01*
X71120092Y-36311089D01*
X71186754Y-36105926D01*
X71205914Y-35984952D01*
X71220500Y-35892866D01*
X71220500Y-35227133D01*
X71186754Y-35014077D01*
X71186754Y-35014074D01*
X71120092Y-34808911D01*
X71046773Y-34665013D01*
X73560000Y-34665013D01*
X73560000Y-35310000D01*
X74387291Y-35310000D01*
X74375548Y-35330339D01*
X74335000Y-35481667D01*
X74335000Y-35638333D01*
X74375548Y-35789661D01*
X74387291Y-35810000D01*
X73560001Y-35810000D01*
X73560001Y-36454986D01*
X73570494Y-36557697D01*
X73625641Y-36724119D01*
X73625643Y-36724124D01*
X73717684Y-36873345D01*
X73841654Y-36997315D01*
X73990875Y-37089356D01*
X73990880Y-37089358D01*
X74157302Y-37144505D01*
X74157309Y-37144506D01*
X74260019Y-37154999D01*
X74679999Y-37154999D01*
X74680000Y-37154998D01*
X74680000Y-36102709D01*
X74700339Y-36114452D01*
X74851667Y-36155000D01*
X75008333Y-36155000D01*
X75159661Y-36114452D01*
X75180000Y-36102709D01*
X75180000Y-37154999D01*
X75599972Y-37154999D01*
X75599986Y-37154998D01*
X75702697Y-37144505D01*
X75869119Y-37089358D01*
X75869124Y-37089356D01*
X76018345Y-36997315D01*
X76142315Y-36873345D01*
X76234354Y-36724127D01*
X76234745Y-36723289D01*
X76235167Y-36722809D01*
X76238149Y-36717975D01*
X76238974Y-36718484D01*
X76280910Y-36670843D01*
X76348100Y-36651681D01*
X76414984Y-36671887D01*
X76434816Y-36687996D01*
X76577179Y-36830359D01*
X76751701Y-36957157D01*
X76943911Y-37055092D01*
X77149074Y-37121754D01*
X77228973Y-37134408D01*
X77362134Y-37155500D01*
X77362139Y-37155500D01*
X77577866Y-37155500D01*
X77705791Y-37135238D01*
X77790926Y-37121754D01*
X77996089Y-37055092D01*
X78188299Y-36957157D01*
X78362821Y-36830359D01*
X78515359Y-36677821D01*
X78642157Y-36503299D01*
X78740092Y-36311089D01*
X78806754Y-36105926D01*
X78825914Y-35984952D01*
X78840500Y-35892866D01*
X78840500Y-35227133D01*
X78806754Y-35014077D01*
X78806754Y-35014074D01*
X78740092Y-34808911D01*
X78642157Y-34616701D01*
X78515359Y-34442179D01*
X78362821Y-34289641D01*
X78188299Y-34162843D01*
X77996089Y-34064908D01*
X77790926Y-33998246D01*
X77790924Y-33998245D01*
X77790922Y-33998245D01*
X77577866Y-33964500D01*
X77577861Y-33964500D01*
X77362139Y-33964500D01*
X77362134Y-33964500D01*
X77149077Y-33998245D01*
X76943908Y-34064909D01*
X76751700Y-34162843D01*
X76577180Y-34289640D01*
X76434816Y-34432004D01*
X76373493Y-34465488D01*
X76303801Y-34460504D01*
X76247868Y-34418632D01*
X76234748Y-34396716D01*
X76234356Y-34395876D01*
X76142315Y-34246654D01*
X76018345Y-34122684D01*
X75869124Y-34030643D01*
X75869119Y-34030641D01*
X75702697Y-33975494D01*
X75702690Y-33975493D01*
X75599986Y-33965000D01*
X75180000Y-33965000D01*
X75180000Y-35017290D01*
X75159661Y-35005548D01*
X75008333Y-34965000D01*
X74851667Y-34965000D01*
X74700339Y-35005548D01*
X74680000Y-35017290D01*
X74680000Y-33965000D01*
X74260028Y-33965000D01*
X74260012Y-33965001D01*
X74157302Y-33975494D01*
X73990880Y-34030641D01*
X73990875Y-34030643D01*
X73841654Y-34122684D01*
X73717684Y-34246654D01*
X73625643Y-34395875D01*
X73625641Y-34395880D01*
X73570494Y-34562302D01*
X73570493Y-34562309D01*
X73560000Y-34665013D01*
X71046773Y-34665013D01*
X71022157Y-34616701D01*
X70895359Y-34442179D01*
X70742821Y-34289641D01*
X70568299Y-34162843D01*
X70376089Y-34064908D01*
X70170926Y-33998246D01*
X70170924Y-33998245D01*
X70170922Y-33998245D01*
X69957866Y-33964500D01*
X69957861Y-33964500D01*
X69742139Y-33964500D01*
X69742134Y-33964500D01*
X69529077Y-33998245D01*
X69323908Y-34064909D01*
X69131700Y-34162843D01*
X68957180Y-34289640D01*
X68814816Y-34432004D01*
X68753493Y-34465488D01*
X68683801Y-34460504D01*
X68627868Y-34418632D01*
X68614748Y-34396716D01*
X68614356Y-34395876D01*
X68522315Y-34246654D01*
X68398345Y-34122684D01*
X68249124Y-34030643D01*
X68249119Y-34030641D01*
X68082697Y-33975494D01*
X68082690Y-33975493D01*
X67979986Y-33965000D01*
X67560000Y-33965000D01*
X67560000Y-35017290D01*
X67539661Y-35005548D01*
X67388333Y-34965000D01*
X67231667Y-34965000D01*
X67080339Y-35005548D01*
X67060000Y-35017290D01*
X67060000Y-33965000D01*
X66640028Y-33965000D01*
X66640012Y-33965001D01*
X66537302Y-33975494D01*
X66370880Y-34030641D01*
X66370875Y-34030643D01*
X66221654Y-34122684D01*
X66097684Y-34246654D01*
X66005643Y-34395875D01*
X66005641Y-34395880D01*
X65950494Y-34562302D01*
X65950493Y-34562309D01*
X65940000Y-34665013D01*
X61970463Y-34665013D01*
X61935639Y-34535048D01*
X61822743Y-34262493D01*
X61813598Y-34246654D01*
X61675238Y-34007006D01*
X61495647Y-33772959D01*
X61495641Y-33772952D01*
X61287047Y-33564358D01*
X61287040Y-33564352D01*
X61052993Y-33384761D01*
X60797510Y-33237258D01*
X60797500Y-33237254D01*
X60524961Y-33124364D01*
X60524954Y-33124362D01*
X60524952Y-33124361D01*
X60239993Y-33048007D01*
X60191113Y-33041571D01*
X59947513Y-33009500D01*
X59947506Y-33009500D01*
X59652494Y-33009500D01*
X59652486Y-33009500D01*
X59374085Y-33046153D01*
X59360007Y-33048007D01*
X59075048Y-33124361D01*
X59075038Y-33124364D01*
X58802499Y-33237254D01*
X58802489Y-33237258D01*
X58547006Y-33384761D01*
X58312959Y-33564352D01*
X58312952Y-33564358D01*
X58104358Y-33772952D01*
X58104352Y-33772959D01*
X57924761Y-34007006D01*
X57777258Y-34262489D01*
X57777254Y-34262499D01*
X57664364Y-34535038D01*
X57664361Y-34535048D01*
X57657057Y-34562309D01*
X57588008Y-34820004D01*
X57588006Y-34820015D01*
X57549500Y-35112486D01*
X31840500Y-35112486D01*
X31840500Y-30884500D01*
X31860185Y-30817461D01*
X31912989Y-30771706D01*
X31964500Y-30760500D01*
X80715500Y-30760500D01*
X80782539Y-30780185D01*
G37*
%TD.AperFunction*%
%TD*%
M02*
