M48
; DRILL file {KiCad 8.0.8} date 2025-04-28T22:16:36+0200
; FORMAT={-:-/ absolute / inch / decimal}
; #@! TF.CreationDate,2025-04-28T22:16:36+02:00
; #@! TF.GenerationSoftware,Kicad,Pcbnew,8.0.8
; #@! TF.FileFunction,Plated,1,2,PTH
FMAT,2
INCH
; #@! TA.AperFunction,Plated,PTH,ComponentDrill
T1C0.0315
; #@! TA.AperFunction,Plated,PTH,ComponentDrill
T2C0.0354
; #@! TA.AperFunction,Plated,PTH,ComponentDrill
T3C0.0469
; #@! TA.AperFunction,Plated,PTH,ComponentDrill
T4C0.0630
; #@! TA.AperFunction,Plated,PTH,ComponentDrill
T5C0.0701
%
G90
G05
T1
X2.75Y-1.7
X2.75Y-2.1
T2
X2.3274Y-1.85
X2.3274Y-1.95
T3
X2.65Y-1.4
X2.65Y-2.4
X2.75Y-1.4
X2.75Y-2.4
X2.95Y-1.4
X2.95Y-2.4
X3.05Y-1.4
X3.05Y-2.4
T4
X1.9331Y-1.6348
X1.9331Y-2.1652
X2.0669Y-1.6348
X2.0669Y-2.1652
T5
X1.5274Y-1.6
X1.5274Y-1.8
X1.5274Y-2.0
X1.5274Y-2.2
M30
