%TF.GenerationSoftware,KiCad,Pcbnew,8.0.8*%
%TF.CreationDate,2025-04-28T22:16:34+02:00*%
%TF.ProjectId,stern-aux-power-distribution,73746572-6e2d-4617-9578-2d706f776572,rev?*%
%TF.SameCoordinates,Original*%
%TF.FileFunction,Copper,L2,Bot*%
%TF.FilePolarity,Positive*%
%FSLAX46Y46*%
G04 Gerber Fmt 4.6, Leading zero omitted, Abs format (unit mm)*
G04 Created by KiCad (PCBNEW 8.0.8) date 2025-04-28 22:16:34*
%MOMM*%
%LPD*%
G01*
G04 APERTURE LIST*
G04 Aperture macros list*
%AMRoundRect*
0 Rectangle with rounded corners*
0 $1 Rounding radius*
0 $2 $3 $4 $5 $6 $7 $8 $9 X,Y pos of 4 corners*
0 Add a 4 corners polygon primitive as box body*
4,1,4,$2,$3,$4,$5,$6,$7,$8,$9,$2,$3,0*
0 Add four circle primitives for the rounded corners*
1,1,$1+$1,$2,$3*
1,1,$1+$1,$4,$5*
1,1,$1+$1,$6,$7*
1,1,$1+$1,$8,$9*
0 Add four rect primitives between the rounded corners*
20,1,$1+$1,$2,$3,$4,$5,0*
20,1,$1+$1,$4,$5,$6,$7,0*
20,1,$1+$1,$6,$7,$8,$9,0*
20,1,$1+$1,$8,$9,$2,$3,0*%
G04 Aperture macros list end*
%TA.AperFunction,ComponentPad*%
%ADD10C,2.500000*%
%TD*%
%TA.AperFunction,ComponentPad*%
%ADD11RoundRect,0.250000X-0.620000X-0.845000X0.620000X-0.845000X0.620000X0.845000X-0.620000X0.845000X0*%
%TD*%
%TA.AperFunction,ComponentPad*%
%ADD12O,1.740000X2.190000*%
%TD*%
%TA.AperFunction,ComponentPad*%
%ADD13C,1.600000*%
%TD*%
%TA.AperFunction,ComponentPad*%
%ADD14O,1.600000X1.600000*%
%TD*%
%TA.AperFunction,ComponentPad*%
%ADD15RoundRect,0.250000X0.620000X0.845000X-0.620000X0.845000X-0.620000X-0.845000X0.620000X-0.845000X0*%
%TD*%
%TA.AperFunction,ComponentPad*%
%ADD16R,1.800000X1.800000*%
%TD*%
%TA.AperFunction,ComponentPad*%
%ADD17C,1.800000*%
%TD*%
%TA.AperFunction,ComponentPad*%
%ADD18R,2.780000X2.780000*%
%TD*%
%TA.AperFunction,ComponentPad*%
%ADD19C,2.780000*%
%TD*%
%TA.AperFunction,Conductor*%
%ADD20C,2.000000*%
%TD*%
G04 APERTURE END LIST*
D10*
%TO.P,F1,1*%
%TO.N,Net-(J1-Pin_1)*%
X49100000Y-54995000D03*
X52500000Y-54995000D03*
%TO.P,F1,2*%
%TO.N,+12V*%
X49100000Y-41525000D03*
X52500000Y-41525000D03*
%TD*%
D11*
%TO.P,J2,1,Pin_1*%
%TO.N,GND*%
X67310000Y-35560000D03*
D12*
%TO.P,J2,2,Pin_2*%
%TO.N,+12V*%
X69850000Y-35560000D03*
%TD*%
D13*
%TO.P,R1,1*%
%TO.N,Net-(D1-K)*%
X69850000Y-43180000D03*
D14*
%TO.P,R1,2*%
%TO.N,GND*%
X69850000Y-53340000D03*
%TD*%
D11*
%TO.P,J3,1,Pin_1*%
%TO.N,GND*%
X74930000Y-35560000D03*
D12*
%TO.P,J3,2,Pin_2*%
%TO.N,+12V*%
X77470000Y-35560000D03*
%TD*%
D15*
%TO.P,J4,1,Pin_1*%
%TO.N,GND*%
X69850000Y-60960000D03*
D12*
%TO.P,J4,2,Pin_2*%
%TO.N,+12V*%
X67310000Y-60960000D03*
%TD*%
D16*
%TO.P,D1,1,K*%
%TO.N,Net-(D1-K)*%
X59115000Y-49530000D03*
D17*
%TO.P,D1,2,A*%
%TO.N,+12V*%
X59115000Y-46990000D03*
%TD*%
D18*
%TO.P,J1,1,Pin_1*%
%TO.N,Net-(J1-Pin_1)*%
X38795000Y-55880000D03*
D19*
%TO.P,J1,2,Pin_2*%
%TO.N,GND*%
X38795000Y-50800000D03*
%TO.P,J1,3,Pin_3*%
X38795000Y-45720000D03*
%TO.P,J1,4,Pin_4*%
%TO.N,unconnected-(J1-Pin_4-Pad4)*%
X38795000Y-40640000D03*
%TD*%
D15*
%TO.P,J5,1,Pin_1*%
%TO.N,GND*%
X77470000Y-60960000D03*
D12*
%TO.P,J5,2,Pin_2*%
%TO.N,+12V*%
X74930000Y-60960000D03*
%TD*%
D20*
%TO.N,Net-(J1-Pin_1)*%
X44760000Y-54995000D02*
X43875000Y-55880000D01*
X52500000Y-54995000D02*
X44760000Y-54995000D01*
X43875000Y-55880000D02*
X38795000Y-55880000D01*
%TO.N,Net-(D1-K)*%
X59115000Y-49530000D02*
X63500000Y-49530000D01*
X69850000Y-43180000D02*
X63500000Y-49530000D01*
%TD*%
%TA.AperFunction,Conductor*%
%TO.N,+12V*%
G36*
X80782539Y-30780185D02*
G01*
X80828294Y-30832989D01*
X80839500Y-30884500D01*
X80839500Y-65635500D01*
X80819815Y-65702539D01*
X80767011Y-65748294D01*
X80715500Y-65759500D01*
X56004000Y-65759500D01*
X55936961Y-65739815D01*
X55891206Y-65687011D01*
X55880000Y-65635500D01*
X55880000Y-61112486D01*
X57549500Y-61112486D01*
X57549500Y-61407513D01*
X57568918Y-61555000D01*
X57588007Y-61699993D01*
X57657085Y-61957797D01*
X57664361Y-61984951D01*
X57664364Y-61984961D01*
X57777254Y-62257500D01*
X57777258Y-62257510D01*
X57924761Y-62512993D01*
X58104352Y-62747040D01*
X58104358Y-62747047D01*
X58312952Y-62955641D01*
X58312959Y-62955647D01*
X58547006Y-63135238D01*
X58802489Y-63282741D01*
X58802490Y-63282741D01*
X58802493Y-63282743D01*
X59075048Y-63395639D01*
X59360007Y-63471993D01*
X59652494Y-63510500D01*
X59652501Y-63510500D01*
X59947499Y-63510500D01*
X59947506Y-63510500D01*
X60239993Y-63471993D01*
X60524952Y-63395639D01*
X60797507Y-63282743D01*
X61052994Y-63135238D01*
X61287042Y-62955646D01*
X61495646Y-62747042D01*
X61675238Y-62512994D01*
X61822743Y-62257507D01*
X61935639Y-61984952D01*
X62011993Y-61699993D01*
X62050500Y-61407506D01*
X62050500Y-61112494D01*
X62011993Y-60820007D01*
X61960325Y-60627179D01*
X65940000Y-60627179D01*
X65940000Y-60710000D01*
X66767291Y-60710000D01*
X66755548Y-60730339D01*
X66715000Y-60881667D01*
X66715000Y-61038333D01*
X66755548Y-61189661D01*
X66767291Y-61210000D01*
X65940000Y-61210000D01*
X65940000Y-61292820D01*
X65973734Y-61505809D01*
X66040372Y-61710901D01*
X66138271Y-61903036D01*
X66265025Y-62077496D01*
X66265025Y-62077497D01*
X66417502Y-62229974D01*
X66591963Y-62356728D01*
X66784098Y-62454627D01*
X66989190Y-62521266D01*
X67060000Y-62532481D01*
X67060000Y-61502709D01*
X67080339Y-61514452D01*
X67231667Y-61555000D01*
X67388333Y-61555000D01*
X67539661Y-61514452D01*
X67560000Y-61502709D01*
X67560000Y-62532480D01*
X67630809Y-62521266D01*
X67835901Y-62454627D01*
X68028036Y-62356728D01*
X68202493Y-62229977D01*
X68344578Y-62087892D01*
X68405901Y-62054407D01*
X68475593Y-62059391D01*
X68531527Y-62101262D01*
X68544640Y-62123165D01*
X68545181Y-62124325D01*
X68545185Y-62124331D01*
X68545186Y-62124334D01*
X68637288Y-62273656D01*
X68761344Y-62397712D01*
X68910666Y-62489814D01*
X69077203Y-62544999D01*
X69179991Y-62555500D01*
X70520008Y-62555499D01*
X70622797Y-62544999D01*
X70789334Y-62489814D01*
X70938656Y-62397712D01*
X71062712Y-62273656D01*
X71154814Y-62124334D01*
X71209999Y-61957797D01*
X71220500Y-61855009D01*
X71220499Y-60627179D01*
X73560000Y-60627179D01*
X73560000Y-60710000D01*
X74387291Y-60710000D01*
X74375548Y-60730339D01*
X74335000Y-60881667D01*
X74335000Y-61038333D01*
X74375548Y-61189661D01*
X74387291Y-61210000D01*
X73560000Y-61210000D01*
X73560000Y-61292820D01*
X73593734Y-61505809D01*
X73660372Y-61710901D01*
X73758271Y-61903036D01*
X73885025Y-62077496D01*
X73885025Y-62077497D01*
X74037502Y-62229974D01*
X74211963Y-62356728D01*
X74404098Y-62454627D01*
X74609190Y-62521266D01*
X74680000Y-62532481D01*
X74680000Y-61502709D01*
X74700339Y-61514452D01*
X74851667Y-61555000D01*
X75008333Y-61555000D01*
X75159661Y-61514452D01*
X75180000Y-61502709D01*
X75180000Y-62532480D01*
X75250809Y-62521266D01*
X75455901Y-62454627D01*
X75648036Y-62356728D01*
X75822493Y-62229977D01*
X75964578Y-62087892D01*
X76025901Y-62054407D01*
X76095593Y-62059391D01*
X76151527Y-62101262D01*
X76164640Y-62123165D01*
X76165181Y-62124325D01*
X76165185Y-62124331D01*
X76165186Y-62124334D01*
X76257288Y-62273656D01*
X76381344Y-62397712D01*
X76530666Y-62489814D01*
X76697203Y-62544999D01*
X76799991Y-62555500D01*
X78140008Y-62555499D01*
X78242797Y-62544999D01*
X78409334Y-62489814D01*
X78558656Y-62397712D01*
X78682712Y-62273656D01*
X78774814Y-62124334D01*
X78829999Y-61957797D01*
X78840500Y-61855009D01*
X78840499Y-60064992D01*
X78829999Y-59962203D01*
X78774814Y-59795666D01*
X78682712Y-59646344D01*
X78558656Y-59522288D01*
X78409334Y-59430186D01*
X78242797Y-59375001D01*
X78242795Y-59375000D01*
X78140010Y-59364500D01*
X76799998Y-59364500D01*
X76799981Y-59364501D01*
X76697203Y-59375000D01*
X76697200Y-59375001D01*
X76530668Y-59430185D01*
X76530663Y-59430187D01*
X76381342Y-59522289D01*
X76257289Y-59646342D01*
X76165182Y-59795672D01*
X76164638Y-59796840D01*
X76164051Y-59797505D01*
X76161395Y-59801813D01*
X76160658Y-59801358D01*
X76118461Y-59849275D01*
X76051266Y-59868422D01*
X75984387Y-59848201D01*
X75964579Y-59832107D01*
X75822497Y-59690025D01*
X75648036Y-59563271D01*
X75455899Y-59465372D01*
X75250805Y-59398733D01*
X75180000Y-59387518D01*
X75180000Y-60417290D01*
X75159661Y-60405548D01*
X75008333Y-60365000D01*
X74851667Y-60365000D01*
X74700339Y-60405548D01*
X74680000Y-60417290D01*
X74680000Y-59387518D01*
X74679999Y-59387518D01*
X74609194Y-59398733D01*
X74404100Y-59465372D01*
X74211963Y-59563271D01*
X74037503Y-59690025D01*
X74037502Y-59690025D01*
X73885025Y-59842502D01*
X73885025Y-59842503D01*
X73758271Y-60016963D01*
X73660372Y-60209098D01*
X73593734Y-60414190D01*
X73560000Y-60627179D01*
X71220499Y-60627179D01*
X71220499Y-60064992D01*
X71209999Y-59962203D01*
X71154814Y-59795666D01*
X71062712Y-59646344D01*
X70938656Y-59522288D01*
X70789334Y-59430186D01*
X70622797Y-59375001D01*
X70622795Y-59375000D01*
X70520010Y-59364500D01*
X69179998Y-59364500D01*
X69179981Y-59364501D01*
X69077203Y-59375000D01*
X69077200Y-59375001D01*
X68910668Y-59430185D01*
X68910663Y-59430187D01*
X68761342Y-59522289D01*
X68637289Y-59646342D01*
X68545182Y-59795672D01*
X68544638Y-59796840D01*
X68544051Y-59797505D01*
X68541395Y-59801813D01*
X68540658Y-59801358D01*
X68498461Y-59849275D01*
X68431266Y-59868422D01*
X68364387Y-59848201D01*
X68344579Y-59832107D01*
X68202497Y-59690025D01*
X68028036Y-59563271D01*
X67835899Y-59465372D01*
X67630805Y-59398733D01*
X67560000Y-59387518D01*
X67560000Y-60417290D01*
X67539661Y-60405548D01*
X67388333Y-60365000D01*
X67231667Y-60365000D01*
X67080339Y-60405548D01*
X67060000Y-60417290D01*
X67060000Y-59387518D01*
X67059999Y-59387518D01*
X66989194Y-59398733D01*
X66784100Y-59465372D01*
X66591963Y-59563271D01*
X66417503Y-59690025D01*
X66417502Y-59690025D01*
X66265025Y-59842502D01*
X66265025Y-59842503D01*
X66138271Y-60016963D01*
X66040372Y-60209098D01*
X65973734Y-60414190D01*
X65940000Y-60627179D01*
X61960325Y-60627179D01*
X61935639Y-60535048D01*
X61822743Y-60262493D01*
X61791915Y-60209098D01*
X61675238Y-60007006D01*
X61495647Y-59772959D01*
X61495641Y-59772952D01*
X61287047Y-59564358D01*
X61287040Y-59564352D01*
X61052993Y-59384761D01*
X60797510Y-59237258D01*
X60797500Y-59237254D01*
X60524961Y-59124364D01*
X60524954Y-59124362D01*
X60524952Y-59124361D01*
X60239993Y-59048007D01*
X60191113Y-59041571D01*
X59947513Y-59009500D01*
X59947506Y-59009500D01*
X59652494Y-59009500D01*
X59652486Y-59009500D01*
X59374085Y-59046153D01*
X59360007Y-59048007D01*
X59075048Y-59124361D01*
X59075038Y-59124364D01*
X58802499Y-59237254D01*
X58802489Y-59237258D01*
X58547006Y-59384761D01*
X58312959Y-59564352D01*
X58312952Y-59564358D01*
X58104358Y-59772952D01*
X58104352Y-59772959D01*
X57924761Y-60007006D01*
X57777258Y-60262489D01*
X57777254Y-60262499D01*
X57664364Y-60535038D01*
X57664361Y-60535048D01*
X57588008Y-60820004D01*
X57588006Y-60820015D01*
X57549500Y-61112486D01*
X55880000Y-61112486D01*
X55880000Y-53339998D01*
X68544532Y-53339998D01*
X68544532Y-53340001D01*
X68564364Y-53566686D01*
X68564366Y-53566697D01*
X68623258Y-53786488D01*
X68623261Y-53786497D01*
X68719431Y-53992732D01*
X68719432Y-53992734D01*
X68849954Y-54179141D01*
X69010858Y-54340045D01*
X69010861Y-54340047D01*
X69197266Y-54470568D01*
X69403504Y-54566739D01*
X69623308Y-54625635D01*
X69785230Y-54639801D01*
X69849998Y-54645468D01*
X69850000Y-54645468D01*
X69850002Y-54645468D01*
X69906673Y-54640509D01*
X70076692Y-54625635D01*
X70296496Y-54566739D01*
X70502734Y-54470568D01*
X70689139Y-54340047D01*
X70850047Y-54179139D01*
X70980568Y-53992734D01*
X71076739Y-53786496D01*
X71135635Y-53566692D01*
X71155468Y-53340000D01*
X71135635Y-53113308D01*
X71076739Y-52893504D01*
X70980568Y-52687266D01*
X70850047Y-52500861D01*
X70850045Y-52500858D01*
X70689141Y-52339954D01*
X70502734Y-52209432D01*
X70502732Y-52209431D01*
X70296497Y-52113261D01*
X70296488Y-52113258D01*
X70076697Y-52054366D01*
X70076693Y-52054365D01*
X70076692Y-52054365D01*
X70076691Y-52054364D01*
X70076686Y-52054364D01*
X69850002Y-52034532D01*
X69849998Y-52034532D01*
X69623313Y-52054364D01*
X69623302Y-52054366D01*
X69403511Y-52113258D01*
X69403502Y-52113261D01*
X69197267Y-52209431D01*
X69197265Y-52209432D01*
X69010858Y-52339954D01*
X68849954Y-52500858D01*
X68719432Y-52687265D01*
X68719431Y-52687267D01*
X68623261Y-52893502D01*
X68623258Y-52893511D01*
X68564366Y-53113302D01*
X68564364Y-53113313D01*
X68544532Y-53339998D01*
X55880000Y-53339998D01*
X55880000Y-49411902D01*
X57614500Y-49411902D01*
X57614500Y-49648097D01*
X57651446Y-49881368D01*
X57708431Y-50056747D01*
X57714500Y-50095065D01*
X57714500Y-50477869D01*
X57714501Y-50477876D01*
X57720908Y-50537483D01*
X57771202Y-50672328D01*
X57771206Y-50672335D01*
X57857452Y-50787544D01*
X57857455Y-50787547D01*
X57972664Y-50873793D01*
X57972671Y-50873797D01*
X58017618Y-50890561D01*
X58107517Y-50924091D01*
X58167127Y-50930500D01*
X58549933Y-50930499D01*
X58588251Y-50936568D01*
X58639661Y-50953272D01*
X58763632Y-50993553D01*
X58851110Y-51007408D01*
X58996903Y-51030500D01*
X58996908Y-51030500D01*
X63618097Y-51030500D01*
X63851368Y-50993553D01*
X64075992Y-50920568D01*
X64286434Y-50813343D01*
X64477510Y-50674517D01*
X70994517Y-44157510D01*
X71133343Y-43966434D01*
X71240568Y-43755992D01*
X71313553Y-43531369D01*
X71329973Y-43427690D01*
X71350500Y-43298097D01*
X71350500Y-43061902D01*
X71313553Y-42828631D01*
X71240566Y-42604003D01*
X71133342Y-42393566D01*
X70994517Y-42202490D01*
X70827510Y-42035483D01*
X70636433Y-41896657D01*
X70600902Y-41878553D01*
X70425996Y-41789433D01*
X70201368Y-41716446D01*
X69968097Y-41679500D01*
X69968092Y-41679500D01*
X69731908Y-41679500D01*
X69731903Y-41679500D01*
X69498634Y-41716446D01*
X69274005Y-41789433D01*
X69063565Y-41896657D01*
X68872488Y-42035484D01*
X68872487Y-42035485D01*
X62914792Y-47993181D01*
X62853469Y-48026666D01*
X62827111Y-48029500D01*
X60337301Y-48029500D01*
X60270262Y-48009815D01*
X60224507Y-47957011D01*
X60214563Y-47887853D01*
X60233492Y-47837679D01*
X60350483Y-47658609D01*
X60443682Y-47446135D01*
X60500638Y-47221218D01*
X60519798Y-46990005D01*
X60519798Y-46989994D01*
X60500638Y-46758781D01*
X60443682Y-46533864D01*
X60350483Y-46321390D01*
X60266186Y-46192364D01*
X59557138Y-46901414D01*
X59534333Y-46816306D01*
X59475090Y-46713694D01*
X59391306Y-46629910D01*
X59288694Y-46570667D01*
X59203584Y-46547861D01*
X59913797Y-45837647D01*
X59913797Y-45837645D01*
X59883360Y-45813955D01*
X59883354Y-45813951D01*
X59679302Y-45703523D01*
X59679293Y-45703520D01*
X59459860Y-45628188D01*
X59231007Y-45590000D01*
X58998993Y-45590000D01*
X58770139Y-45628188D01*
X58550706Y-45703520D01*
X58550697Y-45703523D01*
X58346650Y-45813949D01*
X58316200Y-45837647D01*
X59026415Y-46547861D01*
X58941306Y-46570667D01*
X58838694Y-46629910D01*
X58754910Y-46713694D01*
X58695667Y-46816306D01*
X58672861Y-46901414D01*
X57963812Y-46192365D01*
X57879516Y-46321391D01*
X57879514Y-46321395D01*
X57786317Y-46533864D01*
X57729361Y-46758781D01*
X57710202Y-46989994D01*
X57710202Y-46990005D01*
X57729361Y-47221218D01*
X57786317Y-47446135D01*
X57879516Y-47658609D01*
X57963811Y-47787633D01*
X58672861Y-47078584D01*
X58695667Y-47163694D01*
X58754910Y-47266306D01*
X58838694Y-47350090D01*
X58941306Y-47409333D01*
X59026415Y-47432138D01*
X58365370Y-48093181D01*
X58304047Y-48126666D01*
X58277690Y-48129500D01*
X58167130Y-48129500D01*
X58167123Y-48129501D01*
X58107516Y-48135908D01*
X57972671Y-48186202D01*
X57972664Y-48186206D01*
X57857455Y-48272452D01*
X57857452Y-48272455D01*
X57771206Y-48387664D01*
X57771202Y-48387671D01*
X57720908Y-48522517D01*
X57714501Y-48582116D01*
X57714500Y-48582135D01*
X57714500Y-48964934D01*
X57708431Y-49003252D01*
X57651447Y-49178630D01*
X57614500Y-49411902D01*
X55880000Y-49411902D01*
X55880000Y-48260000D01*
X47114000Y-48260000D01*
X47046961Y-48240315D01*
X47001206Y-48187511D01*
X46990000Y-48136000D01*
X46990000Y-41524995D01*
X47345093Y-41524995D01*
X47345093Y-41525004D01*
X47364692Y-41786545D01*
X47364693Y-41786550D01*
X47423058Y-42042270D01*
X47518883Y-42286426D01*
X47518882Y-42286426D01*
X47650029Y-42513576D01*
X47697873Y-42573572D01*
X48384152Y-41887292D01*
X48391049Y-41903942D01*
X48478599Y-42034970D01*
X48590030Y-42146401D01*
X48721058Y-42233951D01*
X48737705Y-42240846D01*
X48050830Y-42927720D01*
X48222546Y-43044793D01*
X48222550Y-43044795D01*
X48458854Y-43158594D01*
X48458858Y-43158595D01*
X48709494Y-43235907D01*
X48709500Y-43235909D01*
X48968848Y-43274999D01*
X48968857Y-43275000D01*
X49231143Y-43275000D01*
X49231151Y-43274999D01*
X49490499Y-43235909D01*
X49490505Y-43235907D01*
X49741143Y-43158595D01*
X49977445Y-43044798D01*
X49977447Y-43044797D01*
X50149168Y-42927720D01*
X49462294Y-42240846D01*
X49478942Y-42233951D01*
X49609970Y-42146401D01*
X49721401Y-42034970D01*
X49808951Y-41903942D01*
X49815846Y-41887293D01*
X50502125Y-42573572D01*
X50549971Y-42513573D01*
X50681113Y-42286431D01*
X50684570Y-42277625D01*
X50727385Y-42222410D01*
X50793254Y-42199108D01*
X50861266Y-42215116D01*
X50909825Y-42265353D01*
X50915430Y-42277625D01*
X50918886Y-42286431D01*
X51050029Y-42513576D01*
X51097873Y-42573572D01*
X51784152Y-41887292D01*
X51791049Y-41903942D01*
X51878599Y-42034970D01*
X51990030Y-42146401D01*
X52121058Y-42233951D01*
X52137705Y-42240846D01*
X51450830Y-42927720D01*
X51622546Y-43044793D01*
X51622550Y-43044795D01*
X51858854Y-43158594D01*
X51858858Y-43158595D01*
X52109494Y-43235907D01*
X52109500Y-43235909D01*
X52368848Y-43274999D01*
X52368857Y-43275000D01*
X52631143Y-43275000D01*
X52631151Y-43274999D01*
X52890499Y-43235909D01*
X52890505Y-43235907D01*
X53141143Y-43158595D01*
X53377445Y-43044798D01*
X53377447Y-43044797D01*
X53549168Y-42927720D01*
X52862294Y-42240846D01*
X52878942Y-42233951D01*
X53009970Y-42146401D01*
X53121401Y-42034970D01*
X53208951Y-41903942D01*
X53215846Y-41887293D01*
X53902125Y-42573572D01*
X53949971Y-42513573D01*
X54081116Y-42286426D01*
X54176941Y-42042270D01*
X54235306Y-41786550D01*
X54235307Y-41786545D01*
X54254907Y-41525004D01*
X54254907Y-41524995D01*
X54235307Y-41263454D01*
X54235306Y-41263449D01*
X54176941Y-41007729D01*
X54081116Y-40763573D01*
X54081117Y-40763573D01*
X53949972Y-40536426D01*
X53902124Y-40476427D01*
X53215846Y-41162705D01*
X53208951Y-41146058D01*
X53121401Y-41015030D01*
X53009970Y-40903599D01*
X52878942Y-40816049D01*
X52862293Y-40809152D01*
X53549168Y-40122278D01*
X53377454Y-40005206D01*
X53377445Y-40005201D01*
X53141142Y-39891404D01*
X53141144Y-39891404D01*
X52890505Y-39814092D01*
X52890499Y-39814090D01*
X52631151Y-39775000D01*
X52368848Y-39775000D01*
X52109500Y-39814090D01*
X52109494Y-39814092D01*
X51858858Y-39891404D01*
X51858854Y-39891405D01*
X51622547Y-40005205D01*
X51622539Y-40005210D01*
X51450830Y-40122277D01*
X52137706Y-40809152D01*
X52121058Y-40816049D01*
X51990030Y-40903599D01*
X51878599Y-41015030D01*
X51791049Y-41146058D01*
X51784153Y-41162706D01*
X51097874Y-40476427D01*
X51050028Y-40536425D01*
X50918883Y-40763573D01*
X50915428Y-40772377D01*
X50872612Y-40827591D01*
X50806742Y-40850892D01*
X50738732Y-40834881D01*
X50690173Y-40784643D01*
X50684572Y-40772377D01*
X50681116Y-40763573D01*
X50681117Y-40763573D01*
X50549972Y-40536426D01*
X50502124Y-40476427D01*
X49815846Y-41162705D01*
X49808951Y-41146058D01*
X49721401Y-41015030D01*
X49609970Y-40903599D01*
X49478942Y-40816049D01*
X49462293Y-40809152D01*
X50149168Y-40122278D01*
X49977454Y-40005206D01*
X49977445Y-40005201D01*
X49741142Y-39891404D01*
X49741144Y-39891404D01*
X49490505Y-39814092D01*
X49490499Y-39814090D01*
X49231151Y-39775000D01*
X48968848Y-39775000D01*
X48709500Y-39814090D01*
X48709494Y-39814092D01*
X48458858Y-39891404D01*
X48458854Y-39891405D01*
X48222547Y-40005205D01*
X48222539Y-40005210D01*
X48050830Y-40122277D01*
X48737706Y-40809152D01*
X48721058Y-40816049D01*
X48590030Y-40903599D01*
X48478599Y-41015030D01*
X48391049Y-41146058D01*
X48384153Y-41162706D01*
X47697874Y-40476427D01*
X47650028Y-40536425D01*
X47518883Y-40763573D01*
X47423058Y-41007729D01*
X47364693Y-41263449D01*
X47364692Y-41263454D01*
X47345093Y-41524995D01*
X46990000Y-41524995D01*
X46990000Y-35112486D01*
X57549500Y-35112486D01*
X57549500Y-35407513D01*
X57579889Y-35638333D01*
X57588007Y-35699993D01*
X57648388Y-35925338D01*
X57664361Y-35984951D01*
X57664364Y-35984961D01*
X57777254Y-36257500D01*
X57777258Y-36257510D01*
X57924761Y-36512993D01*
X58104352Y-36747040D01*
X58104358Y-36747047D01*
X58312952Y-36955641D01*
X58312959Y-36955647D01*
X58547006Y-37135238D01*
X58802489Y-37282741D01*
X58802490Y-37282741D01*
X58802493Y-37282743D01*
X59075048Y-37395639D01*
X59360007Y-37471993D01*
X59652494Y-37510500D01*
X59652501Y-37510500D01*
X59947499Y-37510500D01*
X59947506Y-37510500D01*
X60239993Y-37471993D01*
X60524952Y-37395639D01*
X60797507Y-37282743D01*
X61052994Y-37135238D01*
X61287042Y-36955646D01*
X61495646Y-36747042D01*
X61675238Y-36512994D01*
X61822743Y-36257507D01*
X61935639Y-35984952D01*
X62011993Y-35699993D01*
X62050500Y-35407506D01*
X62050500Y-35112494D01*
X62011993Y-34820007D01*
X61970455Y-34664983D01*
X65939500Y-34664983D01*
X65939500Y-36455001D01*
X65939501Y-36455018D01*
X65950000Y-36557796D01*
X65950001Y-36557799D01*
X65987774Y-36671788D01*
X66005186Y-36724334D01*
X66097288Y-36873656D01*
X66221344Y-36997712D01*
X66370666Y-37089814D01*
X66537203Y-37144999D01*
X66639991Y-37155500D01*
X67980008Y-37155499D01*
X68082797Y-37144999D01*
X68249334Y-37089814D01*
X68398656Y-36997712D01*
X68522712Y-36873656D01*
X68614814Y-36724334D01*
X68614817Y-36724323D01*
X68615353Y-36723177D01*
X68615934Y-36722516D01*
X68618605Y-36718187D01*
X68619344Y-36718643D01*
X68661521Y-36670734D01*
X68728713Y-36651577D01*
X68795596Y-36671788D01*
X68815420Y-36687892D01*
X68957502Y-36829974D01*
X69131963Y-36956728D01*
X69324098Y-37054627D01*
X69529190Y-37121266D01*
X69600000Y-37132481D01*
X69600000Y-36102709D01*
X69620339Y-36114452D01*
X69771667Y-36155000D01*
X69928333Y-36155000D01*
X70079661Y-36114452D01*
X70100000Y-36102709D01*
X70100000Y-37132480D01*
X70170809Y-37121266D01*
X70375901Y-37054627D01*
X70568036Y-36956728D01*
X70742496Y-36829974D01*
X70742497Y-36829974D01*
X70894974Y-36677497D01*
X70894974Y-36677496D01*
X71021728Y-36503036D01*
X71119627Y-36310901D01*
X71186265Y-36105809D01*
X71220000Y-35892820D01*
X71220000Y-35810000D01*
X70392709Y-35810000D01*
X70404452Y-35789661D01*
X70445000Y-35638333D01*
X70445000Y-35481667D01*
X70404452Y-35330339D01*
X70392709Y-35310000D01*
X71220000Y-35310000D01*
X71220000Y-35227179D01*
X71186265Y-35014190D01*
X71119627Y-34809098D01*
X71046196Y-34664983D01*
X73559500Y-34664983D01*
X73559500Y-36455001D01*
X73559501Y-36455018D01*
X73570000Y-36557796D01*
X73570001Y-36557799D01*
X73607774Y-36671788D01*
X73625186Y-36724334D01*
X73717288Y-36873656D01*
X73841344Y-36997712D01*
X73990666Y-37089814D01*
X74157203Y-37144999D01*
X74259991Y-37155500D01*
X75600008Y-37155499D01*
X75702797Y-37144999D01*
X75869334Y-37089814D01*
X76018656Y-36997712D01*
X76142712Y-36873656D01*
X76234814Y-36724334D01*
X76234817Y-36724323D01*
X76235353Y-36723177D01*
X76235934Y-36722516D01*
X76238605Y-36718187D01*
X76239344Y-36718643D01*
X76281521Y-36670734D01*
X76348713Y-36651577D01*
X76415596Y-36671788D01*
X76435420Y-36687892D01*
X76577502Y-36829974D01*
X76751963Y-36956728D01*
X76944098Y-37054627D01*
X77149190Y-37121266D01*
X77220000Y-37132481D01*
X77220000Y-36102709D01*
X77240339Y-36114452D01*
X77391667Y-36155000D01*
X77548333Y-36155000D01*
X77699661Y-36114452D01*
X77720000Y-36102709D01*
X77720000Y-37132480D01*
X77790809Y-37121266D01*
X77995901Y-37054627D01*
X78188036Y-36956728D01*
X78362496Y-36829974D01*
X78362497Y-36829974D01*
X78514974Y-36677497D01*
X78514974Y-36677496D01*
X78641728Y-36503036D01*
X78739627Y-36310901D01*
X78806265Y-36105809D01*
X78840000Y-35892820D01*
X78840000Y-35810000D01*
X78012709Y-35810000D01*
X78024452Y-35789661D01*
X78065000Y-35638333D01*
X78065000Y-35481667D01*
X78024452Y-35330339D01*
X78012709Y-35310000D01*
X78840000Y-35310000D01*
X78840000Y-35227179D01*
X78806265Y-35014190D01*
X78739627Y-34809098D01*
X78641728Y-34616963D01*
X78514974Y-34442503D01*
X78514974Y-34442502D01*
X78362497Y-34290025D01*
X78188036Y-34163271D01*
X77995899Y-34065372D01*
X77790805Y-33998733D01*
X77720000Y-33987518D01*
X77720000Y-35017290D01*
X77699661Y-35005548D01*
X77548333Y-34965000D01*
X77391667Y-34965000D01*
X77240339Y-35005548D01*
X77220000Y-35017290D01*
X77220000Y-33987518D01*
X77219999Y-33987518D01*
X77149194Y-33998733D01*
X76944100Y-34065372D01*
X76751963Y-34163271D01*
X76577506Y-34290022D01*
X76435420Y-34432108D01*
X76374097Y-34465592D01*
X76304405Y-34460608D01*
X76248472Y-34418736D01*
X76235356Y-34396828D01*
X76234816Y-34395670D01*
X76169654Y-34290025D01*
X76142712Y-34246344D01*
X76018656Y-34122288D01*
X75869334Y-34030186D01*
X75702797Y-33975001D01*
X75702795Y-33975000D01*
X75600010Y-33964500D01*
X74259998Y-33964500D01*
X74259981Y-33964501D01*
X74157203Y-33975000D01*
X74157200Y-33975001D01*
X73990668Y-34030185D01*
X73990663Y-34030187D01*
X73841342Y-34122289D01*
X73717289Y-34246342D01*
X73625187Y-34395663D01*
X73625185Y-34395668D01*
X73624801Y-34396828D01*
X73570001Y-34562203D01*
X73570001Y-34562204D01*
X73570000Y-34562204D01*
X73559500Y-34664983D01*
X71046196Y-34664983D01*
X71021728Y-34616963D01*
X70894974Y-34442503D01*
X70894974Y-34442502D01*
X70742497Y-34290025D01*
X70568036Y-34163271D01*
X70375899Y-34065372D01*
X70170805Y-33998733D01*
X70100000Y-33987518D01*
X70100000Y-35017290D01*
X70079661Y-35005548D01*
X69928333Y-34965000D01*
X69771667Y-34965000D01*
X69620339Y-35005548D01*
X69600000Y-35017290D01*
X69600000Y-33987518D01*
X69599999Y-33987518D01*
X69529194Y-33998733D01*
X69324100Y-34065372D01*
X69131963Y-34163271D01*
X68957506Y-34290022D01*
X68815420Y-34432108D01*
X68754097Y-34465592D01*
X68684405Y-34460608D01*
X68628472Y-34418736D01*
X68615356Y-34396828D01*
X68614816Y-34395670D01*
X68549654Y-34290025D01*
X68522712Y-34246344D01*
X68398656Y-34122288D01*
X68249334Y-34030186D01*
X68082797Y-33975001D01*
X68082795Y-33975000D01*
X67980010Y-33964500D01*
X66639998Y-33964500D01*
X66639981Y-33964501D01*
X66537203Y-33975000D01*
X66537200Y-33975001D01*
X66370668Y-34030185D01*
X66370663Y-34030187D01*
X66221342Y-34122289D01*
X66097289Y-34246342D01*
X66005187Y-34395663D01*
X66005185Y-34395668D01*
X66004801Y-34396828D01*
X65950001Y-34562203D01*
X65950001Y-34562204D01*
X65950000Y-34562204D01*
X65939500Y-34664983D01*
X61970455Y-34664983D01*
X61935639Y-34535048D01*
X61822743Y-34262493D01*
X61813419Y-34246344D01*
X61675238Y-34007006D01*
X61495647Y-33772959D01*
X61495641Y-33772952D01*
X61287047Y-33564358D01*
X61287040Y-33564352D01*
X61052993Y-33384761D01*
X60797510Y-33237258D01*
X60797500Y-33237254D01*
X60524961Y-33124364D01*
X60524954Y-33124362D01*
X60524952Y-33124361D01*
X60239993Y-33048007D01*
X60191113Y-33041571D01*
X59947513Y-33009500D01*
X59947506Y-33009500D01*
X59652494Y-33009500D01*
X59652486Y-33009500D01*
X59374085Y-33046153D01*
X59360007Y-33048007D01*
X59075048Y-33124361D01*
X59075038Y-33124364D01*
X58802499Y-33237254D01*
X58802489Y-33237258D01*
X58547006Y-33384761D01*
X58312959Y-33564352D01*
X58312952Y-33564358D01*
X58104358Y-33772952D01*
X58104352Y-33772959D01*
X57924761Y-34007006D01*
X57777258Y-34262489D01*
X57777254Y-34262499D01*
X57664364Y-34535038D01*
X57664361Y-34535048D01*
X57588008Y-34820004D01*
X57588006Y-34820015D01*
X57549500Y-35112486D01*
X46990000Y-35112486D01*
X46990000Y-30884500D01*
X47009685Y-30817461D01*
X47062489Y-30771706D01*
X47114000Y-30760500D01*
X80715500Y-30760500D01*
X80782539Y-30780185D01*
G37*
%TD.AperFunction*%
%TD*%
%TA.AperFunction,Conductor*%
%TO.N,GND*%
G36*
X46427539Y-30780185D02*
G01*
X46473294Y-30832989D01*
X46484500Y-30884500D01*
X46484500Y-35145618D01*
X46484500Y-40291344D01*
X46484500Y-41524999D01*
X46484500Y-42758654D01*
X46484500Y-48136000D01*
X46484501Y-48136009D01*
X46496052Y-48243450D01*
X46496054Y-48243462D01*
X46507260Y-48294972D01*
X46541383Y-48397497D01*
X46541386Y-48397503D01*
X46619171Y-48518537D01*
X46619179Y-48518548D01*
X46664923Y-48571340D01*
X46664926Y-48571343D01*
X46664930Y-48571347D01*
X46773664Y-48665567D01*
X46904541Y-48725338D01*
X46971580Y-48745023D01*
X46971584Y-48745024D01*
X47114000Y-48765500D01*
X55250500Y-48765500D01*
X55317539Y-48785185D01*
X55363294Y-48837989D01*
X55374500Y-48889500D01*
X55374500Y-65635500D01*
X55354815Y-65702539D01*
X55302011Y-65748294D01*
X55250500Y-65759500D01*
X31964500Y-65759500D01*
X31897461Y-65739815D01*
X31851706Y-65687011D01*
X31840500Y-65635500D01*
X31840500Y-54442135D01*
X36904500Y-54442135D01*
X36904500Y-57317870D01*
X36904501Y-57317876D01*
X36910908Y-57377483D01*
X36961202Y-57512328D01*
X36961206Y-57512335D01*
X37047452Y-57627544D01*
X37047455Y-57627547D01*
X37162664Y-57713793D01*
X37162671Y-57713797D01*
X37297517Y-57764091D01*
X37297516Y-57764091D01*
X37304444Y-57764835D01*
X37357127Y-57770500D01*
X40232872Y-57770499D01*
X40292483Y-57764091D01*
X40427331Y-57713796D01*
X40542546Y-57627546D01*
X40628796Y-57512331D01*
X40647879Y-57461168D01*
X40689750Y-57405234D01*
X40755214Y-57380816D01*
X40764061Y-57380500D01*
X43993097Y-57380500D01*
X44226368Y-57343553D01*
X44305393Y-57317876D01*
X44450992Y-57270568D01*
X44661434Y-57163343D01*
X44852510Y-57024517D01*
X45345208Y-56531819D01*
X45406531Y-56498334D01*
X45432889Y-56495500D01*
X48155111Y-56495500D01*
X48217708Y-56513880D01*
X48218272Y-56512905D01*
X48222287Y-56515222D01*
X48222296Y-56515228D01*
X48458673Y-56629061D01*
X48458674Y-56629061D01*
X48458677Y-56629063D01*
X48709385Y-56706396D01*
X48968818Y-56745500D01*
X49231182Y-56745500D01*
X49490615Y-56706396D01*
X49741323Y-56629063D01*
X49977704Y-56515228D01*
X49977717Y-56515218D01*
X49981728Y-56512905D01*
X49982692Y-56514576D01*
X50041491Y-56495547D01*
X50044889Y-56495500D01*
X51555111Y-56495500D01*
X51617708Y-56513880D01*
X51618272Y-56512905D01*
X51622287Y-56515222D01*
X51622296Y-56515228D01*
X51858673Y-56629061D01*
X51858674Y-56629061D01*
X51858677Y-56629063D01*
X52109385Y-56706396D01*
X52368818Y-56745500D01*
X52631182Y-56745500D01*
X52890615Y-56706396D01*
X53141323Y-56629063D01*
X53377704Y-56515228D01*
X53594479Y-56367433D01*
X53786805Y-56188981D01*
X53950386Y-55983857D01*
X54081568Y-55756643D01*
X54177420Y-55512416D01*
X54235802Y-55256630D01*
X54255408Y-54995000D01*
X54235802Y-54733370D01*
X54177420Y-54477584D01*
X54081568Y-54233357D01*
X53950386Y-54006143D01*
X53786805Y-53801019D01*
X53786804Y-53801018D01*
X53786801Y-53801014D01*
X53594479Y-53622567D01*
X53540267Y-53585606D01*
X53377704Y-53474772D01*
X53377698Y-53474769D01*
X53377697Y-53474768D01*
X53377696Y-53474767D01*
X53141325Y-53360938D01*
X53141327Y-53360938D01*
X52890623Y-53283606D01*
X52890619Y-53283605D01*
X52890615Y-53283604D01*
X52765823Y-53264794D01*
X52631187Y-53244500D01*
X52631182Y-53244500D01*
X52368818Y-53244500D01*
X52368812Y-53244500D01*
X52207247Y-53268853D01*
X52109385Y-53283604D01*
X52109382Y-53283605D01*
X52109376Y-53283606D01*
X51858673Y-53360938D01*
X51622301Y-53474769D01*
X51618272Y-53477095D01*
X51617307Y-53475423D01*
X51558509Y-53494453D01*
X51555111Y-53494500D01*
X50044889Y-53494500D01*
X49982291Y-53476119D01*
X49981728Y-53477095D01*
X49977708Y-53474775D01*
X49977704Y-53474772D01*
X49741325Y-53360938D01*
X49741327Y-53360938D01*
X49490623Y-53283606D01*
X49490619Y-53283605D01*
X49490615Y-53283604D01*
X49365823Y-53264794D01*
X49231187Y-53244500D01*
X49231182Y-53244500D01*
X48968818Y-53244500D01*
X48968812Y-53244500D01*
X48807247Y-53268853D01*
X48709385Y-53283604D01*
X48709382Y-53283605D01*
X48709376Y-53283606D01*
X48458673Y-53360938D01*
X48222301Y-53474769D01*
X48218272Y-53477095D01*
X48217307Y-53475423D01*
X48158509Y-53494453D01*
X48155111Y-53494500D01*
X44641903Y-53494500D01*
X44408631Y-53531446D01*
X44184003Y-53604433D01*
X43973565Y-53711657D01*
X43782488Y-53850484D01*
X43782487Y-53850485D01*
X43289792Y-54343181D01*
X43228469Y-54376666D01*
X43202111Y-54379500D01*
X40764061Y-54379500D01*
X40697022Y-54359815D01*
X40651267Y-54307011D01*
X40647879Y-54298832D01*
X40628798Y-54247673D01*
X40628793Y-54247664D01*
X40542547Y-54132455D01*
X40542544Y-54132452D01*
X40427335Y-54046206D01*
X40427328Y-54046202D01*
X40292482Y-53995908D01*
X40292483Y-53995908D01*
X40232883Y-53989501D01*
X40232881Y-53989500D01*
X40232873Y-53989500D01*
X40232864Y-53989500D01*
X37357129Y-53989500D01*
X37357123Y-53989501D01*
X37297516Y-53995908D01*
X37162671Y-54046202D01*
X37162664Y-54046206D01*
X37047455Y-54132452D01*
X37047452Y-54132455D01*
X36961206Y-54247664D01*
X36961202Y-54247671D01*
X36910908Y-54382517D01*
X36904501Y-54442116D01*
X36904500Y-54442135D01*
X31840500Y-54442135D01*
X31840500Y-50799998D01*
X36900172Y-50799998D01*
X36900172Y-50800001D01*
X36919459Y-51069663D01*
X36919460Y-51069670D01*
X36976924Y-51333830D01*
X37071404Y-51587141D01*
X37071406Y-51587145D01*
X37200965Y-51824415D01*
X37200970Y-51824423D01*
X37293464Y-51947980D01*
X37293465Y-51947981D01*
X38011732Y-51229713D01*
X38103692Y-51367342D01*
X38227658Y-51491308D01*
X38365285Y-51583266D01*
X37647017Y-52301533D01*
X37770583Y-52394033D01*
X37770584Y-52394034D01*
X38007854Y-52523593D01*
X38007858Y-52523595D01*
X38261169Y-52618075D01*
X38525329Y-52675539D01*
X38525336Y-52675540D01*
X38794999Y-52694828D01*
X38795001Y-52694828D01*
X39064663Y-52675540D01*
X39064670Y-52675539D01*
X39328830Y-52618075D01*
X39582141Y-52523595D01*
X39582145Y-52523593D01*
X39819424Y-52394029D01*
X39942980Y-52301534D01*
X39942981Y-52301533D01*
X39224714Y-51583267D01*
X39362342Y-51491308D01*
X39486308Y-51367342D01*
X39578267Y-51229714D01*
X40296533Y-51947981D01*
X40296534Y-51947980D01*
X40389029Y-51824424D01*
X40518593Y-51587145D01*
X40518595Y-51587141D01*
X40613075Y-51333830D01*
X40670539Y-51069670D01*
X40670540Y-51069663D01*
X40689828Y-50800001D01*
X40689828Y-50799998D01*
X40670540Y-50530336D01*
X40670539Y-50530329D01*
X40613075Y-50266169D01*
X40518595Y-50012858D01*
X40518593Y-50012854D01*
X40389034Y-49775584D01*
X40389033Y-49775583D01*
X40296533Y-49652017D01*
X39578266Y-50370284D01*
X39486308Y-50232658D01*
X39362342Y-50108692D01*
X39224713Y-50016732D01*
X39942981Y-49298465D01*
X39942980Y-49298464D01*
X39819423Y-49205970D01*
X39819415Y-49205965D01*
X39582145Y-49076406D01*
X39582141Y-49076404D01*
X39328830Y-48981924D01*
X39064670Y-48924460D01*
X39064663Y-48924459D01*
X38795001Y-48905172D01*
X38794999Y-48905172D01*
X38525336Y-48924459D01*
X38525329Y-48924460D01*
X38261169Y-48981924D01*
X38007858Y-49076404D01*
X38007854Y-49076406D01*
X37770584Y-49205965D01*
X37770576Y-49205970D01*
X37647018Y-49298464D01*
X37647017Y-49298465D01*
X38365285Y-50016732D01*
X38227658Y-50108692D01*
X38103692Y-50232658D01*
X38011732Y-50370285D01*
X37293465Y-49652017D01*
X37293464Y-49652018D01*
X37200970Y-49775576D01*
X37200965Y-49775584D01*
X37071406Y-50012854D01*
X37071404Y-50012858D01*
X36976924Y-50266169D01*
X36919460Y-50530329D01*
X36919459Y-50530336D01*
X36900172Y-50799998D01*
X31840500Y-50799998D01*
X31840500Y-45719998D01*
X36900172Y-45719998D01*
X36900172Y-45720001D01*
X36919459Y-45989663D01*
X36919460Y-45989670D01*
X36976924Y-46253830D01*
X37071404Y-46507141D01*
X37071406Y-46507145D01*
X37200965Y-46744415D01*
X37200970Y-46744423D01*
X37293464Y-46867980D01*
X37293465Y-46867981D01*
X38011732Y-46149713D01*
X38103692Y-46287342D01*
X38227658Y-46411308D01*
X38365285Y-46503266D01*
X37647017Y-47221533D01*
X37770583Y-47314033D01*
X37770584Y-47314034D01*
X38007854Y-47443593D01*
X38007858Y-47443595D01*
X38261169Y-47538075D01*
X38525329Y-47595539D01*
X38525336Y-47595540D01*
X38794999Y-47614828D01*
X38795001Y-47614828D01*
X39064663Y-47595540D01*
X39064670Y-47595539D01*
X39328830Y-47538075D01*
X39582141Y-47443595D01*
X39582145Y-47443593D01*
X39819424Y-47314029D01*
X39942980Y-47221534D01*
X39942981Y-47221533D01*
X39224714Y-46503267D01*
X39362342Y-46411308D01*
X39486308Y-46287342D01*
X39578267Y-46149714D01*
X40296533Y-46867981D01*
X40296534Y-46867980D01*
X40389029Y-46744424D01*
X40518593Y-46507145D01*
X40518595Y-46507141D01*
X40613075Y-46253830D01*
X40670539Y-45989670D01*
X40670540Y-45989663D01*
X40689828Y-45720001D01*
X40689828Y-45719998D01*
X40670540Y-45450336D01*
X40670539Y-45450329D01*
X40613075Y-45186169D01*
X40518595Y-44932858D01*
X40518593Y-44932854D01*
X40389034Y-44695584D01*
X40389033Y-44695583D01*
X40296533Y-44572017D01*
X39578266Y-45290284D01*
X39486308Y-45152658D01*
X39362342Y-45028692D01*
X39224713Y-44936732D01*
X39942981Y-44218465D01*
X39942980Y-44218464D01*
X39819423Y-44125970D01*
X39819415Y-44125965D01*
X39582145Y-43996406D01*
X39582141Y-43996404D01*
X39328830Y-43901924D01*
X39064670Y-43844460D01*
X39064663Y-43844459D01*
X38795001Y-43825172D01*
X38794999Y-43825172D01*
X38525336Y-43844459D01*
X38525329Y-43844460D01*
X38261169Y-43901924D01*
X38007858Y-43996404D01*
X38007854Y-43996406D01*
X37770584Y-44125965D01*
X37770576Y-44125970D01*
X37647018Y-44218464D01*
X37647017Y-44218465D01*
X38365285Y-44936732D01*
X38227658Y-45028692D01*
X38103692Y-45152658D01*
X38011732Y-45290285D01*
X37293465Y-44572017D01*
X37293464Y-44572018D01*
X37200970Y-44695576D01*
X37200965Y-44695584D01*
X37071406Y-44932854D01*
X37071404Y-44932858D01*
X36976924Y-45186169D01*
X36919460Y-45450329D01*
X36919459Y-45450336D01*
X36900172Y-45719998D01*
X31840500Y-45719998D01*
X31840500Y-40639998D01*
X36899671Y-40639998D01*
X36899671Y-40640001D01*
X36918963Y-40909733D01*
X36918964Y-40909740D01*
X36976443Y-41173971D01*
X37070948Y-41427349D01*
X37070950Y-41427353D01*
X37200544Y-41664686D01*
X37200549Y-41664694D01*
X37362599Y-41881169D01*
X37362615Y-41881187D01*
X37553812Y-42072384D01*
X37553830Y-42072400D01*
X37770305Y-42234450D01*
X37770313Y-42234455D01*
X38007646Y-42364049D01*
X38007650Y-42364051D01*
X38007652Y-42364052D01*
X38261024Y-42458555D01*
X38261027Y-42458555D01*
X38261028Y-42458556D01*
X38349105Y-42477715D01*
X38525267Y-42516037D01*
X38775707Y-42533949D01*
X38794999Y-42535329D01*
X38795000Y-42535329D01*
X38795001Y-42535329D01*
X38813005Y-42534041D01*
X39064733Y-42516037D01*
X39328976Y-42458555D01*
X39582348Y-42364052D01*
X39819692Y-42234452D01*
X40036177Y-42072394D01*
X40227394Y-41881177D01*
X40389452Y-41664692D01*
X40519052Y-41427348D01*
X40613555Y-41173976D01*
X40671037Y-40909733D01*
X40690329Y-40640000D01*
X40671037Y-40370267D01*
X40613555Y-40106024D01*
X40519052Y-39852652D01*
X40389452Y-39615308D01*
X40389450Y-39615305D01*
X40227400Y-39398830D01*
X40227384Y-39398812D01*
X40036187Y-39207615D01*
X40036169Y-39207599D01*
X39819694Y-39045549D01*
X39819686Y-39045544D01*
X39582353Y-38915950D01*
X39582349Y-38915948D01*
X39328971Y-38821443D01*
X39064740Y-38763964D01*
X39064733Y-38763963D01*
X38795001Y-38744671D01*
X38794999Y-38744671D01*
X38525266Y-38763963D01*
X38525259Y-38763964D01*
X38261028Y-38821443D01*
X38007650Y-38915948D01*
X38007646Y-38915950D01*
X37770313Y-39045544D01*
X37770305Y-39045549D01*
X37553830Y-39207599D01*
X37553812Y-39207615D01*
X37362615Y-39398812D01*
X37362599Y-39398830D01*
X37200549Y-39615305D01*
X37200544Y-39615313D01*
X37070950Y-39852646D01*
X37070948Y-39852650D01*
X36976443Y-40106028D01*
X36918964Y-40370259D01*
X36918963Y-40370266D01*
X36899671Y-40639998D01*
X31840500Y-40639998D01*
X31840500Y-30884500D01*
X31860185Y-30817461D01*
X31912989Y-30771706D01*
X31964500Y-30760500D01*
X46360500Y-30760500D01*
X46427539Y-30780185D01*
G37*
%TD.AperFunction*%
%TD*%
M02*
